<?xml version="1.0" encoding="UTF-8"?>
<svg width="442px" height="95px" viewBox="0 0 442 95" version="1.1" xmlns="http://www.w3.org/2000/svg" xmlns:xlink="http://www.w3.org/1999/xlink">
    <!-- Generator: Sketch 51.1 (57501) - http://www.bohemiancoding.com/sketch -->
    <title>about</title>
    <desc>Created with Sketch.</desc>
    <defs>
        <path d="M56.1334765,59.0766332 L45.885041,29.120603 L35.6366054,59.0766332 L56.1334765,59.0766332 Z M62.1893702,76.8592965 L29.5807117,76.8592965 L24.3400344,92.4937186 L0,92.4937186 L33.423875,2.50628141 L58.3462069,2.50628141 L91.7700819,92.4937186 L67.4300475,92.4937186 L62.1893702,76.8592965 Z M126.018228,74.3530151 L131.025986,74.3530151 C136.77135,74.3530151 140.886211,73.59716 143.370692,72.0854271 C145.855174,70.5736943 147.097396,68.1470016 147.097396,64.8052764 C147.097396,61.4635511 145.855174,59.0368585 143.370692,57.5251256 C140.886211,56.0133928 136.77135,55.2575377 131.025986,55.2575377 L126.018228,55.2575377 L126.018228,74.3530151 Z M126.018228,37.8329146 L130.210769,37.8329146 C137.353654,37.8329146 140.925043,34.9288398 140.925043,29.120603 C140.925043,23.3123663 137.353654,20.4082915 130.210769,20.4082915 L126.018228,20.4082915 L126.018228,37.8329146 Z M103.192167,2.50628141 L137.198339,2.50628141 C145.272905,2.50628141 151.406377,4.49537374 155.598939,8.47361809 C159.791502,12.4518624 161.887752,18.1804484 161.887752,25.6595477 C161.887752,30.1947463 161.091953,33.9541308 159.500332,36.9378141 C157.908711,39.9214973 155.482496,42.4476446 152.221614,44.5163317 C155.482496,45.1528508 158.258086,46.127506 160.548468,47.4403266 C162.838849,48.7531473 164.702183,50.3643121 166.138524,52.2738693 C167.574865,54.1834266 168.60358,56.3316464 169.2247,58.718593 C169.845821,61.1055396 170.156376,63.6515778 170.156376,66.3567839 C170.156376,70.5737229 169.438217,74.3132165 168.001876,77.5753769 C166.565535,80.8375372 164.546924,83.5824847 161.945982,85.8103015 C159.34504,88.0381183 156.181255,89.7089559 152.454533,90.8228643 C148.727811,91.9367727 144.535311,92.4937186 139.876908,92.4937186 L103.192167,92.4937186 L103.192167,2.50628141 Z M204.404522,47.5 C204.404522,51.0804199 205.064453,54.3823132 206.384333,57.4057789 C207.704214,60.4292446 209.489909,63.0548465 211.74147,65.2826633 C213.993032,67.5104802 216.613344,69.2409905 219.602486,70.4742462 C222.591628,71.707502 225.755413,72.3241206 229.093935,72.3241206 C232.432457,72.3241206 235.596242,71.707502 238.585384,70.4742462 C241.574526,69.2409905 244.214248,67.5104802 246.504629,65.2826633 C248.795011,63.0548465 250.600115,60.4292446 251.919996,57.4057789 C253.239877,54.3823132 253.899807,51.0804199 253.899807,47.5 C253.899807,43.9195801 253.239877,40.6176868 251.919996,37.5942211 C250.600115,34.5707554 248.795011,31.9451535 246.504629,29.7173367 C244.214248,27.4895198 241.574526,25.7590095 238.585384,24.5257538 C235.596242,23.292498 232.432457,22.6758794 229.093935,22.6758794 C225.755413,22.6758794 222.591628,23.292498 219.602486,24.5257538 C216.613344,25.7590095 213.993032,27.4895198 211.74147,29.7173367 C209.489909,31.9451535 207.704214,34.5707554 206.384333,37.5942211 C205.064453,40.6176868 204.404522,43.9195801 204.404522,47.5 Z M180.530326,47.5 C180.530326,40.8165495 181.733728,34.5906905 184.14057,28.8222362 C186.547411,23.0537819 189.885884,18.0213783 194.156086,13.7248744 C198.426289,9.42837048 203.531046,6.06680443 209.47051,3.64007538 C215.409974,1.21334633 221.95105,0 229.093935,0 C236.15918,0 242.680846,1.21334633 248.65913,3.64007538 C254.637414,6.06680443 259.78099,9.42837048 264.090013,13.7248744 C268.399036,18.0213783 271.756918,23.0537819 274.163759,28.8222362 C276.570601,34.5906905 277.774004,40.8165495 277.774004,47.5 C277.774004,54.1834505 276.570601,60.4093095 274.163759,66.1777638 C271.756918,71.9462181 268.399036,76.9786217 264.090013,81.2751256 C259.78099,85.5716295 254.637414,88.9331956 248.65913,91.3599246 C242.680846,93.7866537 236.15918,95 229.093935,95 C221.95105,95 215.409974,93.7866537 209.47051,91.3599246 C203.531046,88.9331956 198.426289,85.5716295 194.156086,81.2751256 C189.885884,76.9786217 186.547411,71.9462181 184.14057,66.1777638 C181.733728,60.4093095 180.530326,54.1834505 180.530326,47.5 Z M316.44761,2.50628141 L316.44761,51.4384422 C316.44761,54.0640835 316.544659,56.7493581 316.738759,59.4943467 C316.932859,62.2393353 317.515151,64.7257008 318.485651,66.9535176 C319.456152,69.1813344 320.98952,70.9914084 323.085801,72.383794 C325.182083,73.7761795 328.132361,74.4723618 331.936723,74.4723618 C335.741086,74.4723618 338.671954,73.7761795 340.729415,72.383794 C342.786876,70.9914084 344.320244,69.1813344 345.329565,66.9535176 C346.338886,64.7257008 346.940587,62.2393353 347.134687,59.4943467 C347.328787,56.7493581 347.425836,54.0640835 347.425836,51.4384422 L347.425836,2.50628141 L370.135437,2.50628141 L370.135437,54.660804 C370.135437,68.6642241 367.010472,78.8881587 360.760448,85.3329146 C354.510424,91.7776704 344.902612,95 331.936723,95 C318.970835,95 309.343613,91.7776704 303.054768,85.3329146 C296.765924,78.8881587 293.621549,68.6642241 293.621549,54.660804 L293.621549,2.50628141 L316.44761,2.50628141 Z M423.250021,22.3178392 L423.250021,92.4937186 L400.42396,92.4937186 L400.42396,22.3178392 L381.673982,22.3178392 L381.673982,2.50628141 L442,2.50628141 L442,22.3178392 L423.250021,22.3178392 Z" id="path-1"></path>
    </defs>
    <g id="Sponsors" stroke="none" stroke-width="1" fill="none" fill-rule="evenodd">
        <g id="gradient-about" transform="translate(-55.000000, -42.000000)">
            <g id="about" transform="translate(55.000000, 42.000000)">
                <mask id="mask-2" fill="white">
                    <use xlink:href="#path-1"></use>
                </mask>
                <g id="Mask"></g>
                <g id="Group-2" mask="url(#mask-2)" stroke-linecap="square">
                    <g transform="translate(-473.000000, 0.000000)" id="Group">
                        <g>
                            <path d="M3.95824178,96.0428364 C53.747368,96.0428364 69.5101526,88.6959708 130.52924,88.6959708 C194.719283,88.6959708 208.945226,96.0428364 287.715513,96.0428364 C340.963672,96.0428364 379.898282,88.6959708 430.20898,88.6959708 C484.353427,88.6959708 519.423018,96.0428364 568.525136,96.0428364 C621.837012,96.0428364 648.460828,88.6959708 705.903184,88.6959708 C765.998601,88.6959708 783.468242,96.0428364 839.754517,96.0428364 C896.040792,96.0428364 919.675195,88.6959708 975.200217,88.6959708 C1033.05496,88.6959708 1064.88663,96.0428364 1114.84791,96.0428364 C1173.60947,96.0428364 1191.31516,89.3417686 1241.73148,89.3417686" id="Line-2" stroke="#E81515" stroke-width="3.31114534"></path>
                            <path d="M3.95824178,90.1653439 C53.747368,90.1653439 69.5101526,82.0837918 130.52924,82.0837918 C194.719283,82.0837918 208.945226,90.1653439 287.715513,90.1653439 C340.963672,90.1653439 379.898282,82.0837918 430.20898,82.0837918 C484.353427,82.0837918 519.423018,90.1653439 568.525136,90.1653439 C621.837012,90.1653439 648.460828,82.0837918 705.903184,82.0837918 C765.998601,82.0837918 783.468242,90.1653439 839.754517,90.1653439 C896.040792,90.1653439 919.675195,82.0837918 975.200217,82.0837918 C1033.05496,82.0837918 1064.88663,90.1653439 1114.84791,90.1653439 C1173.60947,90.1653439 1191.31516,82.7317214 1241.73148,82.7317214" id="Line-2" stroke="#E81515" stroke-width="3.31114534"></path>
                            <path d="M3.95824178,84.2878514 C53.747368,84.2878514 69.5101526,75.4716127 130.52924,75.4716127 C194.719283,75.4716127 208.945226,84.2878514 287.715513,84.2878514 C340.963672,84.2878514 379.898282,75.4716127 430.20898,75.4716127 C484.353427,75.4716127 519.423018,84.2878514 568.525136,84.2878514 C621.837012,84.2878514 648.460828,75.4716127 705.903184,75.4716127 C765.998601,75.4716127 783.468242,84.2878514 839.754517,84.2878514 C896.040792,84.2878514 919.675195,75.4716127 975.200217,75.4716127 C1033.05496,75.4716127 1064.88663,84.2878514 1114.84791,84.2878514 C1173.60947,84.2878514 1191.31516,76.1213298 1241.73148,76.1213298" id="Line-2" stroke="#E81515" stroke-width="3.31114534"></path>
                            <path d="M3.95824178,78.410359 C53.747368,78.410359 69.5101526,68.8594337 130.52924,68.8594337 C194.719283,68.8594337 208.945226,78.410359 287.715513,78.410359 C340.963672,78.410359 379.898282,68.8594337 430.20898,68.8594337 C484.353427,68.8594337 519.423018,78.410359 568.525136,78.410359 C621.837012,78.410359 648.460828,68.8594337 705.903184,68.8594337 C765.998601,68.8594337 783.468242,78.410359 839.754517,78.410359 C896.040792,78.410359 919.675195,68.8594337 975.200217,68.8594337 C1033.05496,68.8594337 1064.88663,78.410359 1114.84791,78.410359 C1173.60947,78.410359 1191.31516,69.5106708 1241.73148,69.5106708" id="Line-2" stroke="#E81515" stroke-width="3.31114534"></path>
                            <path d="M3.95824178,72.4261794 C53.747368,72.4261794 69.5101526,62.1405675 130.52924,62.1405675 C194.719283,62.1405675 208.945226,72.4261794 287.715513,72.4261794 C340.963672,72.4261794 379.898282,62.1405675 430.20898,62.1405675 C484.353427,62.1405675 519.423018,72.4261794 568.525136,72.4261794 C621.837012,72.4261794 648.460828,62.1405675 705.903184,62.1405675 C765.998601,62.1405675 783.468242,72.4261794 839.754517,72.4261794 C896.040792,72.4261794 919.675195,62.1405675 975.200217,62.1405675 C1033.05496,62.1405675 1064.88663,72.4261794 1114.84791,72.4261794 C1173.60947,72.4261794 1191.31516,62.7931133 1241.73148,62.7931133" id="Line-2" stroke="#E81515" stroke-width="3.31114534"></path>
                            <path d="M3.95824178,66.1201308 C53.747368,66.1201308 69.5101526,55.0998324 130.52924,55.0998324 C194.719283,55.0998324 208.945226,66.1201308 287.715513,66.1201308 C340.963672,66.1201308 379.898282,55.0998324 430.20898,55.0998324 C484.353427,55.0998324 519.423018,66.1201308 568.525136,66.1201308 C621.837012,66.1201308 648.460828,55.0998324 705.903184,55.0998324 C765.998601,55.0998324 783.468242,66.1201308 839.754517,66.1201308 C896.040792,66.1201308 919.675195,55.0998324 975.200217,55.0998324 C1033.05496,55.0998324 1064.88663,66.1201308 1114.84791,66.1201308 C1173.60947,66.1201308 1191.31516,55.7535165 1241.73148,55.7535165" id="Line-2" stroke="#E81515" stroke-width="3.31114534"></path>
                            <path d="M3.95824178,60.0489124 C53.747368,60.0489124 69.5101526,48.2939275 130.52924,48.2939275 C194.719283,48.2939275 208.945226,60.0489124 287.715513,60.0489124 C340.963672,60.0489124 379.898282,48.2939275 430.20898,48.2939275 C484.353427,48.2939275 519.423018,60.0489124 568.525136,60.0489124 C621.837012,60.0489124 648.460828,48.2939275 705.903184,48.2939275 C765.998601,48.2939275 783.468242,60.0489124 839.754517,60.0489124 C896.040792,60.0489124 919.675195,48.2939275 975.200217,48.2939275 C1033.05496,48.2939275 1064.88663,60.0489124 1114.84791,60.0489124 C1173.60947,60.0489124 1191.31516,48.948611 1241.73148,48.948611" id="Line-2" stroke="#E81515" stroke-width="3.31114534"></path>
                            <path d="M7.63115941,53.8811019 C57.4202857,53.8811019 73.1830702,41.3914304 134.202158,41.3914304 C198.392201,41.3914304 212.618144,53.8811019 291.38843,53.8811019 C344.63659,53.8811019 383.571199,41.3914304 433.881898,41.3914304 C488.026344,41.3914304 523.095935,53.8811019 572.198053,53.8811019 C625.50993,53.8811019 652.133746,41.3914304 709.576102,41.3914304 C769.671519,41.3914304 787.14116,53.8811019 843.427435,53.8811019 C899.71371,53.8811019 923.348113,41.3914304 978.873135,41.3914304 C1036.72788,41.3914304 1068.55955,53.8811019 1118.52083,53.8811019 C1177.28238,53.8811019 1194.98808,42.053668 1245.4044,42.053668" id="Line-2" stroke="#E81515" stroke-width="3.31114534"></path>
                            <path d="M7.63115941,47.5650473 C57.4202857,47.5650473 73.1830702,34.3406893 134.202158,34.3406893 C198.392201,34.3406893 212.618144,47.5650473 291.38843,47.5650473 C344.63659,47.5650473 383.571199,34.3406893 433.881898,34.3406893 C488.026344,34.3406893 523.095935,47.5650473 572.198053,47.5650473 C625.50993,47.5650473 652.133746,34.3406893 709.576102,34.3406893 C769.671519,34.3406893 787.14116,47.5650473 843.427435,47.5650473 C899.71371,47.5650473 923.348113,34.3406893 978.873135,34.3406893 C1036.72788,34.3406893 1068.55955,47.5650473 1118.52083,47.5650473 C1177.28238,47.5650473 1194.98808,35.0097896 1245.4044,35.0097896" id="Line-2" stroke="#E81515" stroke-width="3.31114534"></path>
                            <path d="M7.63115941,41.1919871 C57.4202857,41.1919871 73.1830702,27.2329425 134.202158,27.2329425 C198.392201,27.2329425 212.618144,41.1919871 291.38843,41.1919871 C344.63659,41.1919871 383.571199,27.2329425 433.881898,27.2329425 C488.026344,27.2329425 523.095935,41.1919871 572.198053,41.1919871 C625.50993,41.1919871 652.133746,27.2329425 709.576102,27.2329425 C769.671519,27.2329425 787.14116,41.1919871 843.427435,41.1919871 C899.71371,41.1919871 920.545977,27.2329425 976.071,27.2329425 C1033.92574,27.2329425 1065.75741,41.1919871 1115.71869,41.1919871 C1174.48025,41.1919871 1192.18594,27.9083048 1242.60227,27.9083048" id="Line-2" stroke="#E81515" stroke-width="3.31114534"></path>
                            <path d="M7.63115941,34.5354055 C57.4202857,34.5354055 73.1830702,20.5763609 134.202158,20.5763609 C198.392201,20.5763609 212.618144,34.5354055 291.38843,34.5354055 C344.63659,34.5354055 383.571199,20.5763609 433.881898,20.5763609 C488.026344,20.5763609 523.095935,34.5354055 572.198053,34.5354055 C625.50993,34.5354055 652.133746,20.5763609 709.576102,20.5763609 C769.671519,20.5763609 787.14116,34.5354055 843.427435,34.5354055 C899.71371,34.5354055 920.545977,20.5763609 976.071,20.5763609 C1033.92574,20.5763609 1065.75741,34.5354055 1115.71869,34.5354055 C1174.48025,34.5354055 1192.18594,21.2517231 1242.60227,21.2517231" id="Line-2" stroke="#E81515" stroke-width="3.31114534"></path>
                            <path d="M7.63115941,28.2397157 C57.4202857,28.2397157 73.1830702,13.5459845 134.202158,13.5459845 C198.392201,13.5459845 212.618144,28.2397157 291.38843,28.2397157 C344.63659,28.2397157 383.571199,13.5459845 433.881898,13.5459845 C488.026344,13.5459845 523.095935,28.2397157 572.198053,28.2397157 C625.50993,28.2397157 652.133746,13.5459845 709.576102,13.5459845 C769.671519,13.5459845 787.14116,28.2397157 843.427435,28.2397157 C899.71371,28.2397157 920.545977,13.5459845 976.071,13.5459845 C1033.92574,13.5459845 1065.75741,28.2397157 1115.71869,28.2397157 C1174.48025,28.2397157 1192.18594,14.2270836 1242.60227,14.2270836" id="Line-2" stroke="#E81515" stroke-width="3.31114534"></path>
                            <path d="M7.63115941,21.226732 C57.4202857,21.226732 73.1830702,7.12431886 134.202158,7.12431886 C198.392201,7.12431886 212.618144,21.81805 291.38843,21.81805 C344.63659,21.81805 383.571199,7.12431886 433.881898,7.12431886 C488.026344,7.12431886 523.095935,21.81805 572.198053,21.81805 C625.50993,21.81805 652.133746,7.12431886 709.576102,7.12431886 C769.671519,7.12431886 787.14116,21.81805 843.427435,21.81805 C899.71371,21.81805 920.545977,7.12431886 976.071,7.12431886 C1033.92574,7.12431886 1065.75741,21.81805 1115.71869,21.81805 C1174.48025,21.81805 1192.18594,7.77800855 1242.60227,7.77800855" id="Line-2" stroke="#E81515" stroke-width="3.31114534"></path>
                            <path d="M7.63115941,14.8539318 C57.4202857,14.8539318 73.1830702,0.0223784628 134.202158,0.0223784628 C198.392201,0.0223784628 212.618144,15.4507962 291.38843,15.4507962 C344.63659,15.4507962 383.571199,0.0223784628 433.881898,0.0223784628 C488.026344,0.0223784628 523.095935,15.4507962 572.198053,15.4507962 C625.50993,15.4507962 652.133746,0.0223784628 709.576102,0.0223784628 C769.671519,0.0223784628 787.14116,15.4507962 843.427435,15.4507962 C899.71371,15.4507962 920.545977,0.0223784628 976.071,0.0223784628 C1033.92574,0.0223784628 1065.75741,15.4507962 1115.71869,15.4507962 C1174.48025,15.4507962 1192.18594,0.682199539 1242.60227,0.682199539" id="Line-2" stroke="#E81515" stroke-width="3.31114534"></path>
                        </g>
                    </g>
                </g>
            </g>
        </g>
    </g>
</svg>