<?xml version="1.0" encoding="UTF-8"?>
<svg width="716px" height="92px" viewBox="0 0 716 92" version="1.1" xmlns="http://www.w3.org/2000/svg" xmlns:xlink="http://www.w3.org/1999/xlink">
    <!-- Generator: Sketch 51.1 (57501) - http://www.bohemiancoding.com/sketch -->
    <title>Group 2</title>
    <desc>Created with Sketch.</desc>
    <defs>
        <path d="M0.14,44.53 C0.14,38.3699692 1.2766553,32.6316932 3.55,27.315 C5.8233447,21.9983068 8.9766465,17.3600198 13.01,13.4 C17.0433535,9.4399802 21.8649719,6.34167785 27.475,4.105 C33.085028,1.86832215 39.2632996,0.75 46.01,0.75 C52.6833667,0.75 58.8433051,1.86832215 64.49,4.105 C70.1366949,6.34167785 74.9949796,9.4399802 79.065,13.4 C83.1350203,17.3600198 86.3066553,21.9983068 88.58,27.315 C90.8533447,32.6316932 91.99,38.3699692 91.99,44.53 C91.99,50.2500286 91.0550093,55.5666421 89.185,60.48 C87.3149906,65.3933579 84.6200176,69.7566476 81.1,73.57 L95.18,88.31 L75.38,91.39 L67.79,83.58 C64.5633172,85.046674 61.1350181,86.2016625 57.505,87.045 C53.8749818,87.8883376 50.0433535,88.31 46.01,88.31 C39.2632996,88.31 33.085028,87.1916778 27.475,84.955 C21.8649719,82.7183222 17.0433535,79.6200198 13.01,75.66 C8.9766465,71.6999802 5.8233447,67.0616933 3.55,61.745 C1.2766553,56.4283068 0.14,50.6900308 0.14,44.53 Z M22.69,44.53 C22.69,47.8300165 23.3133271,50.8733194 24.56,53.66 C25.8066729,56.4466806 27.4933227,58.8666564 29.62,60.92 C31.7466773,62.9733436 34.2216525,64.5683277 37.045,65.705 C39.8683474,66.8416723 42.8566509,67.41 46.01,67.41 C47.9166762,67.41 49.8233238,67.1900022 51.73,66.75 L39.41,53.77 L59.76,51.24 L65.48,57.29 C68.1200132,53.623315 69.44,49.3700242 69.44,44.53 C69.44,41.2299835 68.8166729,38.1866806 67.57,35.4 C66.3233271,32.6133194 64.6183441,30.1933436 62.455,28.14 C60.2916558,26.0866564 57.7983474,24.4916724 54.975,23.355 C52.1516525,22.2183276 49.1633491,21.65 46.01,21.65 C42.8566509,21.65 39.8683474,22.2183276 37.045,23.355 C34.2216525,24.4916724 31.7466773,26.0866564 29.62,28.14 C27.4933227,30.1933436 25.8066729,32.6133194 24.56,35.4 C23.3133271,38.1866806 22.69,41.2299835 22.69,44.53 Z M130.79,3.06 L130.79,48.16 C130.79,50.5800121 130.881666,53.0549874 131.065,55.585 C131.248334,58.1150126 131.798329,60.4066564 132.715,62.46 C133.631671,64.5133436 135.07999,66.1816602 137.06,67.465 C139.04001,68.7483397 141.826649,69.39 145.42,69.39 C149.013351,69.39 151.781657,68.7483397 153.725,67.465 C155.668343,66.1816602 157.116662,64.5133436 158.07,62.46 C159.023338,60.4066564 159.591666,58.1150126 159.775,55.585 C159.958334,53.0549874 160.05,50.5800121 160.05,48.16 L160.05,3.06 L181.5,3.06 L181.5,51.13 C181.5,64.0367312 178.548363,73.4599703 172.645,79.4 C166.741637,85.3400297 157.666728,88.31 145.42,88.31 C133.173272,88.31 124.08003,85.3400297 118.14,79.4 C112.19997,73.4599703 109.23,64.0367312 109.23,51.13 L109.23,3.06 L130.79,3.06 Z M249.67,21.32 L224.04,21.32 L224.04,35.18 L248.24,35.18 L248.24,53.44 L224.04,53.44 L224.04,67.74 L249.67,67.74 L249.67,86 L202.48,86 L202.48,3.06 L249.67,3.06 L249.67,21.32 Z M314.32,24.29 C311.973322,22.3833238 309.626678,20.9716712 307.28,20.055 C304.933322,19.1383287 302.660011,18.68 300.46,18.68 C297.673319,18.68 295.400009,19.3399934 293.64,20.66 C291.879991,21.9800066 291,23.7033227 291,25.83 C291,27.296674 291.439996,28.5066619 292.32,29.46 C293.200004,30.4133381 294.354993,31.2383298 295.785,31.935 C297.215007,32.6316701 298.828324,33.2366641 300.625,33.75 C302.421676,34.2633359 304.199991,34.8133304 305.96,35.4 C313.000035,37.7466784 318.15165,40.881647 321.415,44.805 C324.67835,48.728353 326.31,53.8433018 326.31,60.15 C326.31,64.4033546 325.595007,68.2533161 324.165,71.7 C322.734993,75.1466839 320.645014,78.098321 317.895,80.555 C315.144986,83.011679 311.771687,84.9183265 307.775,86.275 C303.778313,87.6316734 299.250025,88.31 294.19,88.31 C283.703281,88.31 273.986711,85.1933645 265.04,78.96 L274.28,61.58 C277.506683,64.4400143 280.696651,66.5666597 283.85,67.96 C287.003349,69.3533403 290.119985,70.05 293.2,70.05 C296.720018,70.05 299.341658,69.2433414 301.065,67.63 C302.788342,66.0166586 303.65,64.1833436 303.65,62.13 C303.65,60.8833271 303.430002,59.8016712 302.99,58.885 C302.549998,57.9683287 301.816672,57.1250038 300.79,56.355 C299.763328,55.5849962 298.425008,54.8700033 296.775,54.21 C295.124992,53.5499967 293.126678,52.8166707 290.78,52.01 C287.993319,51.1299956 285.26168,50.1583386 282.585,49.095 C279.90832,48.0316613 277.52501,46.6200088 275.435,44.86 C273.34499,43.0999912 271.65834,40.88168 270.375,38.205 C269.09166,35.5283199 268.45,32.1366872 268.45,28.03 C268.45,23.9233128 269.128327,20.2016833 270.485,16.865 C271.841673,13.5283166 273.748321,10.6683452 276.205,8.285 C278.661679,5.90165475 281.668316,4.0500066 285.225,2.73 C288.781684,1.4099934 292.759978,0.75 297.16,0.75 C301.266687,0.75 305.556644,1.31832765 310.03,2.455 C314.503356,3.59167235 318.793313,5.259989 322.9,7.46 L314.32,24.29 Z M375.45,21.32 L375.45,86 L353.89,86 L353.89,21.32 L336.18,21.32 L336.18,3.06 L393.16,3.06 L393.16,21.32 L375.45,21.32 Z M427.89,3.06 L427.89,86 L406.33,86 L406.33,3.06 L427.89,3.06 Z M467.68,44.53 C467.68,47.8300165 468.303327,50.8733194 469.55,53.66 C470.796673,56.4466806 472.483323,58.8666564 474.61,60.92 C476.736677,62.9733436 479.211653,64.5683277 482.035,65.705 C484.858347,66.8416723 487.846651,67.41 491,67.41 C494.153349,67.41 497.141653,66.8416723 499.965,65.705 C502.788347,64.5683277 505.281656,62.9733436 507.445,60.92 C509.608344,58.8666564 511.313327,56.4466806 512.56,53.66 C513.806673,50.8733194 514.43,47.8300165 514.43,44.53 C514.43,41.2299835 513.806673,38.1866806 512.56,35.4 C511.313327,32.6133194 509.608344,30.1933436 507.445,28.14 C505.281656,26.0866564 502.788347,24.4916724 499.965,23.355 C497.141653,22.2183276 494.153349,21.65 491,21.65 C487.846651,21.65 484.858347,22.2183276 482.035,23.355 C479.211653,24.4916724 476.736677,26.0866564 474.61,28.14 C472.483323,30.1933436 470.796673,32.6133194 469.55,35.4 C468.303327,38.1866806 467.68,41.2299835 467.68,44.53 Z M445.13,44.53 C445.13,38.3699692 446.266655,32.6316932 448.54,27.315 C450.813345,21.9983068 453.966646,17.3600198 458,13.4 C462.033353,9.4399802 466.854972,6.34167785 472.465,4.105 C478.075028,1.86832215 484.2533,0.75 491,0.75 C497.673367,0.75 503.833305,1.86832215 509.48,4.105 C515.126695,6.34167785 519.98498,9.4399802 524.055,13.4 C528.12502,17.3600198 531.296655,21.9983068 533.57,27.315 C535.843345,32.6316932 536.98,38.3699692 536.98,44.53 C536.98,50.6900308 535.843345,56.4283068 533.57,61.745 C531.296655,67.0616933 528.12502,71.6999802 524.055,75.66 C519.98498,79.6200198 515.126695,82.7183222 509.48,84.955 C503.833305,87.1916778 497.673367,88.31 491,88.31 C484.2533,88.31 478.075028,87.1916778 472.465,84.955 C466.854972,82.7183222 462.033353,79.6200198 458,75.66 C453.966646,71.6999802 450.813345,67.0616933 448.54,61.745 C446.266655,56.4283068 445.13,50.6900308 445.13,44.53 Z M554.22,86 L554.22,3.06 L575.78,3.06 L615.6,53.77 L615.6,3.06 L637.05,3.06 L637.05,86 L615.6,86 L575.78,35.29 L575.78,86 L554.22,86 Z M703.57,24.29 C701.223322,22.3833238 698.876678,20.9716712 696.53,20.055 C694.183322,19.1383287 691.910011,18.68 689.71,18.68 C686.923319,18.68 684.650009,19.3399934 682.89,20.66 C681.129991,21.9800066 680.25,23.7033227 680.25,25.83 C680.25,27.296674 680.689996,28.5066619 681.57,29.46 C682.450004,30.4133381 683.604993,31.2383298 685.035,31.935 C686.465007,32.6316701 688.078324,33.2366641 689.875,33.75 C691.671676,34.2633359 693.449991,34.8133304 695.21,35.4 C702.250035,37.7466784 707.40165,40.881647 710.665,44.805 C713.92835,48.728353 715.56,53.8433018 715.56,60.15 C715.56,64.4033546 714.845007,68.2533161 713.415,71.7 C711.984993,75.1466839 709.895014,78.098321 707.145,80.555 C704.394986,83.011679 701.021687,84.9183265 697.025,86.275 C693.028313,87.6316734 688.500025,88.31 683.44,88.31 C672.953281,88.31 663.236711,85.1933645 654.29,78.96 L663.53,61.58 C666.756683,64.4400143 669.946651,66.5666597 673.1,67.96 C676.253349,69.3533403 679.369985,70.05 682.45,70.05 C685.970018,70.05 688.591658,69.2433414 690.315,67.63 C692.038342,66.0166586 692.9,64.1833436 692.9,62.13 C692.9,60.8833271 692.680002,59.8016712 692.24,58.885 C691.799998,57.9683287 691.066672,57.1250038 690.04,56.355 C689.013328,55.5849962 687.675008,54.8700033 686.025,54.21 C684.374992,53.5499967 682.376678,52.8166707 680.03,52.01 C677.243319,51.1299956 674.51168,50.1583386 671.835,49.095 C669.15832,48.0316613 666.77501,46.6200088 664.685,44.86 C662.59499,43.0999912 660.90834,40.88168 659.625,38.205 C658.34166,35.5283199 657.7,32.1366872 657.7,28.03 C657.7,23.9233128 658.378327,20.2016833 659.735,16.865 C661.091673,13.5283166 662.998321,10.6683452 665.455,8.285 C667.911679,5.90165475 670.918316,4.0500066 674.475,2.73 C678.031684,1.4099934 682.009978,0.75 686.41,0.75 C690.516687,0.75 694.806644,1.31832765 699.28,2.455 C703.753356,3.59167235 708.043313,5.259989 712.15,7.46 L703.57,24.29 Z" id="path-1"></path>
    </defs>
    <g id="Sponsors" stroke="none" stroke-width="1" fill="none" fill-rule="evenodd">
        <g id="gradient-about" transform="translate(-101.000000, -34.000000)">
            <g id="Group-2" transform="translate(101.000000, 34.000000)">
                <mask id="mask-2" fill="white">
                    <use xlink:href="#path-1"></use>
                </mask>
                <g id="Mask"></g>
                <g mask="url(#mask-2)" id="Group" stroke-linecap="square">
                    <g transform="translate(-22.000000, 1.000000)">
                        <g>
                            <path d="M3.95824178,96.0428364 C53.747368,96.0428364 69.5101526,88.6959708 130.52924,88.6959708 C194.719283,88.6959708 208.945226,96.0428364 287.715513,96.0428364 C340.963672,96.0428364 379.898282,88.6959708 430.20898,88.6959708 C484.353427,88.6959708 519.423018,96.0428364 568.525136,96.0428364 C621.837012,96.0428364 648.460828,88.6959708 705.903184,88.6959708 C765.998601,88.6959708 783.468242,96.0428364 839.754517,96.0428364 C896.040792,96.0428364 919.675195,88.6959708 975.200217,88.6959708 C1033.05496,88.6959708 1064.88663,96.0428364 1114.84791,96.0428364 C1173.60947,96.0428364 1191.31516,89.3417686 1241.73148,89.3417686" id="Line-2" stroke="#E81515" stroke-width="3.31114534"></path>
                            <path d="M3.95824178,90.1653439 C53.747368,90.1653439 69.5101526,82.0837918 130.52924,82.0837918 C194.719283,82.0837918 208.945226,90.1653439 287.715513,90.1653439 C340.963672,90.1653439 379.898282,82.0837918 430.20898,82.0837918 C484.353427,82.0837918 519.423018,90.1653439 568.525136,90.1653439 C621.837012,90.1653439 648.460828,82.0837918 705.903184,82.0837918 C765.998601,82.0837918 783.468242,90.1653439 839.754517,90.1653439 C896.040792,90.1653439 919.675195,82.0837918 975.200217,82.0837918 C1033.05496,82.0837918 1064.88663,90.1653439 1114.84791,90.1653439 C1173.60947,90.1653439 1191.31516,82.7317214 1241.73148,82.7317214" id="Line-2" stroke="#E81515" stroke-width="3.31114534"></path>
                            <path d="M3.95824178,84.2878514 C53.747368,84.2878514 69.5101526,75.4716127 130.52924,75.4716127 C194.719283,75.4716127 208.945226,84.2878514 287.715513,84.2878514 C340.963672,84.2878514 379.898282,75.4716127 430.20898,75.4716127 C484.353427,75.4716127 519.423018,84.2878514 568.525136,84.2878514 C621.837012,84.2878514 648.460828,75.4716127 705.903184,75.4716127 C765.998601,75.4716127 783.468242,84.2878514 839.754517,84.2878514 C896.040792,84.2878514 919.675195,75.4716127 975.200217,75.4716127 C1033.05496,75.4716127 1064.88663,84.2878514 1114.84791,84.2878514 C1173.60947,84.2878514 1191.31516,76.1213298 1241.73148,76.1213298" id="Line-2" stroke="#E81515" stroke-width="3.31114534"></path>
                            <path d="M3.95824178,78.410359 C53.747368,78.410359 69.5101526,68.8594337 130.52924,68.8594337 C194.719283,68.8594337 208.945226,78.410359 287.715513,78.410359 C340.963672,78.410359 379.898282,68.8594337 430.20898,68.8594337 C484.353427,68.8594337 519.423018,78.410359 568.525136,78.410359 C621.837012,78.410359 648.460828,68.8594337 705.903184,68.8594337 C765.998601,68.8594337 783.468242,78.410359 839.754517,78.410359 C896.040792,78.410359 919.675195,68.8594337 975.200217,68.8594337 C1033.05496,68.8594337 1064.88663,78.410359 1114.84791,78.410359 C1173.60947,78.410359 1191.31516,69.5106708 1241.73148,69.5106708" id="Line-2" stroke="#E81515" stroke-width="3.31114534"></path>
                            <path d="M3.95824178,72.4261794 C53.747368,72.4261794 69.5101526,62.1405675 130.52924,62.1405675 C194.719283,62.1405675 208.945226,72.4261794 287.715513,72.4261794 C340.963672,72.4261794 379.898282,62.1405675 430.20898,62.1405675 C484.353427,62.1405675 519.423018,72.4261794 568.525136,72.4261794 C621.837012,72.4261794 648.460828,62.1405675 705.903184,62.1405675 C765.998601,62.1405675 783.468242,72.4261794 839.754517,72.4261794 C896.040792,72.4261794 919.675195,62.1405675 975.200217,62.1405675 C1033.05496,62.1405675 1064.88663,72.4261794 1114.84791,72.4261794 C1173.60947,72.4261794 1191.31516,62.7931133 1241.73148,62.7931133" id="Line-2" stroke="#E81515" stroke-width="3.31114534"></path>
                            <path d="M3.95824178,66.1201308 C53.747368,66.1201308 69.5101526,55.0998324 130.52924,55.0998324 C194.719283,55.0998324 208.945226,66.1201308 287.715513,66.1201308 C340.963672,66.1201308 379.898282,55.0998324 430.20898,55.0998324 C484.353427,55.0998324 519.423018,66.1201308 568.525136,66.1201308 C621.837012,66.1201308 648.460828,55.0998324 705.903184,55.0998324 C765.998601,55.0998324 783.468242,66.1201308 839.754517,66.1201308 C896.040792,66.1201308 919.675195,55.0998324 975.200217,55.0998324 C1033.05496,55.0998324 1064.88663,66.1201308 1114.84791,66.1201308 C1173.60947,66.1201308 1191.31516,55.7535165 1241.73148,55.7535165" id="Line-2" stroke="#E81515" stroke-width="3.31114534"></path>
                            <path d="M3.95824178,60.0489124 C53.747368,60.0489124 69.5101526,48.2939275 130.52924,48.2939275 C194.719283,48.2939275 208.945226,60.0489124 287.715513,60.0489124 C340.963672,60.0489124 379.898282,48.2939275 430.20898,48.2939275 C484.353427,48.2939275 519.423018,60.0489124 568.525136,60.0489124 C621.837012,60.0489124 648.460828,48.2939275 705.903184,48.2939275 C765.998601,48.2939275 783.468242,60.0489124 839.754517,60.0489124 C896.040792,60.0489124 919.675195,48.2939275 975.200217,48.2939275 C1033.05496,48.2939275 1064.88663,60.0489124 1114.84791,60.0489124 C1173.60947,60.0489124 1191.31516,48.948611 1241.73148,48.948611" id="Line-2" stroke="#E81515" stroke-width="3.31114534"></path>
                            <path d="M7.63115941,53.8811019 C57.4202857,53.8811019 73.1830702,41.3914304 134.202158,41.3914304 C198.392201,41.3914304 212.618144,53.8811019 291.38843,53.8811019 C344.63659,53.8811019 383.571199,41.3914304 433.881898,41.3914304 C488.026344,41.3914304 523.095935,53.8811019 572.198053,53.8811019 C625.50993,53.8811019 652.133746,41.3914304 709.576102,41.3914304 C769.671519,41.3914304 787.14116,53.8811019 843.427435,53.8811019 C899.71371,53.8811019 923.348113,41.3914304 978.873135,41.3914304 C1036.72788,41.3914304 1068.55955,53.8811019 1118.52083,53.8811019 C1177.28238,53.8811019 1194.98808,42.053668 1245.4044,42.053668" id="Line-2" stroke="#E81515" stroke-width="3.31114534"></path>
                            <path d="M7.63115941,47.5650473 C57.4202857,47.5650473 73.1830702,34.3406893 134.202158,34.3406893 C198.392201,34.3406893 212.618144,47.5650473 291.38843,47.5650473 C344.63659,47.5650473 383.571199,34.3406893 433.881898,34.3406893 C488.026344,34.3406893 523.095935,47.5650473 572.198053,47.5650473 C625.50993,47.5650473 652.133746,34.3406893 709.576102,34.3406893 C769.671519,34.3406893 787.14116,47.5650473 843.427435,47.5650473 C899.71371,47.5650473 923.348113,34.3406893 978.873135,34.3406893 C1036.72788,34.3406893 1068.55955,47.5650473 1118.52083,47.5650473 C1177.28238,47.5650473 1194.98808,35.0097896 1245.4044,35.0097896" id="Line-2" stroke="#E81515" stroke-width="3.31114534"></path>
                            <path d="M7.63115941,41.1919871 C57.4202857,41.1919871 73.1830702,27.2329425 134.202158,27.2329425 C198.392201,27.2329425 212.618144,41.1919871 291.38843,41.1919871 C344.63659,41.1919871 383.571199,27.2329425 433.881898,27.2329425 C488.026344,27.2329425 523.095935,41.1919871 572.198053,41.1919871 C625.50993,41.1919871 652.133746,27.2329425 709.576102,27.2329425 C769.671519,27.2329425 787.14116,41.1919871 843.427435,41.1919871 C899.71371,41.1919871 920.545977,27.2329425 976.071,27.2329425 C1033.92574,27.2329425 1065.75741,41.1919871 1115.71869,41.1919871 C1174.48025,41.1919871 1192.18594,27.9083048 1242.60227,27.9083048" id="Line-2" stroke="#E81515" stroke-width="3.31114534"></path>
                            <path d="M7.63115941,34.5354055 C57.4202857,34.5354055 73.1830702,20.5763609 134.202158,20.5763609 C198.392201,20.5763609 212.618144,34.5354055 291.38843,34.5354055 C344.63659,34.5354055 383.571199,20.5763609 433.881898,20.5763609 C488.026344,20.5763609 523.095935,34.5354055 572.198053,34.5354055 C625.50993,34.5354055 652.133746,20.5763609 709.576102,20.5763609 C769.671519,20.5763609 787.14116,34.5354055 843.427435,34.5354055 C899.71371,34.5354055 920.545977,20.5763609 976.071,20.5763609 C1033.92574,20.5763609 1065.75741,34.5354055 1115.71869,34.5354055 C1174.48025,34.5354055 1192.18594,21.2517231 1242.60227,21.2517231" id="Line-2" stroke="#E81515" stroke-width="3.31114534"></path>
                            <path d="M7.63115941,28.2397157 C57.4202857,28.2397157 73.1830702,13.5459845 134.202158,13.5459845 C198.392201,13.5459845 212.618144,28.2397157 291.38843,28.2397157 C344.63659,28.2397157 383.571199,13.5459845 433.881898,13.5459845 C488.026344,13.5459845 523.095935,28.2397157 572.198053,28.2397157 C625.50993,28.2397157 652.133746,13.5459845 709.576102,13.5459845 C769.671519,13.5459845 787.14116,28.2397157 843.427435,28.2397157 C899.71371,28.2397157 920.545977,13.5459845 976.071,13.5459845 C1033.92574,13.5459845 1065.75741,28.2397157 1115.71869,28.2397157 C1174.48025,28.2397157 1192.18594,14.2270836 1242.60227,14.2270836" id="Line-2" stroke="#E81515" stroke-width="3.31114534"></path>
                            <path d="M7.63115941,21.226732 C57.4202857,21.226732 73.1830702,7.12431886 134.202158,7.12431886 C198.392201,7.12431886 212.618144,21.81805 291.38843,21.81805 C344.63659,21.81805 383.571199,7.12431886 433.881898,7.12431886 C488.026344,7.12431886 523.095935,21.81805 572.198053,21.81805 C625.50993,21.81805 652.133746,7.12431886 709.576102,7.12431886 C769.671519,7.12431886 787.14116,21.81805 843.427435,21.81805 C899.71371,21.81805 920.545977,7.12431886 976.071,7.12431886 C1033.92574,7.12431886 1065.75741,21.81805 1115.71869,21.81805 C1174.48025,21.81805 1192.18594,7.77800855 1242.60227,7.77800855" id="Line-2" stroke="#E81515" stroke-width="3.31114534"></path>
                            <path d="M7.63115941,14.8539318 C57.4202857,14.8539318 73.1830702,0.0223784628 134.202158,0.0223784628 C198.392201,0.0223784628 212.618144,15.4507962 291.38843,15.4507962 C344.63659,15.4507962 383.571199,0.0223784628 433.881898,0.0223784628 C488.026344,0.0223784628 523.095935,15.4507962 572.198053,15.4507962 C625.50993,15.4507962 652.133746,0.0223784628 709.576102,0.0223784628 C769.671519,0.0223784628 787.14116,15.4507962 843.427435,15.4507962 C899.71371,15.4507962 920.545977,0.0223784628 976.071,0.0223784628 C1033.92574,0.0223784628 1065.75741,15.4507962 1115.71869,15.4507962 C1174.48025,15.4507962 1192.18594,0.682199539 1242.60227,0.682199539" id="Line-2" stroke="#E81515" stroke-width="3.31114534"></path>
                        </g>
                    </g>
                </g>
            </g>
        </g>
    </g>
</svg>