<?xml version="1.0" encoding="UTF-8"?>
<svg width="716px" height="92px" viewBox="0 0 716 92" version="1.1" xmlns="http://www.w3.org/2000/svg" xmlns:xlink="http://www.w3.org/1999/xlink">
    <!-- Generator: Sketch 51.1 (57501) - http://www.bohemiancoding.com/sketch -->
    <title>Group 2</title>
    <desc>Created with Sketch.</desc>
    <defs>
        <path d="M0.14,44.53 C0.14,38.3699692 1.2766553,32.6316932 3.55,27.315 C5.8233447,21.9983068 8.9766465,17.3600198 13.01,13.4 C17.0433535,9.4399802 21.8649719,6.34167785 27.475,4.105 C33.085028,1.86832215 39.2632996,0.75 46.01,0.75 C52.6833667,0.75 58.8433051,1.86832215 64.49,4.105 C70.1366949,6.34167785 74.9949796,9.4399802 79.065,13.4 C83.1350203,17.3600198 86.3066553,21.9983068 88.58,27.315 C90.8533447,32.6316932 91.99,38.3699692 91.99,44.53 C91.99,50.2500286 91.0550093,55.5666421 89.185,60.48 C87.3149906,65.3933579 84.6200176,69.7566476 81.1,73.57 L95.18,88.31 L75.38,91.39 L67.79,83.58 C64.5633172,85.046674 61.1350181,86.2016625 57.505,87.045 C53.8749818,87.8883376 50.0433535,88.31 46.01,88.31 C39.2632996,88.31 33.085028,87.1916778 27.475,84.955 C21.8649719,82.7183222 17.0433535,79.6200198 13.01,75.66 C8.9766465,71.6999802 5.8233447,67.0616933 3.55,61.745 C1.2766553,56.4283068 0.14,50.6900308 0.14,44.53 Z M22.69,44.53 C22.69,47.8300165 23.3133271,50.8733194 24.56,53.66 C25.8066729,56.4466806 27.4933227,58.8666564 29.62,60.92 C31.7466773,62.9733436 34.2216525,64.5683277 37.045,65.705 C39.8683474,66.8416723 42.8566509,67.41 46.01,67.41 C47.9166762,67.41 49.8233238,67.1900022 51.73,66.75 L39.41,53.77 L59.76,51.24 L65.48,57.29 C68.1200132,53.623315 69.44,49.3700242 69.44,44.53 C69.44,41.2299835 68.8166729,38.1866806 67.57,35.4 C66.3233271,32.6133194 64.6183441,30.1933436 62.455,28.14 C60.2916558,26.0866564 57.7983474,24.4916724 54.975,23.355 C52.1516525,22.2183276 49.1633491,21.65 46.01,21.65 C42.8566509,21.65 39.8683474,22.2183276 37.045,23.355 C34.2216525,24.4916724 31.7466773,26.0866564 29.62,28.14 C27.4933227,30.1933436 25.8066729,32.6133194 24.56,35.4 C23.3133271,38.1866806 22.69,41.2299835 22.69,44.53 Z M130.79,3.06 L130.79,48.16 C130.79,50.5800121 130.881666,53.0549874 131.065,55.585 C131.248334,58.1150126 131.798329,60.4066564 132.715,62.46 C133.631671,64.5133436 135.07999,66.1816602 137.06,67.465 C139.04001,68.7483397 141.826649,69.39 145.42,69.39 C149.013351,69.39 151.781657,68.7483397 153.725,67.465 C155.668343,66.1816602 157.116662,64.5133436 158.07,62.46 C159.023338,60.4066564 159.591666,58.1150126 159.775,55.585 C159.958334,53.0549874 160.05,50.5800121 160.05,48.16 L160.05,3.06 L181.5,3.06 L181.5,51.13 C181.5,64.0367312 178.548363,73.4599703 172.645,79.4 C166.741637,85.3400297 157.666728,88.31 145.42,88.31 C133.173272,88.31 124.08003,85.3400297 118.14,79.4 C112.19997,73.4599703 109.23,64.0367312 109.23,51.13 L109.23,3.06 L130.79,3.06 Z M249.67,21.32 L224.04,21.32 L224.04,35.18 L248.24,35.18 L248.24,53.44 L224.04,53.44 L224.04,67.74 L249.67,67.74 L249.67,86 L202.48,86 L202.48,3.06 L249.67,3.06 L249.67,21.32 Z M314.32,24.29 C311.973322,22.3833238 309.626678,20.9716712 307.28,20.055 C304.933322,19.1383287 302.660011,18.68 300.46,18.68 C297.673319,18.68 295.400009,19.3399934 293.64,20.66 C291.879991,21.9800066 291,23.7033227 291,25.83 C291,27.296674 291.439996,28.5066619 292.32,29.46 C293.200004,30.4133381 294.354993,31.2383298 295.785,31.935 C297.215007,32.6316701 298.828324,33.2366641 300.625,33.75 C302.421676,34.2633359 304.199991,34.8133304 305.96,35.4 C313.000035,37.7466784 318.15165,40.881647 321.415,44.805 C324.67835,48.728353 326.31,53.8433018 326.31,60.15 C326.31,64.4033546 325.595007,68.2533161 324.165,71.7 C322.734993,75.1466839 320.645014,78.098321 317.895,80.555 C315.144986,83.011679 311.771687,84.9183265 307.775,86.275 C303.778313,87.6316734 299.250025,88.31 294.19,88.31 C283.703281,88.31 273.986711,85.1933645 265.04,78.96 L274.28,61.58 C277.506683,64.4400143 280.696651,66.5666597 283.85,67.96 C287.003349,69.3533403 290.119985,70.05 293.2,70.05 C296.720018,70.05 299.341658,69.2433414 301.065,67.63 C302.788342,66.0166586 303.65,64.1833436 303.65,62.13 C303.65,60.8833271 303.430002,59.8016712 302.99,58.885 C302.549998,57.9683287 301.816672,57.1250038 300.79,56.355 C299.763328,55.5849962 298.425008,54.8700033 296.775,54.21 C295.124992,53.5499967 293.126678,52.8166707 290.78,52.01 C287.993319,51.1299956 285.26168,50.1583386 282.585,49.095 C279.90832,48.0316613 277.52501,46.6200088 275.435,44.86 C273.34499,43.0999912 271.65834,40.88168 270.375,38.205 C269.09166,35.5283199 268.45,32.1366872 268.45,28.03 C268.45,23.9233128 269.128327,20.2016833 270.485,16.865 C271.841673,13.5283166 273.748321,10.6683452 276.205,8.285 C278.661679,5.90165475 281.668316,4.0500066 285.225,2.73 C288.781684,1.4099934 292.759978,0.75 297.16,0.75 C301.266687,0.75 305.556644,1.31832765 310.03,2.455 C314.503356,3.59167235 318.793313,5.259989 322.9,7.46 L314.32,24.29 Z M375.45,21.32 L375.45,86 L353.89,86 L353.89,21.32 L336.18,21.32 L336.18,3.06 L393.16,3.06 L393.16,21.32 L375.45,21.32 Z M427.89,3.06 L427.89,86 L406.33,86 L406.33,3.06 L427.89,3.06 Z M467.68,44.53 C467.68,47.8300165 468.303327,50.8733194 469.55,53.66 C470.796673,56.4466806 472.483323,58.8666564 474.61,60.92 C476.736677,62.9733436 479.211653,64.5683277 482.035,65.705 C484.858347,66.8416723 487.846651,67.41 491,67.41 C494.153349,67.41 497.141653,66.8416723 499.965,65.705 C502.788347,64.5683277 505.281656,62.9733436 507.445,60.92 C509.608344,58.8666564 511.313327,56.4466806 512.56,53.66 C513.806673,50.8733194 514.43,47.8300165 514.43,44.53 C514.43,41.2299835 513.806673,38.1866806 512.56,35.4 C511.313327,32.6133194 509.608344,30.1933436 507.445,28.14 C505.281656,26.0866564 502.788347,24.4916724 499.965,23.355 C497.141653,22.2183276 494.153349,21.65 491,21.65 C487.846651,21.65 484.858347,22.2183276 482.035,23.355 C479.211653,24.4916724 476.736677,26.0866564 474.61,28.14 C472.483323,30.1933436 470.796673,32.6133194 469.55,35.4 C468.303327,38.1866806 467.68,41.2299835 467.68,44.53 Z M445.13,44.53 C445.13,38.3699692 446.266655,32.6316932 448.54,27.315 C450.813345,21.9983068 453.966646,17.3600198 458,13.4 C462.033353,9.4399802 466.854972,6.34167785 472.465,4.105 C478.075028,1.86832215 484.2533,0.75 491,0.75 C497.673367,0.75 503.833305,1.86832215 509.48,4.105 C515.126695,6.34167785 519.98498,9.4399802 524.055,13.4 C528.12502,17.3600198 531.296655,21.9983068 533.57,27.315 C535.843345,32.6316932 536.98,38.3699692 536.98,44.53 C536.98,50.6900308 535.843345,56.4283068 533.57,61.745 C531.296655,67.0616933 528.12502,71.6999802 524.055,75.66 C519.98498,79.6200198 515.126695,82.7183222 509.48,84.955 C503.833305,87.1916778 497.673367,88.31 491,88.31 C484.2533,88.31 478.075028,87.1916778 472.465,84.955 C466.854972,82.7183222 462.033353,79.6200198 458,75.66 C453.966646,71.6999802 450.813345,67.0616933 448.54,61.745 C446.266655,56.4283068 445.13,50.6900308 445.13,44.53 Z M554.22,86 L554.22,3.06 L575.78,3.06 L615.6,53.77 L615.6,3.06 L637.05,3.06 L637.05,86 L615.6,86 L575.78,35.29 L575.78,86 L554.22,86 Z M703.57,24.29 C701.223322,22.3833238 698.876678,20.9716712 696.53,20.055 C694.183322,19.1383287 691.910011,18.68 689.71,18.68 C686.923319,18.68 684.650009,19.3399934 682.89,20.66 C681.129991,21.9800066 680.25,23.7033227 680.25,25.83 C680.25,27.296674 680.689996,28.5066619 681.57,29.46 C682.450004,30.4133381 683.604993,31.2383298 685.035,31.935 C686.465007,32.6316701 688.078324,33.2366641 689.875,33.75 C691.671676,34.2633359 693.449991,34.8133304 695.21,35.4 C702.250035,37.7466784 707.40165,40.881647 710.665,44.805 C713.92835,48.728353 715.56,53.8433018 715.56,60.15 C715.56,64.4033546 714.845007,68.2533161 713.415,71.7 C711.984993,75.1466839 709.895014,78.098321 707.145,80.555 C704.394986,83.011679 701.021687,84.9183265 697.025,86.275 C693.028313,87.6316734 688.500025,88.31 683.44,88.31 C672.953281,88.31 663.236711,85.1933645 654.29,78.96 L663.53,61.58 C666.756683,64.4400143 669.946651,66.5666597 673.1,67.96 C676.253349,69.3533403 679.369985,70.05 682.45,70.05 C685.970018,70.05 688.591658,69.2433414 690.315,67.63 C692.038342,66.0166586 692.9,64.1833436 692.9,62.13 C692.9,60.8833271 692.680002,59.8016712 692.24,58.885 C691.799998,57.9683287 691.066672,57.1250038 690.04,56.355 C689.013328,55.5849962 687.675008,54.8700033 686.025,54.21 C684.374992,53.5499967 682.376678,52.8166707 680.03,52.01 C677.243319,51.1299956 674.51168,50.1583386 671.835,49.095 C669.15832,48.0316613 666.77501,46.6200088 664.685,44.86 C662.59499,43.0999912 660.90834,40.88168 659.625,38.205 C658.34166,35.5283199 657.7,32.1366872 657.7,28.03 C657.7,23.9233128 658.378327,20.2016833 659.735,16.865 C661.091673,13.5283166 662.998321,10.6683452 665.455,8.285 C667.911679,5.90165475 670.918316,4.0500066 674.475,2.73 C678.031684,1.4099934 682.009978,0.75 686.41,0.75 C690.516687,0.75 694.806644,1.31832765 699.28,2.455 C703.753356,3.59167235 708.043313,5.259989 712.15,7.46 L703.57,24.29 Z" id="path-1"></path>
    </defs>
    <g id="Sponsors" stroke="none" stroke-width="1" fill="none" fill-rule="evenodd">
        <g id="gradient-about" transform="translate(-101.000000, -34.000000)">
            <g id="Group-2" transform="translate(101.000000, 34.000000)">
                <mask id="mask-2" fill="white">
                    <use xlink:href="#path-1"></use>
                </mask>
                <g id="Mask"></g>
                <g mask="url(#mask-2)" id="Group" stroke-linecap="square">
                    <g transform="translate(-22.000000, -16.000000)">
                        <g>
                            <path d="M3.31335969,107.699007 C44.9907744,107.699007 58.1854648,101.821514 109.26324,101.821514 C162.995355,101.821514 174.903588,107.699007 240.840513,107.699007 C285.413411,107.699007 318.004741,101.821514 360.118753,101.821514 C405.441913,101.821514 434.797919,107.699007 475.900254,107.699007 C520.526487,107.699007 542.812716,101.821514 590.896485,101.821514 C641.201077,101.821514 655.82454,107.699007 702.940579,107.699007 C750.056618,107.699007 769.840472,101.821514 816.319283,101.821514 C864.748254,101.821514 891.393866,107.699007 933.215387,107.699007 C982.403429,107.699007 997.224486,102.461521 1039.42692,102.461521" id="Line-2" stroke="#E81515" stroke-width="3.31114534"></path>
                            <path d="M3.31335969,101.920329 C44.9907744,101.920329 58.1854648,95.3081498 109.26324,95.3081498 C162.995355,95.3081498 174.903588,101.920329 240.840513,101.920329 C285.413411,101.920329 318.004741,95.3081498 360.118753,95.3081498 C405.441913,95.3081498 434.797919,101.920329 475.900254,101.920329 C520.526487,101.920329 542.812716,95.3081498 590.896485,95.3081498 C641.201077,95.3081498 655.82454,101.920329 702.940579,101.920329 C750.056618,101.920329 769.840472,95.3081498 816.319283,95.3081498 C864.748254,95.3081498 891.393866,101.920329 933.215387,101.920329 C982.403429,101.920329 997.224486,95.9513609 1039.42692,95.9513609" id="Line-2" stroke="#E81515" stroke-width="3.31114534"></path>
                            <path d="M3.31335969,96.0428364 C44.9907744,96.0428364 58.1854648,88.6959708 109.26324,88.6959708 C162.995355,88.6959708 174.903588,96.0428364 240.840513,96.0428364 C285.413411,96.0428364 318.004741,88.6959708 360.118753,88.6959708 C405.441913,88.6959708 434.797919,96.0428364 475.900254,96.0428364 C520.526487,96.0428364 542.812716,88.6959708 590.896485,88.6959708 C641.201077,88.6959708 655.82454,96.0428364 702.940579,96.0428364 C750.056618,96.0428364 769.840472,88.6959708 816.319283,88.6959708 C864.748254,88.6959708 891.393866,96.0428364 933.215387,96.0428364 C982.403429,96.0428364 997.224486,89.3417686 1039.42692,89.3417686" id="Line-2" stroke="#E81515" stroke-width="3.31114534"></path>
                            <path d="M3.31335969,90.1653439 C44.9907744,90.1653439 58.1854648,82.0837918 109.26324,82.0837918 C162.995355,82.0837918 174.903588,90.1653439 240.840513,90.1653439 C285.413411,90.1653439 318.004741,82.0837918 360.118753,82.0837918 C405.441913,82.0837918 434.797919,90.1653439 475.900254,90.1653439 C520.526487,90.1653439 542.812716,82.0837918 590.896485,82.0837918 C641.201077,82.0837918 655.82454,90.1653439 702.940579,90.1653439 C750.056618,90.1653439 769.840472,82.0837918 816.319283,82.0837918 C864.748254,82.0837918 891.393866,90.1653439 933.215387,90.1653439 C982.403429,90.1653439 997.224486,82.7317214 1039.42692,82.7317214" id="Line-2" stroke="#E81515" stroke-width="3.31114534"></path>
                            <path d="M3.31335969,84.2878514 C44.9907744,84.2878514 58.1854648,75.4716127 109.26324,75.4716127 C162.995355,75.4716127 174.903588,84.2878514 240.840513,84.2878514 C285.413411,84.2878514 318.004741,75.4716127 360.118753,75.4716127 C405.441913,75.4716127 434.797919,84.2878514 475.900254,84.2878514 C520.526487,84.2878514 542.812716,75.4716127 590.896485,75.4716127 C641.201077,75.4716127 655.82454,84.2878514 702.940579,84.2878514 C750.056618,84.2878514 769.840472,75.4716127 816.319283,75.4716127 C864.748254,75.4716127 891.393866,84.2878514 933.215387,84.2878514 C982.403429,84.2878514 997.224486,76.1213298 1039.42692,76.1213298" id="Line-2" stroke="#E81515" stroke-width="3.31114534"></path>
                            <path d="M3.31335969,78.410359 C44.9907744,78.410359 58.1854648,68.8594337 109.26324,68.8594337 C162.995355,68.8594337 174.903588,78.410359 240.840513,78.410359 C285.413411,78.410359 318.004741,68.8594337 360.118753,68.8594337 C405.441913,68.8594337 434.797919,78.410359 475.900254,78.410359 C520.526487,78.410359 542.812716,68.8594337 590.896485,68.8594337 C641.201077,68.8594337 655.82454,78.410359 702.940579,78.410359 C750.056618,78.410359 769.840472,68.8594337 816.319283,68.8594337 C864.748254,68.8594337 891.393866,78.410359 933.215387,78.410359 C982.403429,78.410359 997.224486,69.5106708 1039.42692,69.5106708" id="Line-2" stroke="#E81515" stroke-width="3.31114534"></path>
                            <path d="M3.31335969,72.4261794 C44.9907744,72.4261794 58.1854648,62.1405675 109.26324,62.1405675 C162.995355,62.1405675 174.903588,72.4261794 240.840513,72.4261794 C285.413411,72.4261794 318.004741,62.1405675 360.118753,62.1405675 C405.441913,62.1405675 434.797919,72.4261794 475.900254,72.4261794 C520.526487,72.4261794 542.812716,62.1405675 590.896485,62.1405675 C641.201077,62.1405675 655.82454,72.4261794 702.940579,72.4261794 C750.056618,72.4261794 769.840472,62.1405675 816.319283,62.1405675 C864.748254,62.1405675 891.393866,72.4261794 933.215387,72.4261794 C982.403429,72.4261794 997.224486,62.7931133 1039.42692,62.7931133" id="Line-2" stroke="#E81515" stroke-width="3.31114534"></path>
                            <path d="M3.31335969,66.1201308 C44.9907744,66.1201308 58.1854648,55.0998324 109.26324,55.0998324 C162.995355,55.0998324 174.903588,66.1201308 240.840513,66.1201308 C285.413411,66.1201308 318.004741,55.0998324 360.118753,55.0998324 C405.441913,55.0998324 434.797919,66.1201308 475.900254,66.1201308 C520.526487,66.1201308 542.812716,55.0998324 590.896485,55.0998324 C641.201077,55.0998324 655.82454,66.1201308 702.940579,66.1201308 C750.056618,66.1201308 769.840472,55.0998324 816.319283,55.0998324 C864.748254,55.0998324 891.393866,66.1201308 933.215387,66.1201308 C982.403429,66.1201308 997.224486,55.7535165 1039.42692,55.7535165" id="Line-2" stroke="#E81515" stroke-width="3.31114534"></path>
                            <path d="M3.31335969,60.0489124 C44.9907744,60.0489124 58.1854648,48.2939275 109.26324,48.2939275 C162.995355,48.2939275 174.903588,60.0489124 240.840513,60.0489124 C285.413411,60.0489124 318.004741,48.2939275 360.118753,48.2939275 C405.441913,48.2939275 434.797919,60.0489124 475.900254,60.0489124 C520.526487,60.0489124 542.812716,48.2939275 590.896485,48.2939275 C641.201077,48.2939275 655.82454,60.0489124 702.940579,60.0489124 C750.056618,60.0489124 769.840472,48.2939275 816.319283,48.2939275 C864.748254,48.2939275 891.393866,60.0489124 933.215387,60.0489124 C982.403429,60.0489124 997.224486,48.948611 1039.42692,48.948611" id="Line-2" stroke="#E81515" stroke-width="3.31114534"></path>
                            <path d="M6.38788063,53.8811019 C48.0652953,53.8811019 61.2599857,41.3914304 112.337761,41.3914304 C166.069876,41.3914304 177.978109,53.8811019 243.915034,53.8811019 C288.487932,53.8811019 321.079262,41.3914304 363.193274,41.3914304 C408.516434,41.3914304 437.87244,53.8811019 478.974775,53.8811019 C523.601008,53.8811019 545.887237,41.3914304 593.971006,41.3914304 C644.275597,41.3914304 658.899061,53.8811019 706.0151,53.8811019 C753.131139,53.8811019 772.914993,41.3914304 819.393804,41.3914304 C867.822775,41.3914304 894.468387,53.8811019 936.289908,53.8811019 C985.47795,53.8811019 1000.29901,42.053668 1042.50144,42.053668" id="Line-2" stroke="#E81515" stroke-width="3.31114534"></path>
                            <path d="M6.38788063,47.5650473 C48.0652953,47.5650473 61.2599857,34.3406893 112.337761,34.3406893 C166.069876,34.3406893 177.978109,47.5650473 243.915034,47.5650473 C288.487932,47.5650473 321.079262,34.3406893 363.193274,34.3406893 C408.516434,34.3406893 437.87244,47.5650473 478.974775,47.5650473 C523.601008,47.5650473 545.887237,34.3406893 593.971006,34.3406893 C644.275597,34.3406893 658.899061,47.5650473 706.0151,47.5650473 C753.131139,47.5650473 772.914993,34.3406893 819.393804,34.3406893 C867.822775,34.3406893 894.468387,47.5650473 936.289908,47.5650473 C985.47795,47.5650473 1000.29901,35.0097896 1042.50144,35.0097896" id="Line-2" stroke="#E81515" stroke-width="3.31114534"></path>
                            <path d="M6.38788063,41.1919871 C48.0652953,41.1919871 61.2599857,27.2329425 112.337761,27.2329425 C166.069876,27.2329425 177.978109,41.1919871 243.915034,41.1919871 C288.487932,41.1919871 321.079262,27.2329425 363.193274,27.2329425 C408.516434,27.2329425 437.87244,41.1919871 478.974775,41.1919871 C523.601008,41.1919871 545.887237,27.2329425 593.971006,27.2329425 C644.275597,27.2329425 658.899061,41.1919871 706.0151,41.1919871 C753.131139,41.1919871 770.569386,27.2329425 817.048197,27.2329425 C865.477167,27.2329425 892.122779,41.1919871 933.9443,41.1919871 C983.132342,41.1919871 997.9534,27.9083048 1040.15583,27.9083048" id="Line-2" stroke="#E81515" stroke-width="3.31114534"></path>
                            <path d="M6.38788063,34.5354055 C48.0652953,34.5354055 61.2599857,20.5763609 112.337761,20.5763609 C166.069876,20.5763609 177.978109,34.5354055 243.915034,34.5354055 C288.487932,34.5354055 321.079262,20.5763609 363.193274,20.5763609 C408.516434,20.5763609 437.87244,34.5354055 478.974775,34.5354055 C523.601008,34.5354055 545.887237,20.5763609 593.971006,20.5763609 C644.275597,20.5763609 658.899061,34.5354055 706.0151,34.5354055 C753.131139,34.5354055 770.569386,20.5763609 817.048197,20.5763609 C865.477167,20.5763609 892.122779,34.5354055 933.9443,34.5354055 C983.132342,34.5354055 997.9534,21.2517231 1040.15583,21.2517231" id="Line-2" stroke="#E81515" stroke-width="3.31114534"></path>
                            <path d="M6.38788063,28.2397157 C48.0652953,28.2397157 61.2599857,13.5459845 112.337761,13.5459845 C166.069876,13.5459845 177.978109,28.2397157 243.915034,28.2397157 C288.487932,28.2397157 321.079262,13.5459845 363.193274,13.5459845 C408.516434,13.5459845 437.87244,28.2397157 478.974775,28.2397157 C523.601008,28.2397157 545.887237,13.5459845 593.971006,13.5459845 C644.275597,13.5459845 658.899061,28.2397157 706.0151,28.2397157 C753.131139,28.2397157 770.569386,13.5459845 817.048197,13.5459845 C865.477167,13.5459845 892.122779,28.2397157 933.9443,28.2397157 C983.132342,28.2397157 997.9534,14.2270836 1040.15583,14.2270836" id="Line-2" stroke="#E81515" stroke-width="3.31114534"></path>
                            <path d="M6.38788063,21.226732 C48.0652953,21.226732 61.2599857,7.12431886 112.337761,7.12431886 C166.069876,7.12431886 177.978109,21.81805 243.915034,21.81805 C288.487932,21.81805 321.079262,7.12431886 363.193274,7.12431886 C408.516434,7.12431886 437.87244,21.81805 478.974775,21.81805 C523.601008,21.81805 545.887237,7.12431886 593.971006,7.12431886 C644.275597,7.12431886 658.899061,21.81805 706.0151,21.81805 C753.131139,21.81805 770.569386,7.12431886 817.048197,7.12431886 C865.477167,7.12431886 892.122779,21.81805 933.9443,21.81805 C983.132342,21.81805 997.9534,7.77800855 1040.15583,7.77800855" id="Line-2" stroke="#E81515" stroke-width="3.31114534"></path>
                        </g>
                    </g>
                </g>
            </g>
        </g>
    </g>
</svg>