<?xml version="1.0" encoding="UTF-8"?>
<svg width="801px" height="138px" viewBox="0 0 801 138" version="1.1" xmlns="http://www.w3.org/2000/svg" xmlns:xlink="http://www.w3.org/1999/xlink">
    <!-- Generator: Sketch 51.1 (57501) - http://www.bohemiancoding.com/sketch -->
    <title>making</title>
    <desc>Created with Sketch.</desc>
    <defs>
        <path d="M0,133.551601 L22.3976506,3.61881757 L56.3440898,3.61881757 L82.7663183,72.8933253 L109.013565,3.61881757 L142.960004,3.61881757 L165.357655,133.551601 L131.236234,133.551601 L119.862427,58.7627043 L88.7156942,133.551601 L75.0671259,133.551601 L45.4952278,58.7627043 L34.1214208,133.551601 L0,133.551601 Z M253.876494,85.3006998 L238.47811,42.0472136 L223.079725,85.3006998 L253.876494,85.3006998 Z M262.97554,110.977072 L213.980679,110.977072 L206.106505,133.551601 L169.535341,133.551601 L219.755074,3.61881757 L257.201146,3.61881757 L307.420878,133.551601 L270.849714,133.551601 L262.97554,110.977072 Z M351.844343,57.2117825 L393.664956,3.61881757 L436.010514,3.61881757 L383.691002,65.1387162 L440.91,133.551601 L396.464662,133.551601 L351.844343,77.2014414 L351.844343,133.551601 L317.54794,133.551601 L317.54794,3.61881757 L351.844343,3.61881757 L351.844343,57.2117825 Z M485.508447,3.61881757 L485.508447,133.551601 L451.212045,133.551601 L451.212045,3.61881757 L485.508447,3.61881757 Z M508.234188,133.551601 L508.234188,3.61881757 L542.53059,3.61881757 L605.873946,83.0604794 L605.873946,3.61881757 L639.995367,3.61881757 L639.995367,133.551601 L605.873946,133.551601 L542.53059,54.1099388 L542.53059,133.551601 L508.234188,133.551601 Z M729.389115,60.8306 L797.456975,60.8306 C797.456975,67.7236204 797.165342,73.9846865 796.582067,79.6139865 C795.998792,85.2432864 794.832259,90.470415 793.082434,95.2955292 C790.632678,102.073666 787.30806,108.076248 783.10848,113.303455 C778.908899,118.530662 773.980299,122.896176 768.322531,126.400128 C762.664763,129.90408 756.452976,132.575085 749.686986,134.413224 C742.920995,136.251363 735.805146,137.170418 728.339225,137.170418 C718.073584,137.170418 708.712159,135.50463 700.254671,132.173003 C691.797182,128.841377 684.535517,124.159938 678.469456,118.128545 C672.403395,112.097152 667.678938,104.859589 664.295943,96.4156394 C660.912947,87.9716896 659.221475,78.6375313 659.221475,68.4128845 C659.221475,58.3031214 660.883784,49.026404 664.208452,40.5824541 C667.53312,32.1385043 672.257577,24.929662 678.381965,18.9557111 C684.506353,12.9817601 691.884672,8.32904122 700.517143,4.99741473 C709.149614,1.66578825 718.773509,0 729.389115,0 C743.154406,0 755.228019,2.92948969 765.610315,8.78855695 C775.992612,14.6476242 784.216667,23.7232981 790.282727,36.015851 L757.736141,49.2848488 C754.703111,42.1620611 750.766063,37.0498144 745.92488,33.9479553 C741.083697,30.8460961 735.57183,29.2951898 729.389115,29.2951898 C724.256294,29.2951898 719.590164,30.2429659 715.390583,32.1385465 C711.191003,34.0341271 707.603915,36.7338529 704.629212,40.2378048 C701.654509,43.7417568 699.321444,47.9636684 697.629946,52.9036663 C695.938448,57.8436642 695.092712,63.3579977 695.092712,69.4468323 C695.092712,74.9612486 695.821795,80.0734953 697.279983,84.7837258 C698.738171,89.4939564 700.925419,93.5722656 703.841795,97.0187757 C706.75817,100.465286 710.374421,103.136291 714.690657,105.031872 C719.006892,106.927452 724.022982,107.875228 729.739078,107.875228 C733.122073,107.875228 736.388365,107.501862 739.53805,106.755118 C742.687736,106.008374 745.516577,104.802114 748.02466,103.136301 C750.532743,101.470487 752.603338,99.3164509 754.236508,96.6741264 C755.869679,94.031802 756.977885,90.8151074 757.56116,87.0239462 L729.389115,87.0239462 L729.389115,60.8306 Z M890.853428,3.61881757 L913.601041,87.5409202 L941.598105,3.61881757 L968.895241,3.61881757 L996.892305,87.5409202 L1019.63992,3.61881757 L1055.51116,3.61881757 L1016.14029,133.551601 L981.143957,133.551601 L955.246673,58.2457304 L929.34939,133.551601 L894.35306,133.551601 L854.98219,3.61881757 L890.853428,3.61881757 Z M1129.15656,85.3006998 L1113.75817,42.0472136 L1098.35979,85.3006998 L1129.15656,85.3006998 Z M1138.2556,110.977072 L1089.26074,110.977072 L1081.38657,133.551601 L1044.8154,133.551601 L1095.03513,3.61881757 L1132.48121,3.61881757 L1182.70094,133.551601 L1146.12978,133.551601 L1138.2556,110.977072 Z M1206.12661,3.61881757 L1237.97327,82.7158301 L1269.99491,3.61881757 L1307.266,3.61881757 L1251.62183,133.551601 L1224.3247,133.551601 L1168.85552,3.61881757 L1206.12661,3.61881757 Z M1391.23531,32.2247088 L1350.46459,32.2247088 L1350.46459,53.9376142 L1388.96055,53.9376142 L1388.96055,82.5435054 L1350.46459,82.5435054 L1350.46459,104.945709 L1391.23531,104.945709 L1391.23531,133.551601 L1316.16819,133.551601 L1316.16819,3.61881757 L1391.23531,3.61881757 L1391.23531,32.2247088 Z M1483.42877,36.8774742 C1479.69581,33.8904988 1475.9629,31.6790213 1472.22994,30.2429754 C1468.49698,28.8069295 1464.88073,28.0889173 1461.38108,28.0889173 C1456.94819,28.0889173 1453.33194,29.1228548 1450.53222,31.1907609 C1447.7325,33.258667 1446.33266,35.9583928 1446.33266,39.2900193 C1446.33266,41.5876927 1447.03258,43.4832449 1448.43244,44.9767326 C1449.8323,46.4702203 1451.66959,47.7626423 1453.94436,48.8540371 C1456.21913,49.945432 1458.78551,50.8932081 1461.64355,51.6973938 C1464.5016,52.5015795 1467.33044,53.3631941 1470.13016,54.2822635 C1481.32904,57.958541 1489.52394,62.8697443 1494.71508,69.0160207 C1499.90623,75.1622972 1502.50177,83.1753131 1502.50177,93.0553089 C1502.50177,99.7185618 1501.3644,105.749864 1499.08963,111.149397 C1496.81485,116.548929 1493.49024,121.172928 1489.11567,125.021531 C1484.74111,128.870134 1479.37506,131.857064 1473.01736,133.982412 C1466.65966,136.10776 1459.45632,137.170418 1451.40713,137.170418 C1434.72546,137.170418 1419.2689,132.287935 1405.03699,122.522823 L1419.73545,95.2955292 C1424.86827,99.7759924 1429.94269,103.107569 1434.95885,105.290359 C1439.97502,107.473148 1444.93278,108.564527 1449.83229,108.564527 C1455.43173,108.564527 1459.60209,107.300826 1462.34348,104.773385 C1465.08487,102.245944 1466.45555,99.3738953 1466.45555,96.1571525 C1466.45555,94.2041301 1466.10559,92.5096213 1465.40566,91.0735754 C1464.70573,89.6375295 1463.5392,88.3163871 1461.90603,87.1101086 C1460.27286,85.90383 1458.14393,84.783731 1455.5192,83.749778 C1452.89446,82.7158249 1449.71566,81.5670054 1445.9827,80.303285 C1441.54981,78.924681 1437.20447,77.4024952 1432.94656,75.7366819 C1428.68866,74.0708687 1424.89742,71.8593912 1421.57276,69.1021831 C1418.24809,66.3449749 1415.56506,62.869796 1413.5236,58.676542 C1411.48214,54.483288 1410.46142,49.1699978 1410.46142,42.7365122 C1410.46142,36.3030266 1411.54047,30.4727677 1413.69858,25.2455606 C1415.8567,20.0183536 1418.88969,15.5379576 1422.79763,11.8042383 C1426.70557,8.07051892 1431.48836,5.16974972 1437.14612,3.10184363 C1442.80389,1.03393754 1449.13233,0 1456.13163,0 C1462.66431,0 1469.48853,0.890335101 1476.60448,2.67103201 C1483.72044,4.45172893 1490.54466,7.06529325 1497.07734,10.5118034 L1483.42877,36.8774742 Z" id="path-1"></path>
    </defs>
    <g id="making" stroke="none" stroke-width="1" fill="none" fill-rule="evenodd">
        <g id="Group-2" transform="translate(2.000000, 1.000000)">
            <g id="Group">
                <mask id="mask-2" fill="white">
                    <use xlink:href="#path-1"></use>
                </mask>
                <g id="Mask"></g>
                <g id="Group-2" mask="url(#mask-2)" stroke-linecap="square">
                    <g transform="translate(-67.000000, -25.000000)" id="Group">
                        <g>
                            <path d="M42.0163318,171.583644 C93.7947482,171.583644 110.187324,158.271106 173.644387,158.271106 C240.399099,158.271106 255.193429,171.583644 337.110928,171.583644 C392.486581,171.583644 432.976796,158.271106 485.297624,158.271106 C541.605375,158.271106 578.076147,171.583644 629.140106,171.583644 C684.582022,171.583644 712.269574,158.271106 772.007,158.271106 C834.503488,158.271106 852.671116,171.583644 911.20627,171.583644 C969.741425,171.583644 994.320124,158.271106 1052.06361,158.271106 C1112.2299,158.271106 1145.33338,171.583644 1197.29083,171.583644 C1258.40016,171.583644 1276.81327,159.25218 1329.24395,159.25218" id="Line-2" stroke="#E81515" stroke-width="5.184"></path>
                            <path d="M42.0163318,162.708618 C93.7947482,162.708618 110.187324,148.286702 173.644387,148.286702 C240.399099,148.286702 255.193429,162.708618 337.110928,162.708618 C392.486581,162.708618 432.976796,148.286702 485.297624,148.286702 C541.605375,148.286702 578.076147,162.708618 629.140106,162.708618 C684.582022,162.708618 712.269574,148.286702 772.007,148.286702 C834.503488,148.286702 852.671116,162.708618 911.20627,162.708618 C969.741425,162.708618 994.320124,148.286702 1052.06361,148.286702 C1112.2299,148.286702 1145.33338,162.708618 1197.29083,162.708618 C1258.40016,162.708618 1276.81327,149.270072 1329.24395,149.270072" id="Line-2" stroke="#E81515" stroke-width="5.184"></path>
                            <path d="M42.0163318,153.672495 C93.7947482,153.672495 110.187324,138.141201 173.644387,138.141201 C240.399099,138.141201 255.193429,153.672495 337.110928,153.672495 C392.486581,153.672495 432.976796,138.141201 485.297624,138.141201 C541.605375,138.141201 578.076147,153.672495 629.140106,153.672495 C684.582022,153.672495 712.269574,138.141201 772.007,138.141201 C834.503488,138.141201 852.671116,153.672495 911.20627,153.672495 C969.741425,153.672495 994.320124,138.141201 1052.06361,138.141201 C1112.2299,138.141201 1145.33338,153.672495 1197.29083,153.672495 C1258.40016,153.672495 1276.81327,139.126546 1329.24395,139.126546" id="Line-2" stroke="#E81515" stroke-width="5.184"></path>
                            <path d="M42.0163318,143.84919 C93.7947482,143.84919 110.187324,127.208517 173.644387,127.208517 C240.399099,127.208517 255.193429,143.84919 337.110928,143.84919 C392.486581,143.84919 432.976796,127.208517 485.297624,127.208517 C541.605375,127.208517 578.076147,143.84919 629.140106,143.84919 C684.582022,143.84919 712.269574,127.208517 772.007,127.208517 C834.503488,127.208517 852.671116,143.84919 911.20627,143.84919 C969.741425,143.84919 994.320124,127.208517 1052.06361,127.208517 C1112.2299,127.208517 1145.33338,143.84919 1197.29083,143.84919 C1258.40016,143.84919 1276.81327,128.195582 1329.24395,128.195582" id="Line-2" stroke="#E81515" stroke-width="5.184"></path>
                            <path d="M42.0163318,134.982798 C93.7947482,134.982798 110.187324,117.232747 173.644387,117.232747 C240.399099,117.232747 255.193429,134.982798 337.110928,134.982798 C392.486581,134.982798 432.976796,117.232747 485.297624,117.232747 C541.605375,117.232747 578.076147,134.982798 629.140106,134.982798 C684.582022,134.982798 712.269574,117.232747 772.007,117.232747 C834.503488,117.232747 852.671116,134.982798 911.20627,134.982798 C969.741425,134.982798 994.320124,117.232747 1052.06361,117.232747 C1112.2299,117.232747 1145.33338,134.982798 1197.29083,134.982798 C1258.40016,134.982798 1276.81327,118.22132 1329.24395,118.22132" id="Line-2" stroke="#E81515" stroke-width="5.184"></path>
                            <path d="M45.8359983,125.368232 C97.6144147,125.368232 114.00699,106.508803 177.464053,106.508803 C244.218765,106.508803 259.013096,125.368232 340.930595,125.368232 C396.306248,125.368232 436.796463,106.508803 489.11729,106.508803 C545.425041,106.508803 581.895814,125.368232 632.959773,125.368232 C688.401688,125.368232 716.089241,106.508803 775.826666,106.508803 C838.323155,106.508803 856.490783,125.368232 915.025937,125.368232 C973.561091,125.368232 998.13979,106.508803 1055.88328,106.508803 C1116.04957,106.508803 1149.15305,125.368232 1201.1105,125.368232 C1262.21983,125.368232 1280.63294,107.508783 1333.06362,107.508783" id="Line-2" stroke="#E81515" stroke-width="5.184"></path>
                            <path d="M45.8359983,116.132136 C97.6144147,116.132136 114.00699,96.1633295 177.464053,96.1633295 C244.218765,96.1633295 259.013096,116.132136 340.930595,116.132136 C396.306248,116.132136 436.796463,96.1633295 489.11729,96.1633295 C545.425041,96.1633295 581.895814,116.132136 632.959773,116.132136 C688.401688,116.132136 716.089241,96.1633295 775.826666,96.1633295 C838.323155,96.1633295 856.490783,116.132136 915.025937,116.132136 C973.561091,116.132136 998.13979,96.1633295 1055.88328,96.1633295 C1116.04957,96.1633295 1149.15305,116.132136 1201.1105,116.132136 C1262.21983,116.132136 1280.63294,97.1736722 1333.06362,97.1736722" id="Line-2" stroke="#E81515" stroke-width="5.184"></path>
                            <path d="M45.8359983,106.508803 C97.6144147,106.508803 114.00699,85.4306177 177.464053,85.4306177 C244.218765,85.4306177 259.013096,106.508803 340.930595,106.508803 C396.306248,106.508803 436.796463,85.4306177 489.11729,85.4306177 C545.425041,85.4306177 581.895814,106.508803 632.959773,106.508803 C688.401688,106.508803 716.089241,85.4306177 775.826666,85.4306177 C838.323155,85.4306177 856.490783,106.508803 915.025937,106.508803 C973.561091,106.508803 998.13979,85.4306177 1055.88328,85.4306177 C1116.04957,85.4306177 1149.15305,106.508803 1201.1105,106.508803 C1262.21983,106.508803 1280.63294,86.450416 1333.06362,86.450416" id="Line-2" stroke="#E81515" stroke-width="5.184"></path>
                            <path d="M45.8359983,96.1372953 C97.6144147,96.1372953 114.00699,75.0591101 177.464053,75.0591101 C244.218765,75.0591101 259.013096,96.1372953 340.930595,96.1372953 C396.306248,96.1372953 436.796463,75.0591101 489.11729,75.0591101 C545.425041,75.0591101 581.895814,96.1372953 632.959773,96.1372953 C688.401688,96.1372953 716.089241,75.0591101 775.826666,75.0591101 C838.323155,75.0591101 856.490783,96.1372953 915.025937,96.1372953 C973.561091,96.1372953 998.13979,75.0591101 1055.88328,75.0591101 C1116.04957,75.0591101 1149.15305,96.1372953 1201.1105,96.1372953 C1262.21983,96.1372953 1280.63294,76.0789084 1333.06362,76.0789084" id="Line-2" stroke="#E81515" stroke-width="5.184"></path>
                            <path d="M45.8359983,87.2709032 C97.6144147,87.2709032 114.00699,65.0833399 177.464053,65.0833399 C244.218765,65.0833399 259.013096,87.2709032 340.930595,87.2709032 C396.306248,87.2709032 436.796463,65.0833399 489.11729,65.0833399 C545.425041,65.0833399 581.895814,87.2709032 632.959773,87.2709032 C688.401688,87.2709032 716.089241,65.0833399 775.826666,65.0833399 C838.323155,65.0833399 856.490783,87.2709032 915.025937,87.2709032 C973.561091,87.2709032 998.13979,65.0833399 1055.88328,65.0833399 C1116.04957,65.0833399 1149.15305,87.2709032 1201.1105,87.2709032 C1262.21983,87.2709032 1280.63294,66.1118009 1333.06362,66.1118009" id="Line-2" stroke="#E81515" stroke-width="5.184"></path>
                            <path d="M45.8359983,76.0411719 C97.6144147,76.0411719 114.00699,54.7464999 177.464053,54.7464999 C244.218765,54.7464999 259.013096,76.9340632 340.930595,76.9340632 C396.306248,76.9340632 436.796463,54.7464999 489.11729,54.7464999 C545.425041,54.7464999 581.895814,76.9340632 632.959773,76.9340632 C688.401688,76.9340632 716.089241,54.7464999 775.826666,54.7464999 C838.323155,54.7464999 856.490783,76.9340632 915.025937,76.9340632 C973.561091,76.9340632 998.13979,54.7464999 1055.88328,54.7464999 C1116.04957,54.7464999 1149.15305,76.9340632 1201.1105,76.9340632 C1262.21983,76.9340632 1280.63294,55.7335726 1333.06362,55.7335726" id="Line-2" stroke="#E81515" stroke-width="5.184"></path>
                            <path d="M45.8359983,66.4182309 C97.6144147,66.4182309 114.00699,44.0225557 177.464053,44.0225557 C244.218765,44.0225557 259.013096,67.3194972 340.930595,67.3194972 C396.306248,67.3194972 436.796463,44.0225557 489.11729,44.0225557 C545.425041,44.0225557 581.895814,67.3194972 632.959773,67.3194972 C688.401688,67.3194972 716.089241,44.0225557 775.826666,44.0225557 C838.323155,44.0225557 856.490783,67.3194972 915.025937,67.3194972 C973.561091,67.3194972 998.13979,44.0225557 1055.88328,44.0225557 C1116.04957,44.0225557 1149.15305,67.3194972 1201.1105,67.3194972 C1262.21983,67.3194972 1280.63294,45.0188868 1333.06362,45.0188868" id="Line-2" stroke="#E81515" stroke-width="5.184"></path>
                            <path d="M45.8359983,56.4223947 C97.6144147,56.4223947 114.00699,32.9201408 177.464053,32.9201408 C244.218765,32.9201408 259.013096,57.3264604 340.930595,57.3264604 C396.306248,57.3264604 436.796463,32.9201408 489.11729,32.9201408 C545.425041,32.9201408 581.895814,57.3264604 632.959773,57.3264604 C688.401688,57.3264604 716.089241,32.9201408 775.826666,32.9201408 C838.323155,32.9201408 856.490783,57.3264604 915.025937,57.3264604 C973.561091,57.3264604 998.13979,32.9201408 1055.88328,32.9201408 C1116.04957,32.9201408 1149.15305,57.3264604 1201.1105,57.3264604 C1262.21983,57.3264604 1280.63294,33.9195666 1333.06362,33.9195666" id="Line-2" stroke="#E81515" stroke-width="5.184"></path>
                            <path d="M45.8359983,35.7114759 C97.6144147,35.7114759 114.00699,11.102415 177.464053,11.102415 C244.218765,11.102415 259.013096,36.6181128 340.930595,36.6181128 C396.306248,36.6181128 436.796463,11.102415 489.11729,11.102415 C545.425041,11.102415 581.895814,36.6181128 632.959773,36.6181128 C688.401688,36.6181128 716.089241,11.102415 775.826666,11.102415 C838.323155,11.102415 856.490783,36.6181128 915.025937,36.6181128 C973.561091,36.6181128 998.13979,11.102415 1055.88328,11.102415 C1116.04957,11.102415 1149.15305,36.6181128 1201.1105,36.6181128 C1262.21983,36.6181128 1280.63294,12.1046831 1333.06362,12.1046831" id="Line-2" stroke="#E81515" stroke-width="5.184"></path>
                            <path d="M45.8359983,46.43542 C97.6144147,46.43542 114.00699,21.8263591 177.464053,21.8263591 C244.218765,21.8263591 259.013096,47.3420569 340.930595,47.3420569 C396.306248,47.3420569 436.796463,21.8263591 489.11729,21.8263591 C545.425041,21.8263591 581.895814,47.3420569 632.959773,47.3420569 C688.401688,47.3420569 716.089241,21.8263591 775.826666,21.8263591 C838.323155,21.8263591 856.490783,47.3420569 915.025937,47.3420569 C973.561091,47.3420569 998.13979,21.8263591 1055.88328,21.8263591 C1116.04957,21.8263591 1149.15305,47.3420569 1201.1105,47.3420569 C1262.21983,47.3420569 1280.63294,22.8286273 1333.06362,22.8286273" id="Line-2" stroke="#E81515" stroke-width="5.184"></path>
                            <path d="M46.8642605,25.7160693 C98.6426769,25.7160693 115.035253,0 178.492316,0 C245.247027,0 260.041358,26.625076 341.958857,26.625076 C397.33451,26.625076 437.824725,0 490.145553,0 C546.453303,0 582.924076,26.625076 633.988035,26.625076 C689.42995,26.625076 717.117503,0 776.854928,0 C839.351417,0 857.519045,26.625076 916.054199,26.625076 C974.589354,26.625076 999.168052,0 1056.91154,0 C1117.07783,0 1150.18131,26.625076 1202.13876,26.625076 C1263.24809,26.625076 1281.6612,1.00488797 1334.09188,1.00488797" id="Line-2" stroke="#E81515" stroke-width="5.184"></path>
                        </g>
                    </g>
                </g>
            </g>
        </g>
    </g>
</svg>