<?xml version="1.0" encoding="UTF-8"?>
<svg width="675px" height="94px" viewBox="0 0 675 94" version="1.1" xmlns="http://www.w3.org/2000/svg" xmlns:xlink="http://www.w3.org/1999/xlink">
    <!-- Generator: Sketch 51.1 (57501) - http://www.bohemiancoding.com/sketch -->
    <title>Group 2</title>
    <desc>Created with Sketch.</desc>
    <defs>
        <path d="M23.6399992,44.04 L31.4399992,44.04 C40.0800424,44.04 44.3999992,40.2800376 44.3999992,32.76 C44.3999992,25.2399624 40.0800424,21.48 31.4399992,21.48 L23.6399992,21.48 L23.6399992,44.04 Z M23.6399992,93 L0.119999237,93 L0.119999237,2.52 L37.5599992,2.52 C47.72005,2.52 55.4999722,5.1599736 60.8999992,10.44 C66.3000262,15.7200264 68.9999992,23.159952 68.9999992,32.76 C68.9999992,42.360048 66.3000262,49.7999736 60.8999992,55.08 C55.4999722,60.3600264 47.72005,63 37.5599992,63 L23.6399992,63 L23.6399992,93 Z M129.539999,59.4 L118.979999,29.28 L108.419999,59.4 L129.539999,59.4 Z M135.779999,77.28 L102.179999,77.28 L96.7799993,93 L71.6999993,93 L106.139999,2.52 L131.819999,2.52 L166.259999,93 L141.179999,93 L135.779999,77.28 Z M203.999999,42.96 L208.439999,42.96 C213.080023,42.96 216.639987,42.0000096 219.119999,40.08 C221.600012,38.1599904 222.839999,35.400018 222.839999,31.8 C222.839999,28.199982 221.600012,25.4400096 219.119999,23.52 C216.639987,21.5999904 213.080023,20.64 208.439999,20.64 L203.999999,20.64 L203.999999,42.96 Z M255.719999,93 L226.439999,93 L203.999999,58.2 L203.999999,93 L180.479999,93 L180.479999,2.52 L217.079999,2.52 C222.120025,2.52 226.519981,3.2599926 230.279999,4.74 C234.040018,6.2200074 237.139987,8.2399872 239.579999,10.8 C242.020012,13.3600128 243.859993,16.3199832 245.099999,19.68 C246.340006,23.0400168 246.959999,26.6399808 246.959999,30.48 C246.959999,37.3600344 245.300016,42.9399786 241.979999,47.22 C238.659983,51.5000214 233.760032,54.3999924 227.279999,55.92 L255.719999,93 Z M303.9,22.44 L303.9,93 L280.38,93 L280.38,22.44 L261.06,22.44 L261.06,2.52 L323.22,2.52 L323.22,22.44 L303.9,22.44 Z M337.56,93 L337.56,2.52 L361.08,2.52 L404.52,57.84 L404.52,2.52 L427.92,2.52 L427.92,93 L404.52,93 L361.08,37.68 L361.08,93 L337.56,93 Z M502.26,22.44 L474.3,22.44 L474.3,37.56 L500.7,37.56 L500.7,57.48 L474.3,57.48 L474.3,73.08 L502.26,73.08 L502.26,93 L450.78,93 L450.78,2.52 L502.26,2.52 L502.26,22.44 Z M546.6,42.96 L551.04,42.96 C555.680023,42.96 559.239987,42.0000096 561.72,40.08 C564.200012,38.1599904 565.44,35.400018 565.44,31.8 C565.44,28.199982 564.200012,25.4400096 561.72,23.52 C559.239987,21.5999904 555.680023,20.64 551.04,20.64 L546.6,20.64 L546.6,42.96 Z M598.32,93 L569.04,93 L546.6,58.2 L546.6,93 L523.08,93 L523.08,2.52 L559.68,2.52 C564.720025,2.52 569.119981,3.2599926 572.88,4.74 C576.640019,6.2200074 579.739988,8.2399872 582.18,10.8 C584.620012,13.3600128 586.459994,16.3199832 587.7,19.68 C588.940006,23.0400168 589.56,26.6399808 589.56,30.48 C589.56,37.3600344 587.900016,42.9399786 584.58,47.22 C581.259983,51.5000214 576.360032,54.3999924 569.88,55.92 L598.32,93 Z M661.74,25.68 C659.179987,23.5999896 656.620013,22.060005 654.06,21.06 C651.499987,20.059995 649.020012,19.56 646.62,19.56 C643.579985,19.56 641.10001,20.2799928 639.18,21.72 C637.25999,23.1600072 636.3,25.0399884 636.3,27.36 C636.3,28.960008 636.779995,30.2799948 637.74,31.32 C638.700005,32.3600052 639.959992,33.2599962 641.52,34.02 C643.080008,34.7800038 644.83999,35.4399972 646.8,36 C648.76001,36.5600028 650.69999,37.1599968 652.62,37.8 C660.300038,40.3600128 665.919982,43.7799786 669.48,48.06 C673.040018,52.3400214 674.82,57.9199656 674.82,64.8 C674.82,69.4400232 674.040008,73.6399812 672.48,77.4 C670.919992,81.1600188 668.640015,84.3799866 665.64,87.06 C662.639985,89.7400134 658.960022,91.8199926 654.6,93.3 C650.239978,94.7800074 645.300028,95.52 639.78,95.52 C628.339943,95.52 617.740049,92.120034 607.98,85.32 L618.06,66.36 C621.580018,69.4800156 625.059983,71.7999924 628.5,73.32 C631.940017,74.8400076 635.339983,75.6 638.7,75.6 C642.540019,75.6 645.399991,74.7200088 647.28,72.96 C649.160009,71.1999912 650.1,69.2000112 650.1,66.96 C650.1,65.5999932 649.860002,64.420005 649.38,63.42 C648.899998,62.419995 648.100006,61.5000042 646.98,60.66 C645.859994,59.8199958 644.400009,59.0400036 642.6,58.32 C640.799991,57.5999964 638.620013,56.8000044 636.06,55.92 C633.019985,54.9599952 630.040015,53.9000058 627.12,52.74 C624.199985,51.5799942 621.600011,50.0400096 619.32,48.12 C617.039989,46.1999904 615.200007,43.7800146 613.8,40.86 C612.399993,37.9399854 611.7,34.2400224 611.7,29.76 C611.7,25.2799776 612.439993,21.2200182 613.92,17.58 C615.400007,13.9399818 617.479987,10.820013 620.16,8.22 C622.840013,5.619987 626.119981,3.6000072 630,2.16 C633.880019,0.7199928 638.219976,0 643.02,0 C647.500022,0 652.179976,0.6199938 657.06,1.86 C661.940024,3.1000062 666.619978,4.919988 671.1,7.32 L661.74,25.68 Z" id="path-1"></path>
    </defs>
    <g id="Sponsors" stroke="none" stroke-width="1" fill="none" fill-rule="evenodd">
        <g id="Artboard" transform="translate(-9.000000, 0.000000)">
            <g id="Group-2" transform="translate(9.000000, -2.000000)">
                <mask id="mask-2" fill="white">
                    <use xlink:href="#path-1"></use>
                </mask>
                <g id="Mask"></g>
                <g mask="url(#mask-2)" id="Group" stroke-linecap="square">
                    <g transform="translate(-110.000000, 2.000000)">
                        <g>
                            <path d="M3.29747589,99.9087434 C44.7750947,99.9087434 57.9065316,93.4270679 108.739447,93.4270679 C162.213977,93.4270679 174.065124,99.9087434 239.685957,99.9087434 C284.045178,99.9087434 316.48027,93.4270679 358.392393,93.4270679 C403.49828,93.4270679 432.713557,99.9087434 473.618853,99.9087434 C518.031154,99.9087434 540.210545,93.4270679 588.063808,93.4270679 C638.127246,93.4270679 652.680606,99.9087434 699.570778,99.9087434 C746.460949,99.9087434 766.149962,93.4270679 812.40596,93.4270679 C860.602769,93.4270679 887.120645,99.9087434 928.741679,99.9087434 C977.693921,99.9087434 992.443928,94.0575841 1034.44405,94.0575841" id="Line-2" stroke="#E81515" stroke-width="3.31114534"></path>
                            <path d="M3.29747589,94.1472541 C44.7750947,94.1472541 57.9065316,86.9453924 108.739447,86.9453924 C162.213977,86.9453924 174.065124,94.1472541 239.685957,94.1472541 C284.045178,94.1472541 316.48027,86.9453924 358.392393,86.9453924 C403.49828,86.9453924 432.713557,94.1472541 473.618853,94.1472541 C518.031154,94.1472541 540.210545,86.9453924 588.063808,86.9453924 C638.127246,86.9453924 652.680606,94.1472541 699.570778,94.1472541 C746.460949,94.1472541 766.149962,86.9453924 812.40596,86.9453924 C860.602769,86.9453924 887.120645,94.1472541 928.741679,94.1472541 C977.693921,94.1472541 992.443928,87.5784442 1034.44405,87.5784442" id="Line-2" stroke="#E81515" stroke-width="3.31114534"></path>
                            <path d="M3.29747589,88.3857647 C44.7750947,88.3857647 57.9065316,80.4637169 108.739447,80.4637169 C162.213977,80.4637169 174.065124,88.3857647 239.685957,88.3857647 C284.045178,88.3857647 316.48027,80.4637169 358.392393,80.4637169 C403.49828,80.4637169 432.713557,88.3857647 473.618853,88.3857647 C518.031154,88.3857647 540.210545,80.4637169 588.063808,80.4637169 C638.127246,80.4637169 652.680606,88.3857647 699.570778,88.3857647 C746.460949,88.3857647 766.149962,80.4637169 812.40596,80.4637169 C860.602769,80.4637169 887.120645,88.3857647 928.741679,88.3857647 C977.693921,88.3857647 992.443928,81.0988585 1034.44405,81.0988585" id="Line-2" stroke="#E81515" stroke-width="3.31114534"></path>
                            <path d="M3.29747589,82.6242754 C44.7750947,82.6242754 57.9065316,73.9820414 108.739447,73.9820414 C162.213977,73.9820414 174.065124,82.6242754 239.685957,82.6242754 C284.045178,82.6242754 316.48027,73.9820414 358.392393,73.9820414 C403.49828,73.9820414 432.713557,82.6242754 473.618853,82.6242754 C518.031154,82.6242754 540.210545,73.9820414 588.063808,73.9820414 C638.127246,73.9820414 652.680606,82.6242754 699.570778,82.6242754 C746.460949,82.6242754 766.149962,73.9820414 812.40596,73.9820414 C860.602769,73.9820414 887.120645,82.6242754 928.741679,82.6242754 C977.693921,82.6242754 992.443928,74.6189351 1034.44405,74.6189351" id="Line-2" stroke="#E81515" stroke-width="3.31114534"></path>
                            <path d="M3.29747589,76.8627861 C44.7750947,76.8627861 57.9065316,67.500366 108.739447,67.500366 C162.213977,67.500366 174.065124,76.8627861 239.685957,76.8627861 C284.045178,76.8627861 316.48027,67.500366 358.392393,67.500366 C403.49828,67.500366 432.713557,76.8627861 473.618853,76.8627861 C518.031154,76.8627861 540.210545,67.500366 588.063808,67.500366 C638.127246,67.500366 652.680606,76.8627861 699.570778,76.8627861 C746.460949,76.8627861 766.149962,67.500366 812.40596,67.500366 C860.602769,67.500366 887.120645,76.8627861 928.741679,76.8627861 C977.693921,76.8627861 992.443928,68.1387497 1034.44405,68.1387497" id="Line-2" stroke="#E81515" stroke-width="3.31114534"></path>
                            <path d="M3.29747589,70.9967153 C44.7750947,70.9967153 57.9065316,60.914109 108.739447,60.914109 C162.213977,60.914109 174.065124,70.9967153 239.685957,70.9967153 C284.045178,70.9967153 316.48027,60.914109 358.392393,60.914109 C403.49828,60.914109 432.713557,70.9967153 473.618853,70.9967153 C518.031154,70.9967153 540.210545,60.914109 588.063808,60.914109 C638.127246,60.914109 652.680606,70.9967153 699.570778,70.9967153 C746.460949,70.9967153 766.149962,60.914109 812.40596,60.914109 C860.602769,60.914109 887.120645,70.9967153 928.741679,70.9967153 C977.693921,70.9967153 992.443928,61.5537755 1034.44405,61.5537755" id="Line-2" stroke="#E81515" stroke-width="3.31114534"></path>
                            <path d="M3.29747589,64.8151282 C44.7750947,64.8151282 57.9065316,54.0123357 108.739447,54.0123357 C162.213977,54.0123357 174.065124,64.8151282 239.685957,64.8151282 C284.045178,64.8151282 316.48027,54.0123357 358.392393,54.0123357 C403.49828,54.0123357 432.713557,64.8151282 473.618853,64.8151282 C518.031154,64.8151282 540.210545,54.0123357 588.063808,54.0123357 C638.127246,54.0123357 652.680606,64.8151282 699.570778,64.8151282 C746.460949,64.8151282 766.149962,54.0123357 812.40596,54.0123357 C860.602769,54.0123357 887.120645,64.8151282 928.741679,64.8151282 C977.693921,64.8151282 992.443928,54.6531182 1034.44405,54.6531182" id="Line-2" stroke="#E81515" stroke-width="3.31114534"></path>
                            <path d="M3.29747589,58.8637365 C44.7750947,58.8637365 57.9065316,47.3407579 108.739447,47.3407579 C162.213977,47.3407579 174.065124,58.8637365 239.685957,58.8637365 C284.045178,58.8637365 316.48027,47.3407579 358.392393,47.3407579 C403.49828,47.3407579 432.713557,58.8637365 473.618853,58.8637365 C518.031154,58.8637365 540.210545,47.3407579 588.063808,47.3407579 C638.127246,47.3407579 652.680606,58.8637365 699.570778,58.8637365 C746.460949,58.8637365 766.149962,47.3407579 812.40596,47.3407579 C860.602769,47.3407579 887.120645,58.8637365 928.741679,58.8637365 C977.693921,58.8637365 992.443928,47.98252 1034.44405,47.98252" id="Line-2" stroke="#E81515" stroke-width="3.31114534"></path>
                            <path d="M6.357258,52.8176591 C47.8348768,52.8176591 60.9663137,40.5744943 111.799229,40.5744943 C165.273759,40.5744943 177.124906,52.8176591 242.745739,52.8176591 C287.10496,52.8176591 319.540052,40.5744943 361.452175,40.5744943 C406.558062,40.5744943 435.773339,52.8176591 476.678635,52.8176591 C521.090936,52.8176591 543.270328,40.5744943 591.12359,40.5744943 C641.187028,40.5744943 655.740388,52.8176591 702.63056,52.8176591 C749.520731,52.8176591 769.209744,40.5744943 815.465742,40.5744943 C863.662551,40.5744943 890.180427,52.8176591 931.801461,52.8176591 C980.753703,52.8176591 995.50371,41.2236614 1037.50383,41.2236614" id="Line-2" stroke="#E81515" stroke-width="3.31114534"></path>
                            <path d="M6.357258,46.6262635 C47.8348768,46.6262635 60.9663137,33.6629125 111.799229,33.6629125 C165.273759,33.6629125 177.124906,46.6262635 242.745739,46.6262635 C287.10496,46.6262635 319.540052,33.6629125 361.452175,33.6629125 C406.558062,33.6629125 435.773339,46.6262635 476.678635,46.6262635 C521.090936,46.6262635 543.270328,33.6629125 591.12359,33.6629125 C641.187028,33.6629125 655.740388,46.6262635 702.63056,46.6262635 C749.520731,46.6262635 769.209744,33.6629125 815.465742,33.6629125 C863.662551,33.6629125 890.180427,46.6262635 931.801461,46.6262635 C980.753703,46.6262635 995.50371,34.3188069 1037.50383,34.3188069" id="Line-2" stroke="#E81515" stroke-width="3.31114534"></path>
                            <path d="M6.357258,40.3789874 C47.8348768,40.3789874 60.9663137,26.6954502 111.799229,26.6954502 C165.273759,26.6954502 177.124906,40.3789874 242.745739,40.3789874 C287.10496,40.3789874 319.540052,26.6954502 361.452175,26.6954502 C406.558062,26.6954502 435.773339,40.3789874 476.678635,40.3789874 C521.090936,40.3789874 543.270328,26.6954502 591.12359,26.6954502 C641.187028,26.6954502 655.740388,40.3789874 702.63056,40.3789874 C749.520731,40.3789874 766.875381,26.6954502 813.131379,26.6954502 C861.328188,26.6954502 887.846064,40.3789874 929.467098,40.3789874 C978.41934,40.3789874 993.169347,27.357483 1035.16946,27.357483" id="Line-2" stroke="#E81515" stroke-width="3.31114534"></path>
                            <path d="M6.357258,33.8537856 C47.8348768,33.8537856 60.9663137,20.1702485 111.799229,20.1702485 C165.273759,20.1702485 177.124906,33.8537856 242.745739,33.8537856 C287.10496,33.8537856 319.540052,20.1702485 361.452175,20.1702485 C406.558062,20.1702485 435.773339,33.8537856 476.678635,33.8537856 C521.090936,33.8537856 543.270328,20.1702485 591.12359,20.1702485 C641.187028,20.1702485 655.740388,33.8537856 702.63056,33.8537856 C749.520731,33.8537856 766.875381,20.1702485 813.131379,20.1702485 C861.328188,20.1702485 887.846064,33.8537856 929.467098,33.8537856 C978.41934,33.8537856 993.169347,20.8322812 1035.16946,20.8322812" id="Line-2" stroke="#E81515" stroke-width="3.31114534"></path>
                            <path d="M6.357258,27.6823529 C47.8348768,27.6823529 60.9663137,13.2786296 111.799229,13.2786296 C165.273759,13.2786296 177.124906,27.6823529 242.745739,27.6823529 C287.10496,27.6823529 319.540052,13.2786296 361.452175,13.2786296 C406.558062,13.2786296 435.773339,27.6823529 476.678635,27.6823529 C521.090936,27.6823529 543.270328,13.2786296 591.12359,13.2786296 C641.187028,13.2786296 655.740388,27.6823529 702.63056,27.6823529 C749.520731,27.6823529 766.875381,13.2786296 813.131379,13.2786296 C861.328188,13.2786296 887.846064,27.6823529 929.467098,27.6823529 C978.41934,27.6823529 993.169347,13.9462859 1035.16946,13.9462859" id="Line-2" stroke="#E81515" stroke-width="3.31114534"></path>
                            <path d="M6.357258,20.8077834 C47.8348768,20.8077834 60.9663137,6.9837073 111.799229,6.9837073 C165.273759,6.9837073 177.124906,21.3874306 242.745739,21.3874306 C287.10496,21.3874306 319.540052,6.9837073 361.452175,6.9837073 C406.558062,6.9837073 435.773339,21.3874306 476.678635,21.3874306 C521.090936,21.3874306 543.270328,6.9837073 591.12359,6.9837073 C641.187028,6.9837073 655.740388,21.3874306 702.63056,21.3874306 C749.520731,21.3874306 766.875381,6.9837073 813.131379,6.9837073 C861.328188,6.9837073 887.846064,21.3874306 929.467098,21.3874306 C978.41934,21.3874306 993.169347,7.62449522 1035.16946,7.62449522" id="Line-2" stroke="#E81515" stroke-width="3.31114534"></path>
                            <path d="M6.357258,14.5607621 C47.8348768,14.5607621 60.9663137,0.0219367826 111.799229,0.0219367826 C165.273759,0.0219367826 177.124906,15.1458462 242.745739,15.1458462 C287.10496,15.1458462 319.540052,0.0219367826 361.452175,0.0219367826 C406.558062,0.0219367826 435.773339,15.1458462 476.678635,15.1458462 C521.090936,15.1458462 543.270328,0.0219367826 591.12359,0.0219367826 C641.187028,0.0219367826 655.740388,15.1458462 702.63056,15.1458462 C749.520731,15.1458462 766.875381,0.0219367826 813.131379,0.0219367826 C861.328188,0.0219367826 887.846064,15.1458462 929.467098,15.1458462 C978.41934,15.1458462 993.169347,0.668735075 1035.16946,0.668735075" id="Line-2" stroke="#E81515" stroke-width="3.31114534"></path>
                        </g>
                    </g>
                </g>
            </g>
        </g>
    </g>
</svg>