<?xml version="1.0" encoding="UTF-8"?>
<svg width="619px" height="91px" viewBox="0 0 619 91" version="1.1" xmlns="http://www.w3.org/2000/svg" xmlns:xlink="http://www.w3.org/1999/xlink">
    <!-- Generator: Sketch 51.1 (57501) - http://www.bohemiancoding.com/sketch -->
    <title>Group 2</title>
    <desc>Created with Sketch.</desc>
    <defs>
        <path d="M50.5929358,24.7132763 C48.1869978,22.7514098 45.7810958,21.2988958 43.3751578,20.3556908 C40.9692198,19.4124857 38.6385023,18.9408903 36.3829354,18.9408903 C33.525884,18.9408903 31.1951665,19.6199877 29.390713,20.978203 C27.5862595,22.3364182 26.6840462,24.1096171 26.6840462,26.2978528 C26.6840462,27.8069809 27.1351529,29.0519929 28.0373796,30.0329261 C28.9396064,31.0138594 30.1237612,31.8627312 31.5898797,32.579567 C33.0559982,33.2964028 34.7100558,33.9189088 36.5521021,34.4471036 C38.3941484,34.9752985 40.2173709,35.541213 42.0218244,36.1448642 C49.2396385,38.5594691 54.5213451,41.785182 57.8671027,45.8220996 C61.2128602,49.8590172 62.8857139,55.1220224 62.8857139,61.6112731 C62.8857139,65.9877445 62.1526657,69.9491462 60.6865472,73.4955972 C59.2204287,77.0420481 57.0776723,80.0791228 54.2582137,82.6069123 C51.4387551,85.1347018 47.980271,87.0965389 43.8826578,88.4924824 C39.7850446,89.8884258 35.1424058,90.5863871 29.9546019,90.5863871 C19.2030664,90.5863871 9.24112867,87.379538 0.0684899638,80.9657438 L9.54182356,63.0826656 C12.8499883,66.0254653 16.1205113,68.2136682 19.3534905,69.6473398 C22.5864697,71.0810115 25.7818082,71.7978366 28.9396019,71.7978366 C32.5485089,71.7978366 35.2363525,70.9678286 37.0032132,69.3077877 C38.7700739,67.6477468 39.653491,65.7613651 39.653491,63.6485858 C39.653491,62.3658269 39.4279377,61.2528616 38.9768244,60.3096566 C38.525711,59.3664516 37.7738666,58.4987159 36.7212687,57.7064237 C35.6686709,56.9141315 34.2965549,56.1784426 32.6048797,55.4993349 C30.9132046,54.8202273 28.8644287,54.0656746 26.4584907,53.2356542 C23.6014393,52.3301773 20.8008191,51.330395 18.056546,50.2362771 C15.312273,49.1421593 12.8687788,47.6896453 10.7259903,45.8786916 C8.58320171,44.0677379 6.85395969,41.785216 5.53821234,39.0310572 C4.22246498,36.2768985 3.56460117,32.7870922 3.56460117,28.5615336 C3.56460117,24.335975 4.2600572,20.50662 5.65099012,17.0733536 C7.04192304,13.6400873 8.99671836,10.6973317 11.5154347,8.24499858 C14.0341511,5.79266547 17.1167129,3.88741986 20.7632128,2.5292046 C24.4097126,1.17098934 28.4884682,0.491891892 32.999602,0.491891892 C37.2099935,0.491891892 41.608283,1.07667025 46.1946023,2.2462445 C50.7809217,3.41581875 55.1792112,5.13242618 59.3896027,7.39611828 L50.5929358,24.7132763 Z M101.505055,42.0304343 L108.835611,42.0304343 C116.955652,42.0304343 121.015611,38.4840365 121.015611,31.3911346 C121.015611,24.2982327 116.955652,20.7518349 108.835611,20.7518349 L101.505055,20.7518349 L101.505055,42.0304343 Z M101.505055,88.2095223 L79.4006102,88.2095223 L79.4006102,2.86875671 L114.587278,2.86875671 C124.135844,2.86875671 131.447531,5.35878068 136.522556,10.3389033 C141.597582,15.3190259 144.135056,22.3363662 144.135056,31.3911346 C144.135056,40.445903 141.597582,47.4632433 136.522556,52.4433659 C131.447531,57.4234885 124.135844,59.9135125 114.587278,59.9135125 L101.505055,59.9135125 L101.505055,88.2095223 Z M206.888843,21.6573072 L180.61162,21.6573072 L180.61162,35.9184962 L205.422732,35.9184962 L205.422732,54.7070467 L180.61162,54.7070467 L180.61162,69.4209718 L206.888843,69.4209718 L206.888843,88.2095223 L158.507175,88.2095223 L158.507175,2.86875671 L206.888843,2.86875671 L206.888843,21.6573072 Z M271.672629,56.5179913 L261.748185,28.1087975 L251.82374,56.5179913 L271.672629,56.5179913 Z M277.537074,73.3824131 L245.959295,73.3824131 L240.884295,88.2095223 L217.313739,88.2095223 L249.680962,2.86875671 L273.815407,2.86875671 L306.18263,88.2095223 L282.612074,88.2095223 L277.537074,73.3824131 Z M340.629194,38.0689929 L367.583083,2.86875671 L394.875306,2.86875671 L361.15475,43.2754587 L398.033084,88.2095223 L369.387528,88.2095223 L340.629194,51.1983414 L340.629194,88.2095223 L318.524749,88.2095223 L318.524749,2.86875671 L340.629194,2.86875671 L340.629194,38.0689929 Z M458.869648,21.6573072 L432.592425,21.6573072 L432.592425,35.9184962 L457.403537,35.9184962 L457.403537,54.7070467 L432.592425,54.7070467 L432.592425,69.4209718 L458.869648,69.4209718 L458.869648,88.2095223 L410.48798,88.2095223 L410.48798,2.86875671 L458.869648,2.86875671 L458.869648,21.6573072 Z M499.51899,41.0117779 L503.691768,41.0117779 C508.05253,41.0117779 511.398238,40.1063147 513.72899,38.295361 C516.059743,36.4844073 517.225101,33.8812004 517.225101,30.4856623 C517.225101,27.0901241 516.059743,24.4869173 513.72899,22.6759636 C511.398238,20.8650099 508.05253,19.9595466 503.691768,19.9595466 L499.51899,19.9595466 L499.51899,41.0117779 Z M548.126213,88.2095223 L520.608435,88.2095223 L499.51899,55.3861509 L499.51899,88.2095223 L477.414545,88.2095223 L477.414545,2.86875671 L511.811768,2.86875671 C516.548458,2.86875671 520.683602,3.56671798 524.217324,4.96266144 C527.751045,6.3586049 530.664442,8.26385051 532.957602,10.6784554 C535.250761,13.0930603 536.980003,15.8849054 538.14538,19.0540743 C539.310756,22.2232433 539.893435,25.6187305 539.893435,29.2406378 C539.893435,35.7298885 538.333358,40.9928937 535.213157,45.0298113 C532.092957,49.0667289 527.48791,51.8019825 521.397879,53.2356542 L548.126213,88.2095223 Z M606.707222,24.7132763 C604.301284,22.7514098 601.895382,21.2988958 599.489444,20.3556908 C597.083506,19.4124857 594.752788,18.9408903 592.497221,18.9408903 C589.64017,18.9408903 587.309453,19.6199877 585.504999,20.978203 C583.700546,22.3364182 582.798332,24.1096171 582.798332,26.2978528 C582.798332,27.8069809 583.249439,29.0519929 584.151666,30.0329261 C585.053892,31.0138594 586.238047,31.8627312 587.704166,32.579567 C589.170284,33.2964028 590.824342,33.9189088 592.666388,34.4471036 C594.508434,34.9752985 596.331657,35.541213 598.136111,36.1448642 C605.353925,38.5594691 610.635631,41.785182 613.981389,45.8220996 C617.327146,49.8590172 619,55.1220224 619,61.6112731 C619,65.9877445 618.266952,69.9491462 616.800833,73.4955972 C615.334715,77.0420481 613.191958,80.0791228 610.3725,82.6069123 C607.553041,85.1347018 604.094557,87.0965389 599.996944,88.4924824 C595.899331,89.8884258 591.256692,90.5863871 586.068888,90.5863871 C575.317352,90.5863871 565.355415,87.379538 556.182776,80.9657438 L565.65611,63.0826656 C568.964274,66.0254653 572.234797,68.2136682 575.467777,69.6473398 C578.700756,71.0810115 581.896094,71.7978366 585.053888,71.7978366 C588.662795,71.7978366 591.350639,70.9678286 593.117499,69.3077877 C594.88436,67.6477468 595.767777,65.7613651 595.767777,63.6485858 C595.767777,62.3658269 595.542224,61.2528616 595.09111,60.3096566 C594.639997,59.3664516 593.888153,58.4987159 592.835555,57.7064237 C591.782957,56.9141315 590.410841,56.1784426 588.719166,55.4993349 C587.027491,54.8202273 584.978715,54.0656746 582.572777,53.2356542 C579.715725,52.3301773 576.915105,51.330395 574.170832,50.2362771 C571.426559,49.1421593 568.983065,47.6896453 566.840276,45.8786916 C564.697488,44.0677379 562.968246,41.785216 561.652498,39.0310572 C560.336751,36.2768985 559.678887,32.7870922 559.678887,28.5615336 C559.678887,24.335975 560.374343,20.50662 561.765276,17.0733536 C563.156209,13.6400873 565.111004,10.6973317 567.629721,8.24499858 C570.148437,5.79266547 573.230999,3.88741986 576.877499,2.5292046 C580.523999,1.17098934 584.602754,0.491891892 589.113888,0.491891892 C593.32428,0.491891892 597.722569,1.07667025 602.308888,2.2462445 C606.895208,3.41581875 611.293497,5.13242618 615.503889,7.39611828 L606.707222,24.7132763 Z" id="path-1"></path>
    </defs>
    <g id="Sponsors" stroke="none" stroke-width="1" fill="none" fill-rule="evenodd">
        <g id="Artboard" transform="translate(-71.000000, -64.000000)">
            <g id="speakers" transform="translate(-6.000000, 43.000000)">
                <g id="Group-2" transform="translate(77.000000, 21.000000)">
                    <mask id="mask-2" fill="white">
                        <use xlink:href="#path-1"></use>
                    </mask>
                    <g id="Mask"></g>
                    <g mask="url(#mask-2)" id="Group" stroke-linecap="square">
                        <g transform="translate(-311.000000, 0.000000)">
                            <g>
                                <path d="M3.31761052,93.8043065 C45.0484946,93.8043065 58.260113,85.3965928 109.403418,85.3965928 C163.204467,85.3965928 175.127978,93.8043065 241.149496,93.8043065 C285.779578,93.8043065 318.412721,85.3965928 360.580762,85.3965928 C405.962069,85.3965928 435.355737,93.8043065 476.510803,93.8043065 C521.194289,93.8043065 543.509109,85.3965928 591.654567,85.3965928 C642.023696,85.3965928 656.66592,93.8043065 703.842406,93.8043065 C751.018892,93.8043065 770.828128,85.3965928 817.366568,85.3965928 C865.85767,85.3965928 892.537466,93.8043065 934.412642,93.8043065 C983.663789,93.8043065 998.503861,86.0706722 1040.76043,86.0706722" id="Line-2" stroke="#E81515" stroke-width="3.63862125"></path>
                                <path d="M3.31761052,87.6896056 C45.0484946,87.6896056 58.260113,78.5175544 109.403418,78.5175544 C163.204467,78.5175544 175.127978,87.6896056 241.149496,87.6896056 C285.779578,87.6896056 318.412721,78.5175544 360.580762,78.5175544 C405.962069,78.5175544 435.355737,87.6896056 476.510803,87.6896056 C521.194289,87.6896056 543.509109,78.5175544 591.654567,78.5175544 C642.023696,78.5175544 656.66592,87.6896056 703.842406,87.6896056 C751.018892,87.6896056 770.828128,78.5175544 817.366568,78.5175544 C865.85767,78.5175544 892.537466,87.6896056 934.412642,87.6896056 C983.663789,87.6896056 998.503861,79.1934932 1040.76043,79.1934932" id="Line-2" stroke="#E81515" stroke-width="3.63862125"></path>
                                <path d="M3.31761052,81.5749048 C45.0484946,81.5749048 58.260113,71.6385159 109.403418,71.6385159 C163.204467,71.6385159 175.127978,81.5749048 241.149496,81.5749048 C285.779578,81.5749048 318.412721,71.6385159 360.580762,71.6385159 C405.962069,71.6385159 435.355737,81.5749048 476.510803,81.5749048 C521.194289,81.5749048 543.509109,71.6385159 591.654567,71.6385159 C642.023696,71.6385159 656.66592,81.5749048 703.842406,81.5749048 C751.018892,81.5749048 770.828128,71.6385159 817.366568,71.6385159 C865.85767,71.6385159 892.537466,81.5749048 934.412642,81.5749048 C983.663789,81.5749048 998.503861,72.3160362 1040.76043,72.3160362" id="Line-2" stroke="#E81515" stroke-width="3.63862125"></path>
                                <path d="M3.31761052,75.349211 C45.0484946,75.349211 58.260113,64.6484846 109.403418,64.6484846 C163.204467,64.6484846 175.127978,75.349211 241.149496,75.349211 C285.779578,75.349211 318.412721,64.6484846 360.580762,64.6484846 C405.962069,64.6484846 435.355737,75.349211 476.510803,75.349211 C521.194289,75.349211 543.509109,64.6484846 591.654567,64.6484846 C642.023696,64.6484846 656.66592,75.349211 703.842406,75.349211 C751.018892,75.349211 770.828128,64.6484846 817.366568,64.6484846 C865.85767,64.6484846 892.537466,75.349211 934.412642,75.349211 C983.663789,75.349211 998.503861,65.3273662 1040.76043,65.3273662" id="Line-2" stroke="#E81515" stroke-width="3.63862125"></path>
                                <path d="M3.31761052,68.7886581 C45.0484946,68.7886581 58.260113,57.323594 109.403418,57.323594 C163.204467,57.323594 175.127978,68.7886581 241.149496,68.7886581 C285.779578,68.7886581 318.412721,57.323594 360.580762,57.323594 C405.962069,57.323594 435.355737,68.7886581 476.510803,68.7886581 C521.194289,68.7886581 543.509109,57.323594 591.654567,57.323594 C642.023696,57.323594 656.66592,68.7886581 703.842406,68.7886581 C751.018892,68.7886581 770.828128,57.323594 817.366568,57.323594 C865.85767,57.323594 892.537466,68.7886581 934.412642,68.7886581 C983.663789,68.7886581 998.503861,58.00366 1040.76043,58.00366" id="Line-2" stroke="#E81515" stroke-width="3.63862125"></path>
                                <path d="M3.31761052,62.4724128 C45.0484946,62.4724128 58.260113,50.2430111 109.403418,50.2430111 C163.204467,50.2430111 175.127978,62.4724128 241.149496,62.4724128 C285.779578,62.4724128 318.412721,50.2430111 360.580762,50.2430111 C405.962069,50.2430111 435.355737,62.4724128 476.510803,62.4724128 C521.194289,62.4724128 543.509109,50.2430111 591.654567,50.2430111 C642.023696,50.2430111 656.66592,62.4724128 703.842406,62.4724128 C751.018892,62.4724128 770.828128,50.2430111 817.366568,50.2430111 C865.85767,50.2430111 892.537466,62.4724128 934.412642,62.4724128 C983.663789,62.4724128 998.503861,50.9241168 1040.76043,50.9241168" id="Line-2" stroke="#E81515" stroke-width="3.63862125"></path>
                                <path d="M6.39607587,56.055677 C48.12696,56.055677 61.3385783,43.0619377 112.481883,43.0619377 C166.282933,43.0619377 178.206443,56.055677 244.227961,56.055677 C288.858043,56.055677 321.491186,43.0619377 363.659227,43.0619377 C409.040534,43.0619377 438.434202,56.055677 479.589269,56.055677 C524.272755,56.055677 546.587575,43.0619377 594.733033,43.0619377 C645.102161,43.0619377 659.744386,56.055677 706.920872,56.055677 C754.097358,56.055677 773.906593,43.0619377 820.445033,43.0619377 C868.936135,43.0619377 895.615932,56.055677 937.491107,56.055677 C986.742254,56.055677 1001.58233,43.7509024 1043.8389,43.7509024" id="Line-2" stroke="#E81515" stroke-width="3.63862125"></path>
                                <path d="M6.39607587,49.4847143 C48.12696,49.4847143 61.3385783,35.7266374 112.481883,35.7266374 C166.282933,35.7266374 178.206443,49.4847143 244.227961,49.4847143 C288.858043,49.4847143 321.491186,35.7266374 363.659227,35.7266374 C409.040534,35.7266374 438.434202,49.4847143 479.589269,49.4847143 C524.272755,49.4847143 546.587575,35.7266374 594.733033,35.7266374 C645.102161,35.7266374 659.744386,49.4847143 706.920872,49.4847143 C754.097358,49.4847143 773.906593,35.7266374 820.445033,35.7266374 C868.936135,35.7266374 895.615932,49.4847143 937.491107,49.4847143 C986.742254,49.4847143 1001.58233,36.4227417 1043.8389,36.4227417" id="Line-2" stroke="#E81515" stroke-width="3.63862125"></path>
                                <path d="M6.39607587,42.8544451 C48.12696,42.8544451 61.3385783,28.3320306 112.481883,28.3320306 C166.282933,28.3320306 178.206443,42.8544451 244.227961,42.8544451 C288.858043,42.8544451 321.491186,28.3320306 363.659227,28.3320306 C409.040534,28.3320306 438.434202,42.8544451 479.589269,42.8544451 C524.272755,42.8544451 546.587575,28.3320306 594.733033,28.3320306 C645.102161,28.3320306 659.744386,42.8544451 706.920872,42.8544451 C754.097358,42.8544451 771.557976,28.3320306 818.096417,28.3320306 C866.587519,28.3320306 893.267315,42.8544451 935.14249,42.8544451 C984.393637,42.8544451 999.233709,29.0346497 1041.49028,29.0346497" id="Line-2" stroke="#E81515" stroke-width="3.63862125"></path>
                                <path d="M6.39607587,35.929212 C48.12696,35.929212 61.3385783,21.4067975 112.481883,21.4067975 C166.282933,21.4067975 178.206443,35.929212 244.227961,35.929212 C288.858043,35.929212 321.491186,21.4067975 363.659227,21.4067975 C409.040534,21.4067975 438.434202,35.929212 479.589269,35.929212 C524.272755,35.929212 546.587575,21.4067975 594.733033,21.4067975 C645.102161,21.4067975 659.744386,35.929212 706.920872,35.929212 C754.097358,35.929212 771.557976,21.4067975 818.096417,21.4067975 C866.587519,21.4067975 893.267315,35.929212 935.14249,35.929212 C984.393637,35.929212 999.233709,22.1094166 1041.49028,22.1094166" id="Line-2" stroke="#E81515" stroke-width="3.63862125"></path>
                                <path d="M6.39607587,29.3794359 C48.12696,29.3794359 61.3385783,14.0926838 112.481883,14.0926838 C166.282933,14.0926838 178.206443,29.3794359 244.227961,29.3794359 C288.858043,29.3794359 321.491186,14.0926838 363.659227,14.0926838 C409.040534,14.0926838 438.434202,29.3794359 479.589269,29.3794359 C524.272755,29.3794359 546.587575,14.0926838 594.733033,14.0926838 C645.102161,14.0926838 659.744386,29.3794359 706.920872,29.3794359 C754.097358,29.3794359 771.557976,14.0926838 818.096417,14.0926838 C866.587519,14.0926838 893.267315,29.3794359 935.14249,29.3794359 C984.393637,29.3794359 999.233709,14.8012712 1041.49028,14.8012712" id="Line-2" stroke="#E81515" stroke-width="3.63862125"></path>
                                <path d="M6.39607587,22.0834169 C48.12696,22.0834169 61.3385783,7.41184762 112.481883,7.41184762 C166.282933,7.41184762 178.206443,22.6985997 244.227961,22.6985997 C288.858043,22.6985997 321.491186,7.41184762 363.659227,7.41184762 C409.040534,7.41184762 438.434202,22.6985997 479.589269,22.6985997 C524.272755,22.6985997 546.587575,7.41184762 594.733033,7.41184762 C645.102161,7.41184762 659.744386,22.6985997 706.920872,22.6985997 C754.097358,22.6985997 771.557976,7.41184762 818.096417,7.41184762 C866.587519,7.41184762 893.267315,22.6985997 935.14249,22.6985997 C984.393637,22.6985997 999.233709,8.09191942 1041.49028,8.09191942" id="Line-2" stroke="#E81515" stroke-width="3.63862125"></path>
                                <path d="M6.39607587,15.4534183 C48.12696,15.4534183 61.3385783,0.0232816301 112.481883,0.0232816301 C166.282933,0.0232816301 178.206443,16.0743713 244.227961,16.0743713 C288.858043,16.0743713 321.491186,0.0232816301 363.659227,0.0232816301 C409.040534,0.0232816301 438.434202,16.0743713 479.589269,16.0743713 C524.272755,16.0743713 546.587575,0.0232816301 594.733033,0.0232816301 C645.102161,0.0232816301 659.744386,16.0743713 706.920872,16.0743713 C754.097358,16.0743713 771.557976,0.0232816301 818.096417,0.0232816301 C866.587519,0.0232816301 893.267315,16.0743713 935.14249,16.0743713 C984.393637,16.0743713 999.233709,0.709732275 1041.49028,0.709732275" id="Line-2" stroke="#E81515" stroke-width="3.63862125"></path>
                            </g>
                        </g>
                    </g>
                </g>
            </g>
        </g>
    </g>
</svg>