<?xml version="1.0" encoding="UTF-8"?>
<svg width="648px" height="89px" viewBox="0 0 648 89" version="1.1" xmlns="http://www.w3.org/2000/svg" xmlns:xlink="http://www.w3.org/1999/xlink">
    <!-- Generator: Sketch 51.1 (57501) - http://www.bohemiancoding.com/sketch -->
    <title>Group 2</title>
    <desc>Created with Sketch.</desc>
    <defs>
        <path d="M23,44.53 C23,47.8300165 23.6233271,50.8733194 24.87,53.66 C26.1166729,56.4466806 27.8033227,58.8666564 29.93,60.92 C32.0566773,62.9733436 34.5316526,64.5683277 37.355,65.705 C40.1783475,66.8416723 43.1666509,67.41 46.32,67.41 C49.4733491,67.41 52.4616526,66.8416723 55.285,65.705 C58.1083475,64.5683277 60.6016559,62.9733436 62.765,60.92 C64.9283442,58.8666564 66.6333271,56.4466806 67.88,53.66 C69.1266729,50.8733194 69.75,47.8300165 69.75,44.53 C69.75,41.2299835 69.1266729,38.1866806 67.88,35.4 C66.6333271,32.6133194 64.9283442,30.1933436 62.765,28.14 C60.6016559,26.0866564 58.1083475,24.4916724 55.285,23.355 C52.4616526,22.2183276 49.4733491,21.65 46.32,21.65 C43.1666509,21.65 40.1783475,22.2183276 37.355,23.355 C34.5316526,24.4916724 32.0566773,26.0866564 29.93,28.14 C27.8033227,30.1933436 26.1166729,32.6133194 24.87,35.4 C23.6233271,38.1866806 23,41.2299835 23,44.53 Z M0.45,44.53 C0.45,38.3699692 1.5866553,32.6316932 3.86,27.315 C6.1333447,21.9983068 9.2866465,17.3600198 13.32,13.4 C17.3533535,9.4399802 22.174972,6.34167785 27.785,4.105 C33.3950281,1.86832215 39.5732996,0.75 46.32,0.75 C52.9933667,0.75 59.1533051,1.86832215 64.8,4.105 C70.4466949,6.34167785 75.3049797,9.4399802 79.375,13.4 C83.4450204,17.3600198 86.6166553,21.9983068 88.89,27.315 C91.1633447,32.6316932 92.3,38.3699692 92.3,44.53 C92.3,50.6900308 91.1633447,56.4283068 88.89,61.745 C86.6166553,67.0616933 83.4450204,71.6999802 79.375,75.66 C75.3049797,79.6200198 70.4466949,82.7183222 64.8,84.955 C59.1533051,87.1916778 52.9933667,88.31 46.32,88.31 C39.5732996,88.31 33.3950281,87.1916778 27.785,84.955 C22.174972,82.7183222 17.3533535,79.6200198 13.32,75.66 C9.2866465,71.6999802 6.1333447,67.0616933 3.86,61.745 C1.5866553,56.4283068 0.45,50.6900308 0.45,44.53 Z M131.1,3.06 L131.1,48.16 C131.1,50.5800121 131.191666,53.0549874 131.375,55.585 C131.558334,58.1150126 132.108329,60.4066564 133.025,62.46 C133.941671,64.5133436 135.38999,66.1816602 137.37,67.465 C139.35001,68.7483397 142.136649,69.39 145.73,69.39 C149.323351,69.39 152.091657,68.7483397 154.035,67.465 C155.978343,66.1816602 157.426662,64.5133436 158.38,62.46 C159.333338,60.4066564 159.901666,58.1150126 160.085,55.585 C160.268334,53.0549874 160.36,50.5800121 160.36,48.16 L160.36,3.06 L181.81,3.06 L181.81,51.13 C181.81,64.0367312 178.858363,73.4599703 172.955,79.4 C167.051637,85.3400297 157.976728,88.31 145.73,88.31 C133.483272,88.31 124.39003,85.3400297 118.45,79.4 C112.50997,73.4599703 109.54,64.0367312 109.54,51.13 L109.54,3.06 L131.1,3.06 Z M223.35,40.13 L227.42,40.13 C231.673355,40.13 234.936655,39.2500088 237.21,37.49 C239.483345,35.7299912 240.62,33.2000165 240.62,29.9 C240.62,26.5999835 239.483345,24.0700088 237.21,22.31 C234.936655,20.5499912 231.673355,19.67 227.42,19.67 L223.35,19.67 L223.35,40.13 Z M270.76,86 L243.92,86 L223.35,54.1 L223.35,86 L201.79,86 L201.79,3.06 L235.34,3.06 C239.960023,3.06 243.993316,3.73832655 247.44,5.095 C250.886684,6.45167345 253.728322,8.3033216 255.965,10.65 C258.201678,12.9966784 259.888328,15.7099846 261.025,18.79 C262.161672,21.8700154 262.73,25.1699824 262.73,28.69 C262.73,34.9966982 261.208349,40.1116471 258.165,44.035 C255.121651,47.958353 250.63003,50.6166597 244.69,52.01 L270.76,86 Z M356.64,21.32 L356.64,86 L335.08,86 L335.08,21.32 L317.37,21.32 L317.37,3.06 L374.35,3.06 L374.35,21.32 L356.64,21.32 Z M435.11,21.32 L409.48,21.32 L409.48,35.18 L433.68,35.18 L433.68,53.44 L409.48,53.44 L409.48,67.74 L435.11,67.74 L435.11,86 L387.92,86 L387.92,3.06 L435.11,3.06 L435.11,21.32 Z M499.72,55.2 L490.04,27.59 L480.36,55.2 L499.72,55.2 Z M505.44,71.59 L474.64,71.59 L469.69,86 L446.7,86 L478.27,3.06 L501.81,3.06 L533.38,86 L510.39,86 L505.44,71.59 Z M543.1,86 L557.18,3.06 L578.52,3.06 L595.13,47.28 L611.63,3.06 L632.97,3.06 L647.05,86 L625.6,86 L618.45,38.26 L598.87,86 L590.29,86 L571.7,38.26 L564.55,86 L543.1,86 Z" id="path-1"></path>
    </defs>
    <g id="Sponsors" stroke="none" stroke-width="1" fill="none" fill-rule="evenodd">
        <g id="gradient-about" transform="translate(-128.000000, -51.000000)">
            <g id="Group-2" transform="translate(128.000000, 51.000000)">
                <mask id="mask-2" fill="white">
                    <use xlink:href="#path-1"></use>
                </mask>
                <g id="Mask"></g>
                <g mask="url(#mask-2)" id="Group" stroke-linecap="square">
                    <g transform="translate(-128.000000, -18.000000)">
                        <g>
                            <path d="M4.6773403,109.43046 C51.8291613,109.43046 66.756999,104.456825 124.543936,104.456825 C185.333864,104.456825 198.806266,109.43046 273.40413,109.43046 C323.83176,109.43046 360.704023,104.456825 408.349789,104.456825 C459.626231,104.456825 492.838204,109.43046 539.339407,109.43046 C589.827379,109.43046 615.040945,104.456825 669.440608,104.456825 C726.352801,104.456825 742.897084,109.43046 796.201903,109.43046 C849.506722,109.43046 871.889222,104.456825 924.473112,104.456825 C979.263318,104.456825 1009.40888,109.43046 1056.72374,109.43046 C1112.37272,109.43046 1129.14055,105.07184 1176.88635,105.07184" id="Line-2" stroke="#E81515" stroke-width="3.31114534"></path>
                            <path d="M3.74857568,104.156276 C50.9003967,104.156276 65.8282344,98.4721224 123.615171,98.4721224 C184.405099,98.4721224 197.877501,104.156276 272.475365,104.156276 C322.902996,104.156276 359.775259,98.4721224 407.421024,98.4721224 C458.697467,98.4721224 491.909439,104.156276 538.410642,104.156276 C588.898615,104.156276 614.112181,98.4721224 668.511844,98.4721224 C725.424037,98.4721224 741.968319,104.156276 795.273138,104.156276 C848.577957,104.156276 870.960458,98.4721224 923.544347,98.4721224 C978.334554,98.4721224 1008.48012,104.156276 1055.79497,104.156276 C1111.44396,104.156276 1128.21179,99.0910764 1175.95759,99.0910764" id="Line-2" stroke="#E81515" stroke-width="3.31114534"></path>
                            <path d="M3.74857568,98.5676864 C50.9003967,98.5676864 65.8282344,92.1730133 123.615171,92.1730133 C184.405099,92.1730133 197.877501,98.5676864 272.475365,98.5676864 C322.902996,98.5676864 359.775259,92.1730133 407.421024,92.1730133 C458.697467,92.1730133 491.909439,98.5676864 538.410642,98.5676864 C588.898615,98.5676864 614.112181,92.1730133 668.511844,92.1730133 C725.424037,92.1730133 741.968319,98.5676864 795.273138,98.5676864 C848.577957,98.5676864 870.960458,92.1730133 923.544347,92.1730133 C978.334554,92.1730133 1008.48012,98.5676864 1055.79497,98.5676864 C1111.44396,98.5676864 1128.21179,92.7950662 1175.95759,92.7950662" id="Line-2" stroke="#E81515" stroke-width="3.31114534"></path>
                            <path d="M3.74857568,92.8835325 C50.9003967,92.8835325 65.8282344,85.7783402 123.615171,85.7783402 C184.405099,85.7783402 197.877501,92.8835325 272.475365,92.8835325 C322.902996,92.8835325 359.775259,85.7783402 407.421024,85.7783402 C458.697467,85.7783402 491.909439,92.8835325 538.410642,92.8835325 C588.898615,92.8835325 614.112181,85.7783402 668.511844,85.7783402 C725.424037,85.7783402 741.968319,92.8835325 795.273138,92.8835325 C848.577957,92.8835325 870.960458,85.7783402 923.544347,85.7783402 C978.334554,85.7783402 1008.48012,92.8835325 1055.79497,92.8835325 C1111.44396,92.8835325 1128.21179,86.4028946 1175.95759,86.4028946" id="Line-2" stroke="#E81515" stroke-width="3.31114534"></path>
                            <path d="M3.74857568,87.1993786 C50.9003967,87.1993786 65.8282344,79.383667 123.615171,79.383667 C184.405099,79.383667 197.877501,87.1993786 272.475365,87.1993786 C322.902996,87.1993786 359.775259,79.383667 407.421024,79.383667 C458.697467,79.383667 491.909439,87.1993786 538.410642,87.1993786 C588.898615,87.1993786 614.112181,79.383667 668.511844,79.383667 C725.424037,79.383667 741.968319,87.1993786 795.273138,87.1993786 C848.577957,87.1993786 870.960458,79.383667 923.544347,79.383667 C978.334554,79.383667 1008.48012,87.1993786 1055.79497,87.1993786 C1111.44396,87.1993786 1128.21179,80.0102832 1175.95759,80.0102832" id="Line-2" stroke="#E81515" stroke-width="3.31114534"></path>
                            <path d="M3.74857568,81.5152247 C50.9003967,81.5152247 65.8282344,72.9889939 123.615171,72.9889939 C184.405099,72.9889939 197.877501,81.5152247 272.475365,81.5152247 C322.902996,81.5152247 359.775259,72.9889939 407.421024,72.9889939 C458.697467,72.9889939 491.909439,81.5152247 538.410642,81.5152247 C588.898615,81.5152247 614.112181,72.9889939 668.511844,72.9889939 C725.424037,72.9889939 741.968319,81.5152247 795.273138,81.5152247 C848.577957,81.5152247 870.960458,72.9889939 923.544347,72.9889939 C978.334554,72.9889939 1008.48012,81.5152247 1055.79497,81.5152247 C1111.44396,81.5152247 1128.21179,73.6173387 1175.95759,73.6173387" id="Line-2" stroke="#E81515" stroke-width="3.31114534"></path>
                            <path d="M3.74857568,75.8310708 C50.9003967,75.8310708 65.8282344,66.5943208 123.615171,66.5943208 C184.405099,66.5943208 197.877501,75.8310708 272.475365,75.8310708 C322.902996,75.8310708 359.775259,66.5943208 407.421024,66.5943208 C458.697467,66.5943208 491.909439,75.8310708 538.410642,75.8310708 C588.898615,75.8310708 614.112181,66.5943208 668.511844,66.5943208 C725.424037,66.5943208 741.968319,75.8310708 795.273138,75.8310708 C848.577957,75.8310708 870.960458,66.5943208 923.544347,66.5943208 C978.334554,66.5943208 1008.48012,75.8310708 1055.79497,75.8310708 C1111.44396,75.8310708 1128.21179,67.2241356 1175.95759,67.2241356" id="Line-2" stroke="#E81515" stroke-width="3.31114534"></path>
                            <path d="M3.74857568,70.0437392 C50.9003967,70.0437392 65.8282344,60.0964699 123.615171,60.0964699 C184.405099,60.0964699 197.877501,70.0437392 272.475365,70.0437392 C322.902996,70.0437392 359.775259,60.0964699 407.421024,60.0964699 C458.697467,60.0964699 491.909439,70.0437392 538.410642,70.0437392 C588.898615,70.0437392 614.112181,60.0964699 668.511844,60.0964699 C725.424037,60.0964699 741.968319,70.0437392 795.273138,70.0437392 C848.577957,70.0437392 870.960458,60.0964699 923.544347,60.0964699 C978.334554,60.0964699 1008.48012,70.0437392 1055.79497,70.0437392 C1111.44396,70.0437392 1128.21179,60.7275503 1175.95759,60.7275503" id="Line-2" stroke="#E81515" stroke-width="3.31114534"></path>
                            <path d="M3.74857568,63.9451265 C50.9003967,63.9451265 65.8282344,53.2873379 123.615171,53.2873379 C184.405099,53.2873379 197.877501,63.9451265 272.475365,63.9451265 C322.902996,63.9451265 359.775259,53.2873379 407.421024,53.2873379 C458.697467,53.2873379 491.909439,63.9451265 538.410642,63.9451265 C588.898615,63.9451265 614.112181,53.2873379 668.511844,53.2873379 C725.424037,53.2873379 741.968319,63.9451265 795.273138,63.9451265 C848.577957,63.9451265 870.960458,53.2873379 923.544347,53.2873379 C978.334554,53.2873379 1008.48012,63.9451265 1055.79497,63.9451265 C1111.44396,63.9451265 1128.21179,53.9195193 1175.95759,53.9195193" id="Line-2" stroke="#E81515" stroke-width="3.31114534"></path>
                            <path d="M3.74857568,58.0736193 C50.9003967,58.0736193 65.8282344,46.7053115 123.615171,46.7053115 C184.405099,46.7053115 197.877501,58.0736193 272.475365,58.0736193 C322.902996,58.0736193 359.775259,46.7053115 407.421024,46.7053115 C458.697467,46.7053115 491.909439,58.0736193 538.410642,58.0736193 C588.898615,58.0736193 614.112181,46.7053115 668.511844,46.7053115 C725.424037,46.7053115 741.968319,58.0736193 795.273138,58.0736193 C848.577957,58.0736193 870.960458,46.7053115 923.544347,46.7053115 C978.334554,46.7053115 1008.48012,58.0736193 1055.79497,58.0736193 C1111.44396,58.0736193 1128.21179,47.3384593 1175.95759,47.3384593" id="Line-2" stroke="#E81515" stroke-width="3.31114534"></path>
                            <path d="M7.22694069,52.1086972 C54.3787617,52.1086972 69.3065994,40.0298702 127.093536,40.0298702 C187.883464,40.0298702 201.355866,52.1086972 275.95373,52.1086972 C326.381361,52.1086972 363.253624,40.0298702 410.899389,40.0298702 C462.175832,40.0298702 495.387804,52.1086972 541.889007,52.1086972 C592.37698,52.1086972 617.590546,40.0298702 671.990209,40.0298702 C728.902402,40.0298702 745.446684,52.1086972 798.751503,52.1086972 C852.056322,52.1086972 874.438823,40.0298702 927.022712,40.0298702 C981.812919,40.0298702 1011.95848,52.1086972 1059.27334,52.1086972 C1114.92232,52.1086972 1131.69015,40.6703237 1179.43595,40.6703237" id="Line-2" stroke="#E81515" stroke-width="3.31114534"></path>
                            <path d="M7.22694069,46.0004076 C54.3787617,46.0004076 69.3065994,33.2110614 127.093536,33.2110614 C187.883464,33.2110614 201.355866,46.0004076 275.95373,46.0004076 C326.381361,46.0004076 363.253624,33.2110614 410.899389,33.2110614 C462.175832,33.2110614 495.387804,46.0004076 541.889007,46.0004076 C592.37698,46.0004076 617.590546,33.2110614 671.990209,33.2110614 C728.902402,33.2110614 745.446684,46.0004076 798.751503,46.0004076 C852.056322,46.0004076 874.438823,33.2110614 927.022712,33.2110614 C981.812919,33.2110614 1011.95848,46.0004076 1059.27334,46.0004076 C1114.92232,46.0004076 1131.69015,33.8581518 1179.43595,33.8581518" id="Line-2" stroke="#E81515" stroke-width="3.31114534"></path>
                            <path d="M7.22694069,39.8369875 C54.3787617,39.8369875 69.3065994,26.337122 127.093536,26.337122 C187.883464,26.337122 201.355866,39.8369875 275.95373,39.8369875 C326.381361,39.8369875 363.253624,26.337122 410.899389,26.337122 C462.175832,26.337122 495.387804,39.8369875 541.889007,39.8369875 C592.37698,39.8369875 617.590546,26.337122 671.990209,26.337122 C728.902402,26.337122 745.446684,39.8369875 798.751503,39.8369875 C852.056322,39.8369875 871.785115,26.337122 924.369005,26.337122 C979.159211,26.337122 1009.30477,39.8369875 1056.61963,39.8369875 C1112.26861,39.8369875 1129.03644,26.9902684 1176.78224,26.9902684" id="Line-2" stroke="#E81515" stroke-width="3.31114534"></path>
                            <path d="M7.22694069,33.3993724 C54.3787617,33.3993724 69.3065994,19.8995069 127.093536,19.8995069 C187.883464,19.8995069 201.355866,33.3993724 275.95373,33.3993724 C326.381361,33.3993724 363.253624,19.8995069 410.899389,19.8995069 C462.175832,19.8995069 495.387804,33.3993724 541.889007,33.3993724 C592.37698,33.3993724 617.590546,19.8995069 671.990209,19.8995069 C728.902402,19.8995069 745.446684,33.3993724 798.751503,33.3993724 C852.056322,33.3993724 871.785115,19.8995069 924.369005,19.8995069 C979.159211,19.8995069 1009.30477,33.3993724 1056.61963,33.3993724 C1112.26861,33.3993724 1129.03644,20.5526533 1176.78224,20.5526533" id="Line-2" stroke="#E81515" stroke-width="3.31114534"></path>
                            <path d="M7.22694069,27.3107777 C54.3787617,27.3107777 69.3065994,13.1003929 127.093536,13.1003929 C187.883464,13.1003929 201.355866,27.3107777 275.95373,27.3107777 C326.381361,27.3107777 363.253624,13.1003929 410.899389,13.1003929 C462.175832,13.1003929 495.387804,27.3107777 541.889007,27.3107777 C592.37698,27.3107777 617.590546,13.1003929 671.990209,13.1003929 C728.902402,13.1003929 745.446684,27.3107777 798.751503,27.3107777 C852.056322,27.3107777 871.785115,13.1003929 924.369005,13.1003929 C979.159211,13.1003929 1009.30477,27.3107777 1056.61963,27.3107777 C1112.26861,27.3107777 1129.03644,13.7590874 1176.78224,13.7590874" id="Line-2" stroke="#E81515" stroke-width="3.31114534"></path>
                            <path d="M7.22694069,20.5284843 C54.3787617,20.5284843 69.3065994,6.88996626 127.093536,6.88996626 C187.883464,6.88996626 201.355866,21.100351 275.95373,21.100351 C326.381361,21.100351 363.253624,6.88996626 410.899389,6.88996626 C462.175832,6.88996626 495.387804,21.100351 541.889007,21.100351 C592.37698,21.100351 617.590546,6.88996626 671.990209,6.88996626 C728.902402,6.88996626 745.446684,21.100351 798.751503,21.100351 C852.056322,21.100351 871.785115,6.88996626 924.369005,6.88996626 C979.159211,6.88996626 1009.30477,21.100351 1056.61963,21.100351 C1112.26861,21.100351 1129.03644,7.522153 1176.78224,7.522153" id="Line-2" stroke="#E81515" stroke-width="3.31114534"></path>
                        </g>
                    </g>
                </g>
            </g>
        </g>
    </g>
</svg>