<?xml version="1.0" encoding="UTF-8"?>
<svg width="648px" height="86px" viewBox="0 0 648 86" version="1.1" xmlns="http://www.w3.org/2000/svg" xmlns:xlink="http://www.w3.org/1999/xlink">
    <!-- Generator: Sketch 51.1 (57501) - http://www.bohemiancoding.com/sketch -->
    <title>Group 2</title>
    <desc>Created with Sketch.</desc>
    <defs>
        <path d="M23,44.53 C23,47.8300165 23.6233271,50.8733194 24.87,53.66 C26.1166729,56.4466806 27.8033227,58.8666564 29.93,60.92 C32.0566773,62.9733436 34.5316526,64.5683277 37.355,65.705 C40.1783475,66.8416723 43.1666509,67.41 46.32,67.41 C49.4733491,67.41 52.4616526,66.8416723 55.285,65.705 C58.1083475,64.5683277 60.6016559,62.9733436 62.765,60.92 C64.9283442,58.8666564 66.6333271,56.4466806 67.88,53.66 C69.1266729,50.8733194 69.75,47.8300165 69.75,44.53 C69.75,41.2299835 69.1266729,38.1866806 67.88,35.4 C66.6333271,32.6133194 64.9283442,30.1933436 62.765,28.14 C60.6016559,26.0866564 58.1083475,24.4916724 55.285,23.355 C52.4616526,22.2183276 49.4733491,21.65 46.32,21.65 C43.1666509,21.65 40.1783475,22.2183276 37.355,23.355 C34.5316526,24.4916724 32.0566773,26.0866564 29.93,28.14 C27.8033227,30.1933436 26.1166729,32.6133194 24.87,35.4 C23.6233271,38.1866806 23,41.2299835 23,44.53 Z M0.45,44.53 C0.45,38.3699692 1.5866553,32.6316932 3.86,27.315 C6.1333447,21.9983068 9.2866465,17.3600198 13.32,13.4 C17.3533535,9.4399802 22.174972,6.34167785 27.785,4.105 C33.3950281,1.86832215 39.5732996,0.75 46.32,0.75 C52.9933667,0.75 59.1533051,1.86832215 64.8,4.105 C70.4466949,6.34167785 75.3049797,9.4399802 79.375,13.4 C83.4450204,17.3600198 86.6166553,21.9983068 88.89,27.315 C91.1633447,32.6316932 92.3,38.3699692 92.3,44.53 C92.3,50.6900308 91.1633447,56.4283068 88.89,61.745 C86.6166553,67.0616933 83.4450204,71.6999802 79.375,75.66 C75.3049797,79.6200198 70.4466949,82.7183222 64.8,84.955 C59.1533051,87.1916778 52.9933667,88.31 46.32,88.31 C39.5732996,88.31 33.3950281,87.1916778 27.785,84.955 C22.174972,82.7183222 17.3533535,79.6200198 13.32,75.66 C9.2866465,71.6999802 6.1333447,67.0616933 3.86,61.745 C1.5866553,56.4283068 0.45,50.6900308 0.45,44.53 Z M131.1,3.06 L131.1,48.16 C131.1,50.5800121 131.191666,53.0549874 131.375,55.585 C131.558334,58.1150126 132.108329,60.4066564 133.025,62.46 C133.941671,64.5133436 135.38999,66.1816602 137.37,67.465 C139.35001,68.7483397 142.136649,69.39 145.73,69.39 C149.323351,69.39 152.091657,68.7483397 154.035,67.465 C155.978343,66.1816602 157.426662,64.5133436 158.38,62.46 C159.333338,60.4066564 159.901666,58.1150126 160.085,55.585 C160.268334,53.0549874 160.36,50.5800121 160.36,48.16 L160.36,3.06 L181.81,3.06 L181.81,51.13 C181.81,64.0367312 178.858363,73.4599703 172.955,79.4 C167.051637,85.3400297 157.976728,88.31 145.73,88.31 C133.483272,88.31 124.39003,85.3400297 118.45,79.4 C112.50997,73.4599703 109.54,64.0367312 109.54,51.13 L109.54,3.06 L131.1,3.06 Z M223.35,40.13 L227.42,40.13 C231.673355,40.13 234.936655,39.2500088 237.21,37.49 C239.483345,35.7299912 240.62,33.2000165 240.62,29.9 C240.62,26.5999835 239.483345,24.0700088 237.21,22.31 C234.936655,20.5499912 231.673355,19.67 227.42,19.67 L223.35,19.67 L223.35,40.13 Z M270.76,86 L243.92,86 L223.35,54.1 L223.35,86 L201.79,86 L201.79,3.06 L235.34,3.06 C239.960023,3.06 243.993316,3.73832655 247.44,5.095 C250.886684,6.45167345 253.728322,8.3033216 255.965,10.65 C258.201678,12.9966784 259.888328,15.7099846 261.025,18.79 C262.161672,21.8700154 262.73,25.1699824 262.73,28.69 C262.73,34.9966982 261.208349,40.1116471 258.165,44.035 C255.121651,47.958353 250.63003,50.6166597 244.69,52.01 L270.76,86 Z M356.64,21.32 L356.64,86 L335.08,86 L335.08,21.32 L317.37,21.32 L317.37,3.06 L374.35,3.06 L374.35,21.32 L356.64,21.32 Z M435.11,21.32 L409.48,21.32 L409.48,35.18 L433.68,35.18 L433.68,53.44 L409.48,53.44 L409.48,67.74 L435.11,67.74 L435.11,86 L387.92,86 L387.92,3.06 L435.11,3.06 L435.11,21.32 Z M499.72,55.2 L490.04,27.59 L480.36,55.2 L499.72,55.2 Z M505.44,71.59 L474.64,71.59 L469.69,86 L446.7,86 L478.27,3.06 L501.81,3.06 L533.38,86 L510.39,86 L505.44,71.59 Z M543.1,86 L557.18,3.06 L578.52,3.06 L595.13,47.28 L611.63,3.06 L632.97,3.06 L647.05,86 L625.6,86 L618.45,38.26 L598.87,86 L590.29,86 L571.7,38.26 L564.55,86 L543.1,86 Z" id="path-1"></path>
    </defs>
    <g id="Sponsors" stroke="none" stroke-width="1" fill="none" fill-rule="evenodd">
        <g id="gradient-about" transform="translate(-128.000000, -54.000000)">
            <g id="Group-2" transform="translate(128.000000, 51.000000)">
                <mask id="mask-2" fill="white">
                    <use xlink:href="#path-1"></use>
                </mask>
                <g id="Mask"></g>
                <g mask="url(#mask-2)" id="Group" stroke-linecap="square">
                    <g transform="translate(-476.000000, 3.000000)">
                        <g>
                            <path d="M4.14872192,87 C57.6759071,87 74.6221271,79 140.222394,79 C209.231686,79 224.525681,87 309.209869,87 C366.455784,87 408.313519,79 462.401435,79 C520.610929,79 558.313468,87 611.102066,87 C668.416481,87 697.039156,79 758.794158,79 C823.401408,79 842.182631,87 902.694757,87 C963.206883,87 988.615705,79 1048.30943,79 C1110.50778,79 1144.7293,87 1198.44156,87 C1261.61481,87 1280.6498,79.6413913 1334.85128,79.6413913" id="Line-2" stroke="#E81515" stroke-width="3.31114534"></path>
                            <path d="M4.14872192,82 C57.6759071,82 74.6221271,73 140.222394,73 C209.231686,73 224.525681,82 309.209869,82 C366.455784,82 408.313519,73 462.401435,73 C520.610929,73 558.313468,82 611.102066,82 C668.416481,82 697.039156,73 758.794158,73 C823.401408,73 842.182631,82 902.694757,82 C963.206883,82 988.615705,73 1048.30943,73 C1110.50778,73 1144.7293,82 1198.44156,82 C1261.61481,82 1280.6498,73.6632594 1334.85128,73.6632594" id="Line-2" stroke="#E81515" stroke-width="3.31114534"></path>
                            <path d="M4.14872192,76 C57.6759071,76 74.6221271,67 140.222394,67 C209.231686,67 224.525681,76 309.209869,76 C366.455784,76 408.313519,67 462.401435,67 C520.610929,67 558.313468,76 611.102066,76 C668.416481,76 697.039156,67 758.794158,67 C823.401408,67 842.182631,76 902.694757,76 C963.206883,76 988.615705,67 1048.30943,67 C1110.50778,67 1144.7293,76 1198.44156,76 C1261.61481,76 1280.6498,67.6136719 1334.85128,67.6136719" id="Line-2" stroke="#E81515" stroke-width="3.31114534"></path>
                            <path d="M4.14872192,70 C57.6759071,70 74.6221271,60 140.222394,60 C209.231686,60 224.525681,70 309.209869,70 C366.455784,70 408.313519,60 462.401435,60 C520.610929,60 558.313468,70 611.102066,70 C668.416481,70 697.039156,60 758.794158,60 C823.401408,60 842.182631,70 902.694757,70 C963.206883,70 988.615705,60 1048.30943,60 C1110.50778,60 1144.7293,70 1198.44156,70 C1261.61481,70 1280.6498,60.6344258 1334.85128,60.6344258" id="Line-2" stroke="#E81515" stroke-width="3.31114534"></path>
                            <path d="M4.14872192,64 C57.6759071,64 74.6221271,53 140.222394,53 C209.231686,53 224.525681,64 309.209869,64 C366.455784,64 408.313519,53 462.401435,53 C520.610929,53 558.313468,64 611.102066,64 C668.416481,64 697.039156,53 758.794158,53 C823.401408,53 842.182631,64 902.694757,64 C963.206883,64 988.615705,53 1048.30943,53 C1110.50778,53 1144.7293,64 1198.44156,64 C1261.61481,64 1280.6498,53.6524801 1334.85128,53.6524801" id="Line-2" stroke="#E81515" stroke-width="3.31114534"></path>
                            <path d="M4.14872192,58 C57.6759071,58 74.6221271,47 140.222394,47 C209.231686,47 224.525681,58 309.209869,58 C366.455784,58 408.313519,47 462.401435,47 C520.610929,47 558.313468,58 611.102066,58 C668.416481,58 697.039156,47 758.794158,47 C823.401408,47 842.182631,58 902.694757,58 C963.206883,58 988.615705,47 1048.30943,47 C1110.50778,47 1144.7293,58 1198.44156,58 C1261.61481,58 1280.6498,47.6126353 1334.85128,47.6126353" id="Line-2" stroke="#E81515" stroke-width="3.31114534"></path>
                            <path d="M8.29744384,52 C61.824629,52 78.770849,40 144.371116,40 C213.380408,40 228.674403,52 313.358591,52 C370.604506,52 412.462241,40 466.550157,40 C524.759651,40 562.46219,52 615.250788,52 C672.565203,52 701.187878,40 762.94288,40 C827.55013,40 846.331353,52 906.843479,52 C967.355605,52 992.764427,40 1052.45815,40 C1114.6565,40 1148.87802,52 1202.59029,52 C1265.76353,52 1284.79853,40.6362739 1339,40.6362739" id="Line-2" stroke="#E81515" stroke-width="3.31114534"></path>
                            <path d="M8.29744384,46 C61.824629,46 78.770849,33 144.371116,33 C213.380408,33 228.674403,46 313.358591,46 C370.604506,46 412.462241,33 466.550157,33 C524.759651,33 562.46219,46 615.250788,46 C672.565203,46 701.187878,33 762.94288,33 C827.55013,33 846.331353,46 906.843479,46 C967.355605,46 992.764427,33 1052.45815,33 C1114.6565,33 1148.87802,46 1202.59029,46 C1265.76353,46 1284.79853,33.6577486 1339,33.6577486" id="Line-2" stroke="#E81515" stroke-width="3.31114534"></path>
                            <path d="M8.29744384,39 C61.8624516,39 78.8206459,26 144.467267,26 C213.52532,26 228.830123,39 313.574149,39 C370.860514,39 412.747826,26 466.873961,26 C525.124585,26 562.853765,39 615.679664,39 C673.034578,39 701.677477,26 763.476116,26 C828.129018,26 846.923512,39 907.478396,39 C968.03328,39 990.445414,26 1050.18131,26 C1112.42362,26 1146.66932,39 1200.41954,39 C1263.63742,39 1282.68587,26.628962 1336.92564,26.628962" id="Line-2" stroke="#E81515" stroke-width="3.31114534"></path>
                            <path d="M8.29744384,33 C61.8624516,33 78.8206459,20 144.467267,20 C213.52532,20 228.830123,33 313.574149,33 C370.860514,33 412.747826,20 466.873961,20 C525.124585,20 562.853766,33 615.679664,33 C673.034578,33 701.677477,20 763.476116,20 C828.129018,20 846.923512,33 907.478396,33 C968.03328,33 990.445414,20 1050.18131,20 C1112.42362,20 1146.66932,33 1200.41954,33 C1263.63742,33 1282.68587,20.628962 1336.92564,20.628962" id="Line-2" stroke="#E81515" stroke-width="3.31114534"></path>
                            <path d="M8.29744384,27 C61.8624516,27 78.8206459,13 144.467267,13 C213.52532,13 228.830123,27 313.574149,27 C370.860514,27 412.747826,13 466.873961,13 C525.124585,13 562.853766,27 615.679664,27 C673.034578,27 701.677477,13 763.476116,13 C828.129018,13 846.923512,27 907.478396,27 C968.03328,27 990.445414,13 1050.18131,13 C1112.42362,13 1146.66932,27 1200.41954,27 C1263.63742,27 1282.68587,13.6489425 1336.92564,13.6489425" id="Line-2" stroke="#E81515" stroke-width="3.31114534"></path>
                            <path d="M8.29744384,20.4365998 C61.8624516,20.4365998 78.8206459,7 144.467267,7 C213.52532,7 228.830123,21 313.574149,21 C370.860514,21 412.747826,7 466.873961,7 C525.124585,7 562.853766,21 615.679664,21 C673.034578,21 701.677477,7 763.476116,7 C828.129018,7 846.923512,21 907.478396,21 C968.03328,21 990.445414,7 1050.18131,7 C1112.42362,7 1146.66932,21 1200.41954,21 C1263.63742,21 1282.68587,7.62282721 1336.92564,7.62282721" id="Line-2" stroke="#E81515" stroke-width="3.31114534"></path>
                            <path d="M8.29744384,14.4197095 C61.8624516,14.4197095 78.8206459,0 144.467267,0 C213.52532,0 228.830123,15 313.574149,15 C370.860514,15 412.747826,0 466.873961,0 C525.124585,0 562.853766,15 615.679664,15 C673.034578,15 701.677477,0 763.476116,0 C828.129018,0 846.923512,15 907.478396,15 C968.03328,15 990.445414,0 1050.18131,0 C1112.42362,0 1146.66932,15 1200.41954,15 C1263.63742,15 1282.68587,0.641499105 1336.92564,0.641499105" id="Line-2" stroke="#E81515" stroke-width="3.31114534"></path>
                        </g>
                    </g>
                </g>
            </g>
        </g>
    </g>
</svg>