<?xml version="1.0" encoding="UTF-8"?>
<svg width="653px" height="138px" viewBox="0 0 653 138" version="1.1" xmlns="http://www.w3.org/2000/svg" xmlns:xlink="http://www.w3.org/1999/xlink">
    <!-- Generator: Sketch 51.1 (57501) - http://www.bohemiancoding.com/sketch -->
    <title>waves</title>
    <desc>Created with Sketch.</desc>
    <defs>
        <path d="M0,133.551601 L22.3976506,3.61881757 L56.3440898,3.61881757 L82.7663183,72.8933253 L109.013565,3.61881757 L142.960004,3.61881757 L165.357655,133.551601 L131.236234,133.551601 L119.862427,58.7627043 L88.7156942,133.551601 L75.0671259,133.551601 L45.4952278,58.7627043 L34.1214208,133.551601 L0,133.551601 Z M253.876494,85.3006998 L238.47811,42.0472136 L223.079725,85.3006998 L253.876494,85.3006998 Z M262.97554,110.977072 L213.980679,110.977072 L206.106505,133.551601 L169.535341,133.551601 L219.755074,3.61881757 L257.201146,3.61881757 L307.420878,133.551601 L270.849714,133.551601 L262.97554,110.977072 Z M351.844343,57.2117825 L393.664956,3.61881757 L436.010514,3.61881757 L383.691002,65.1387162 L440.91,133.551601 L396.464662,133.551601 L351.844343,77.2014414 L351.844343,133.551601 L317.54794,133.551601 L317.54794,3.61881757 L351.844343,3.61881757 L351.844343,57.2117825 Z M485.508447,3.61881757 L485.508447,133.551601 L451.212045,133.551601 L451.212045,3.61881757 L485.508447,3.61881757 Z M508.234188,133.551601 L508.234188,3.61881757 L542.53059,3.61881757 L605.873946,83.0604794 L605.873946,3.61881757 L639.995367,3.61881757 L639.995367,133.551601 L605.873946,133.551601 L542.53059,54.1099388 L542.53059,133.551601 L508.234188,133.551601 Z M729.389115,60.8306 L797.456975,60.8306 C797.456975,67.7236204 797.165342,73.9846865 796.582067,79.6139865 C795.998792,85.2432864 794.832259,90.470415 793.082434,95.2955292 C790.632678,102.073666 787.30806,108.076248 783.10848,113.303455 C778.908899,118.530662 773.980299,122.896176 768.322531,126.400128 C762.664763,129.90408 756.452976,132.575085 749.686986,134.413224 C742.920995,136.251363 735.805146,137.170418 728.339225,137.170418 C718.073584,137.170418 708.712159,135.50463 700.254671,132.173003 C691.797182,128.841377 684.535517,124.159938 678.469456,118.128545 C672.403395,112.097152 667.678938,104.859589 664.295943,96.4156394 C660.912947,87.9716896 659.221475,78.6375313 659.221475,68.4128845 C659.221475,58.3031214 660.883784,49.026404 664.208452,40.5824541 C667.53312,32.1385043 672.257577,24.929662 678.381965,18.9557111 C684.506353,12.9817601 691.884672,8.32904122 700.517143,4.99741473 C709.149614,1.66578825 718.773509,0 729.389115,0 C743.154406,0 755.228019,2.92948969 765.610315,8.78855695 C775.992612,14.6476242 784.216667,23.7232981 790.282727,36.015851 L757.736141,49.2848488 C754.703111,42.1620611 750.766063,37.0498144 745.92488,33.9479553 C741.083697,30.8460961 735.57183,29.2951898 729.389115,29.2951898 C724.256294,29.2951898 719.590164,30.2429659 715.390583,32.1385465 C711.191003,34.0341271 707.603915,36.7338529 704.629212,40.2378048 C701.654509,43.7417568 699.321444,47.9636684 697.629946,52.9036663 C695.938448,57.8436642 695.092712,63.3579977 695.092712,69.4468323 C695.092712,74.9612486 695.821795,80.0734953 697.279983,84.7837258 C698.738171,89.4939564 700.925419,93.5722656 703.841795,97.0187757 C706.75817,100.465286 710.374421,103.136291 714.690657,105.031872 C719.006892,106.927452 724.022982,107.875228 729.739078,107.875228 C733.122073,107.875228 736.388365,107.501862 739.53805,106.755118 C742.687736,106.008374 745.516577,104.802114 748.02466,103.136301 C750.532743,101.470487 752.603338,99.3164509 754.236508,96.6741264 C755.869679,94.031802 756.977885,90.8151074 757.56116,87.0239462 L729.389115,87.0239462 L729.389115,60.8306 Z M890.853428,3.61881757 L913.601041,87.5409202 L941.598105,3.61881757 L968.895241,3.61881757 L996.892305,87.5409202 L1019.63992,3.61881757 L1055.51116,3.61881757 L1016.14029,133.551601 L981.143957,133.551601 L955.246673,58.2457304 L929.34939,133.551601 L894.35306,133.551601 L854.98219,3.61881757 L890.853428,3.61881757 Z M1129.15656,85.3006998 L1113.75817,42.0472136 L1098.35979,85.3006998 L1129.15656,85.3006998 Z M1138.2556,110.977072 L1089.26074,110.977072 L1081.38657,133.551601 L1044.8154,133.551601 L1095.03513,3.61881757 L1132.48121,3.61881757 L1182.70094,133.551601 L1146.12978,133.551601 L1138.2556,110.977072 Z M1206.12661,3.61881757 L1237.97327,82.7158301 L1269.99491,3.61881757 L1307.266,3.61881757 L1251.62183,133.551601 L1224.3247,133.551601 L1168.85552,3.61881757 L1206.12661,3.61881757 Z M1391.23531,32.2247088 L1350.46459,32.2247088 L1350.46459,53.9376142 L1388.96055,53.9376142 L1388.96055,82.5435054 L1350.46459,82.5435054 L1350.46459,104.945709 L1391.23531,104.945709 L1391.23531,133.551601 L1316.16819,133.551601 L1316.16819,3.61881757 L1391.23531,3.61881757 L1391.23531,32.2247088 Z M1483.42877,36.8774742 C1479.69581,33.8904988 1475.9629,31.6790213 1472.22994,30.2429754 C1468.49698,28.8069295 1464.88073,28.0889173 1461.38108,28.0889173 C1456.94819,28.0889173 1453.33194,29.1228548 1450.53222,31.1907609 C1447.7325,33.258667 1446.33266,35.9583928 1446.33266,39.2900193 C1446.33266,41.5876927 1447.03258,43.4832449 1448.43244,44.9767326 C1449.8323,46.4702203 1451.66959,47.7626423 1453.94436,48.8540371 C1456.21913,49.945432 1458.78551,50.8932081 1461.64355,51.6973938 C1464.5016,52.5015795 1467.33044,53.3631941 1470.13016,54.2822635 C1481.32904,57.958541 1489.52394,62.8697443 1494.71508,69.0160207 C1499.90623,75.1622972 1502.50177,83.1753131 1502.50177,93.0553089 C1502.50177,99.7185618 1501.3644,105.749864 1499.08963,111.149397 C1496.81485,116.548929 1493.49024,121.172928 1489.11567,125.021531 C1484.74111,128.870134 1479.37506,131.857064 1473.01736,133.982412 C1466.65966,136.10776 1459.45632,137.170418 1451.40713,137.170418 C1434.72546,137.170418 1419.2689,132.287935 1405.03699,122.522823 L1419.73545,95.2955292 C1424.86827,99.7759924 1429.94269,103.107569 1434.95885,105.290359 C1439.97502,107.473148 1444.93278,108.564527 1449.83229,108.564527 C1455.43173,108.564527 1459.60209,107.300826 1462.34348,104.773385 C1465.08487,102.245944 1466.45555,99.3738953 1466.45555,96.1571525 C1466.45555,94.2041301 1466.10559,92.5096213 1465.40566,91.0735754 C1464.70573,89.6375295 1463.5392,88.3163871 1461.90603,87.1101086 C1460.27286,85.90383 1458.14393,84.783731 1455.5192,83.749778 C1452.89446,82.7158249 1449.71566,81.5670054 1445.9827,80.303285 C1441.54981,78.924681 1437.20447,77.4024952 1432.94656,75.7366819 C1428.68866,74.0708687 1424.89742,71.8593912 1421.57276,69.1021831 C1418.24809,66.3449749 1415.56506,62.869796 1413.5236,58.676542 C1411.48214,54.483288 1410.46142,49.1699978 1410.46142,42.7365122 C1410.46142,36.3030266 1411.54047,30.4727677 1413.69858,25.2455606 C1415.8567,20.0183536 1418.88969,15.5379576 1422.79763,11.8042383 C1426.70557,8.07051892 1431.48836,5.16974972 1437.14612,3.10184363 C1442.80389,1.03393754 1449.13233,0 1456.13163,0 C1462.66431,0 1469.48853,0.890335101 1476.60448,2.67103201 C1483.72044,4.45172893 1490.54466,7.06529325 1497.07734,10.5118034 L1483.42877,36.8774742 Z" id="path-1"></path>
    </defs>
    <g id="waves" stroke="none" stroke-width="1" fill="none" fill-rule="evenodd">
        <g id="Group-2" transform="translate(-852.000000, -1.000000)">
            <g id="Group">
                <mask id="mask-2" fill="white">
                    <use xlink:href="#path-1"></use>
                </mask>
                <g id="Mask"></g>
                <g id="Group-2" mask="url(#mask-2)" stroke-linecap="square">
                    <g transform="translate(40.000000, -30.000000)" id="Group">
                        <g>
                            <path d="M46.6171049,180.458669 C104.065239,180.458669 122.252796,168.255509 192.658384,168.255509 C266.722713,168.255509 283.137017,180.458669 374.024453,180.458669 C435.46372,180.458669 480.387599,168.255509 538.437538,168.255509 C600.910967,168.255509 641.375275,180.458669 698.03072,180.458669 C759.543505,180.458669 790.262834,168.255509 856.541486,168.255509 C925.881317,168.255509 946.038294,180.458669 1010.98303,180.458669 C1075.92776,180.458669 1103.19782,168.255509 1167.26419,168.255509 C1234.01867,168.255509 1270.74697,180.458669 1328.39374,180.458669 C1396.19452,180.458669 1416.62386,169.233884 1474.79568,169.233884" id="Line-2" stroke="#E81515" stroke-width="5.184"></path>
                            <path d="M46.6171049,171.583644 C104.065239,171.583644 122.252796,158.271106 192.658384,158.271106 C266.722713,158.271106 283.137017,171.583644 374.024453,171.583644 C435.46372,171.583644 480.387599,158.271106 538.437538,158.271106 C600.910967,158.271106 641.375275,171.583644 698.03072,171.583644 C759.543505,171.583644 790.262834,158.271106 856.541486,158.271106 C925.881317,158.271106 946.038294,171.583644 1010.98303,171.583644 C1075.92776,171.583644 1103.19782,158.271106 1167.26419,158.271106 C1234.01867,158.271106 1270.74697,171.583644 1328.39374,171.583644 C1396.19452,171.583644 1416.62386,159.25218 1474.79568,159.25218" id="Line-2" stroke="#E81515" stroke-width="5.184"></path>
                            <path d="M46.6171049,162.708618 C104.065239,162.708618 122.252796,148.286702 192.658384,148.286702 C266.722713,148.286702 283.137017,162.708618 374.024453,162.708618 C435.46372,162.708618 480.387599,148.286702 538.437538,148.286702 C600.910967,148.286702 641.375275,162.708618 698.03072,162.708618 C759.543505,162.708618 790.262834,148.286702 856.541486,148.286702 C925.881317,148.286702 946.038294,162.708618 1010.98303,162.708618 C1075.92776,162.708618 1103.19782,148.286702 1167.26419,148.286702 C1234.01867,148.286702 1270.74697,162.708618 1328.39374,162.708618 C1396.19452,162.708618 1416.62386,149.270072 1474.79568,149.270072" id="Line-2" stroke="#E81515" stroke-width="5.184"></path>
                            <path d="M46.6171049,153.672495 C104.065239,153.672495 122.252796,138.141201 192.658384,138.141201 C266.722713,138.141201 283.137017,153.672495 374.024453,153.672495 C435.46372,153.672495 480.387599,138.141201 538.437538,138.141201 C600.910967,138.141201 641.375275,153.672495 698.03072,153.672495 C759.543505,153.672495 790.262834,138.141201 856.541486,138.141201 C925.881317,138.141201 946.038294,153.672495 1010.98303,153.672495 C1075.92776,153.672495 1103.19782,138.141201 1167.26419,138.141201 C1234.01867,138.141201 1270.74697,153.672495 1328.39374,153.672495 C1396.19452,153.672495 1416.62386,139.126546 1474.79568,139.126546" id="Line-2" stroke="#E81515" stroke-width="5.184"></path>
                            <path d="M46.6171049,143.84919 C104.065239,143.84919 122.252796,127.208517 192.658384,127.208517 C266.722713,127.208517 283.137017,143.84919 374.024453,143.84919 C435.46372,143.84919 480.387599,127.208517 538.437538,127.208517 C600.910967,127.208517 641.375275,143.84919 698.03072,143.84919 C759.543505,143.84919 790.262834,127.208517 856.541486,127.208517 C925.881317,127.208517 946.038294,143.84919 1010.98303,143.84919 C1075.92776,143.84919 1103.19782,127.208517 1167.26419,127.208517 C1234.01867,127.208517 1270.74697,143.84919 1328.39374,143.84919 C1396.19452,143.84919 1416.62386,128.195582 1474.79568,128.195582" id="Line-2" stroke="#E81515" stroke-width="5.184"></path>
                            <path d="M46.6171049,134.982798 C104.065239,134.982798 122.252796,117.232747 192.658384,117.232747 C266.722713,117.232747 283.137017,134.982798 374.024453,134.982798 C435.46372,134.982798 480.387599,117.232747 538.437538,117.232747 C600.910967,117.232747 641.375275,134.982798 698.03072,134.982798 C759.543505,134.982798 790.262834,117.232747 856.541486,117.232747 C925.881317,117.232747 946.038294,134.982798 1010.98303,134.982798 C1075.92776,134.982798 1103.19782,117.232747 1167.26419,117.232747 C1234.01867,117.232747 1270.74697,134.982798 1328.39374,134.982798 C1396.19452,134.982798 1416.62386,118.22132 1474.79568,118.22132" id="Line-2" stroke="#E81515" stroke-width="5.184"></path>
                            <path d="M50.8550235,125.368232 C108.303158,125.368232 126.490715,106.508803 196.896303,106.508803 C270.960631,106.508803 287.374936,125.368232 378.262371,125.368232 C439.701638,125.368232 484.625517,106.508803 542.675456,106.508803 C605.148885,106.508803 645.613194,125.368232 702.268638,125.368232 C763.781423,125.368232 794.500753,106.508803 860.779405,106.508803 C930.119236,106.508803 950.276213,125.368232 1015.22095,125.368232 C1080.16568,125.368232 1107.43574,106.508803 1171.50211,106.508803 C1238.25659,106.508803 1274.98489,125.368232 1332.63166,125.368232 C1400.43244,125.368232 1420.86178,107.508783 1479.0336,107.508783" id="Line-2" stroke="#E81515" stroke-width="5.184"></path>
                            <path d="M50.8550235,116.132136 C108.303158,116.132136 126.490715,96.1633295 196.896303,96.1633295 C270.960631,96.1633295 287.374936,116.132136 378.262371,116.132136 C439.701638,116.132136 484.625517,96.1633295 542.675456,96.1633295 C605.148885,96.1633295 645.613194,116.132136 702.268638,116.132136 C763.781423,116.132136 794.500753,96.1633295 860.779405,96.1633295 C930.119236,96.1633295 950.276213,116.132136 1015.22095,116.132136 C1080.16568,116.132136 1107.43574,96.1633295 1171.50211,96.1633295 C1238.25659,96.1633295 1274.98489,116.132136 1332.63166,116.132136 C1400.43244,116.132136 1420.86178,97.1736722 1479.0336,97.1736722" id="Line-2" stroke="#E81515" stroke-width="5.184"></path>
                            <path d="M50.8550235,106.508803 C108.303158,106.508803 126.490715,85.4306177 196.896303,85.4306177 C270.960631,85.4306177 287.374936,106.508803 378.262371,106.508803 C439.701638,106.508803 484.625517,85.4306177 542.675456,85.4306177 C605.148885,85.4306177 645.613194,106.508803 702.268638,106.508803 C763.781423,106.508803 794.500753,85.4306177 860.779405,85.4306177 C930.119236,85.4306177 950.276213,106.508803 1015.22095,106.508803 C1080.16568,106.508803 1107.43574,85.4306177 1171.50211,85.4306177 C1238.25659,85.4306177 1274.98489,106.508803 1332.63166,106.508803 C1400.43244,106.508803 1420.86178,86.450416 1479.0336,86.450416" id="Line-2" stroke="#E81515" stroke-width="5.184"></path>
                            <path d="M50.8550235,96.1372953 C108.303158,96.1372953 126.490715,75.0591101 196.896303,75.0591101 C270.960631,75.0591101 287.374936,96.1372953 378.262371,96.1372953 C439.701638,96.1372953 484.625517,75.0591101 542.675456,75.0591101 C605.148885,75.0591101 645.613194,96.1372953 702.268638,96.1372953 C763.781423,96.1372953 794.500753,75.0591101 860.779405,75.0591101 C930.119236,75.0591101 950.276213,96.1372953 1015.22095,96.1372953 C1080.16568,96.1372953 1107.43574,75.0591101 1171.50211,75.0591101 C1238.25659,75.0591101 1274.98489,96.1372953 1332.63166,96.1372953 C1400.43244,96.1372953 1420.86178,76.0789084 1479.0336,76.0789084" id="Line-2" stroke="#E81515" stroke-width="5.184"></path>
                            <path d="M50.8550235,87.2709032 C108.303158,87.2709032 126.490715,65.0833399 196.896303,65.0833399 C270.960631,65.0833399 287.374936,87.2709032 378.262371,87.2709032 C439.701638,87.2709032 484.625517,65.0833399 542.675456,65.0833399 C605.148885,65.0833399 645.613194,87.2709032 702.268638,87.2709032 C763.781423,87.2709032 794.500753,65.0833399 860.779405,65.0833399 C930.119236,65.0833399 950.276213,87.2709032 1015.22095,87.2709032 C1080.16568,87.2709032 1107.43574,65.0833399 1171.50211,65.0833399 C1238.25659,65.0833399 1274.98489,87.2709032 1332.63166,87.2709032 C1400.43244,87.2709032 1420.86178,66.1118009 1479.0336,66.1118009" id="Line-2" stroke="#E81515" stroke-width="5.184"></path>
                            <path d="M50.8550235,76.0411719 C108.303158,76.0411719 126.490715,54.7464999 196.896303,54.7464999 C270.960631,54.7464999 287.374936,76.9340632 378.262371,76.9340632 C439.701638,76.9340632 484.625517,54.7464999 542.675456,54.7464999 C605.148885,54.7464999 645.613194,76.9340632 702.268638,76.9340632 C763.781423,76.9340632 794.500753,54.7464999 860.779405,54.7464999 C930.119236,54.7464999 950.276213,76.9340632 1015.22095,76.9340632 C1080.16568,76.9340632 1107.43574,54.7464999 1171.50211,54.7464999 C1238.25659,54.7464999 1274.98489,76.9340632 1332.63166,76.9340632 C1400.43244,76.9340632 1420.86178,55.7335726 1479.0336,55.7335726" id="Line-2" stroke="#E81515" stroke-width="5.184"></path>
                            <path d="M50.8550235,66.4182309 C108.303158,66.4182309 126.490715,44.0225557 196.896303,44.0225557 C270.960631,44.0225557 287.374936,67.3194972 378.262371,67.3194972 C439.701638,67.3194972 484.625517,44.0225557 542.675456,44.0225557 C605.148885,44.0225557 645.613194,67.3194972 702.268638,67.3194972 C763.781423,67.3194972 794.500753,44.0225557 860.779405,44.0225557 C930.119236,44.0225557 950.276213,67.3194972 1015.22095,67.3194972 C1080.16568,67.3194972 1107.43574,44.0225557 1171.50211,44.0225557 C1238.25659,44.0225557 1274.98489,67.3194972 1332.63166,67.3194972 C1400.43244,67.3194972 1420.86178,45.0188868 1479.0336,45.0188868" id="Line-2" stroke="#E81515" stroke-width="5.184"></path>
                            <path d="M50.8550235,56.4223947 C108.303158,56.4223947 126.490715,32.9201408 196.896303,32.9201408 C270.960631,32.9201408 287.374936,57.3264604 378.262371,57.3264604 C439.701638,57.3264604 484.625517,32.9201408 542.675456,32.9201408 C605.148885,32.9201408 645.613194,57.3264604 702.268638,57.3264604 C763.781423,57.3264604 794.500753,32.9201408 860.779405,32.9201408 C930.119236,32.9201408 950.276213,57.3264604 1015.22095,57.3264604 C1080.16568,57.3264604 1107.43574,32.9201408 1171.50211,32.9201408 C1238.25659,32.9201408 1274.98489,57.3264604 1332.63166,57.3264604 C1400.43244,57.3264604 1420.86178,33.9195666 1479.0336,33.9195666" id="Line-2" stroke="#E81515" stroke-width="5.184"></path>
                            <path d="M50.8550235,35.7114759 C108.303158,35.7114759 126.490715,11.102415 196.896303,11.102415 C270.960631,11.102415 287.374936,36.6181128 378.262371,36.6181128 C439.701638,36.6181128 484.625517,11.102415 542.675456,11.102415 C605.148885,11.102415 645.613194,36.6181128 702.268638,36.6181128 C763.781423,36.6181128 794.500753,11.102415 860.779405,11.102415 C930.119236,11.102415 950.276213,36.6181128 1015.22095,36.6181128 C1080.16568,36.6181128 1107.43574,11.102415 1171.50211,11.102415 C1238.25659,11.102415 1274.98489,36.6181128 1332.63166,36.6181128 C1400.43244,36.6181128 1420.86178,12.1046831 1479.0336,12.1046831" id="Line-2" stroke="#E81515" stroke-width="5.184"></path>
                            <path d="M50.8550235,46.43542 C108.303158,46.43542 126.490715,21.8263591 196.896303,21.8263591 C270.960631,21.8263591 287.374936,47.3420569 378.262371,47.3420569 C439.701638,47.3420569 484.625517,21.8263591 542.675456,21.8263591 C605.148885,21.8263591 645.613194,47.3420569 702.268638,47.3420569 C763.781423,47.3420569 794.500753,21.8263591 860.779405,21.8263591 C930.119236,21.8263591 950.276213,47.3420569 1015.22095,47.3420569 C1080.16568,47.3420569 1107.43574,21.8263591 1171.50211,21.8263591 C1238.25659,21.8263591 1274.98489,47.3420569 1332.63166,47.3420569 C1400.43244,47.3420569 1420.86178,22.8286273 1479.0336,22.8286273" id="Line-2" stroke="#E81515" stroke-width="5.184"></path>
                        </g>
                    </g>
                </g>
            </g>
        </g>
    </g>
</svg>