<?xml version="1.0" encoding="UTF-8"?>
<svg width="653px" height="138px" viewBox="0 0 653 138" version="1.1" xmlns="http://www.w3.org/2000/svg" xmlns:xlink="http://www.w3.org/1999/xlink">
    <!-- Generator: Sketch 51.1 (57501) - http://www.bohemiancoding.com/sketch -->
    <title>Artboard 2</title>
    <desc>Created with Sketch.</desc>
    <defs>
        <path d="M0,133.551601 L22.3976506,3.61881757 L56.3440898,3.61881757 L82.7663183,72.8933253 L109.013565,3.61881757 L142.960004,3.61881757 L165.357655,133.551601 L131.236234,133.551601 L119.862427,58.7627043 L88.7156942,133.551601 L75.0671259,133.551601 L45.4952278,58.7627043 L34.1214208,133.551601 L0,133.551601 Z M253.876494,85.3006998 L238.47811,42.0472136 L223.079725,85.3006998 L253.876494,85.3006998 Z M262.97554,110.977072 L213.980679,110.977072 L206.106505,133.551601 L169.535341,133.551601 L219.755074,3.61881757 L257.201146,3.61881757 L307.420878,133.551601 L270.849714,133.551601 L262.97554,110.977072 Z M351.844343,57.2117825 L393.664956,3.61881757 L436.010514,3.61881757 L383.691002,65.1387162 L440.91,133.551601 L396.464662,133.551601 L351.844343,77.2014414 L351.844343,133.551601 L317.54794,133.551601 L317.54794,3.61881757 L351.844343,3.61881757 L351.844343,57.2117825 Z M485.508447,3.61881757 L485.508447,133.551601 L451.212045,133.551601 L451.212045,3.61881757 L485.508447,3.61881757 Z M508.234188,133.551601 L508.234188,3.61881757 L542.53059,3.61881757 L605.873946,83.0604794 L605.873946,3.61881757 L639.995367,3.61881757 L639.995367,133.551601 L605.873946,133.551601 L542.53059,54.1099388 L542.53059,133.551601 L508.234188,133.551601 Z M729.389115,60.8306 L797.456975,60.8306 C797.456975,67.7236204 797.165342,73.9846865 796.582067,79.6139865 C795.998792,85.2432864 794.832259,90.470415 793.082434,95.2955292 C790.632678,102.073666 787.30806,108.076248 783.10848,113.303455 C778.908899,118.530662 773.980299,122.896176 768.322531,126.400128 C762.664763,129.90408 756.452976,132.575085 749.686986,134.413224 C742.920995,136.251363 735.805146,137.170418 728.339225,137.170418 C718.073584,137.170418 708.712159,135.50463 700.254671,132.173003 C691.797182,128.841377 684.535517,124.159938 678.469456,118.128545 C672.403395,112.097152 667.678938,104.859589 664.295943,96.4156394 C660.912947,87.9716896 659.221475,78.6375313 659.221475,68.4128845 C659.221475,58.3031214 660.883784,49.026404 664.208452,40.5824541 C667.53312,32.1385043 672.257577,24.929662 678.381965,18.9557111 C684.506353,12.9817601 691.884672,8.32904122 700.517143,4.99741473 C709.149614,1.66578825 718.773509,0 729.389115,0 C743.154406,0 755.228019,2.92948969 765.610315,8.78855695 C775.992612,14.6476242 784.216667,23.7232981 790.282727,36.015851 L757.736141,49.2848488 C754.703111,42.1620611 750.766063,37.0498144 745.92488,33.9479553 C741.083697,30.8460961 735.57183,29.2951898 729.389115,29.2951898 C724.256294,29.2951898 719.590164,30.2429659 715.390583,32.1385465 C711.191003,34.0341271 707.603915,36.7338529 704.629212,40.2378048 C701.654509,43.7417568 699.321444,47.9636684 697.629946,52.9036663 C695.938448,57.8436642 695.092712,63.3579977 695.092712,69.4468323 C695.092712,74.9612486 695.821795,80.0734953 697.279983,84.7837258 C698.738171,89.4939564 700.925419,93.5722656 703.841795,97.0187757 C706.75817,100.465286 710.374421,103.136291 714.690657,105.031872 C719.006892,106.927452 724.022982,107.875228 729.739078,107.875228 C733.122073,107.875228 736.388365,107.501862 739.53805,106.755118 C742.687736,106.008374 745.516577,104.802114 748.02466,103.136301 C750.532743,101.470487 752.603338,99.3164509 754.236508,96.6741264 C755.869679,94.031802 756.977885,90.8151074 757.56116,87.0239462 L729.389115,87.0239462 L729.389115,60.8306 Z M890.853428,3.61881757 L913.601041,87.5409202 L941.598105,3.61881757 L968.895241,3.61881757 L996.892305,87.5409202 L1019.63992,3.61881757 L1055.51116,3.61881757 L1016.14029,133.551601 L981.143957,133.551601 L955.246673,58.2457304 L929.34939,133.551601 L894.35306,133.551601 L854.98219,3.61881757 L890.853428,3.61881757 Z M1129.15656,85.3006998 L1113.75817,42.0472136 L1098.35979,85.3006998 L1129.15656,85.3006998 Z M1138.2556,110.977072 L1089.26074,110.977072 L1081.38657,133.551601 L1044.8154,133.551601 L1095.03513,3.61881757 L1132.48121,3.61881757 L1182.70094,133.551601 L1146.12978,133.551601 L1138.2556,110.977072 Z M1206.12661,3.61881757 L1237.97327,82.7158301 L1269.99491,3.61881757 L1307.266,3.61881757 L1251.62183,133.551601 L1224.3247,133.551601 L1168.85552,3.61881757 L1206.12661,3.61881757 Z M1391.23531,32.2247088 L1350.46459,32.2247088 L1350.46459,53.9376142 L1388.96055,53.9376142 L1388.96055,82.5435054 L1350.46459,82.5435054 L1350.46459,104.945709 L1391.23531,104.945709 L1391.23531,133.551601 L1316.16819,133.551601 L1316.16819,3.61881757 L1391.23531,3.61881757 L1391.23531,32.2247088 Z M1483.42877,36.8774742 C1479.69581,33.8904988 1475.9629,31.6790213 1472.22994,30.2429754 C1468.49698,28.8069295 1464.88073,28.0889173 1461.38108,28.0889173 C1456.94819,28.0889173 1453.33194,29.1228548 1450.53222,31.1907609 C1447.7325,33.258667 1446.33266,35.9583928 1446.33266,39.2900193 C1446.33266,41.5876927 1447.03258,43.4832449 1448.43244,44.9767326 C1449.8323,46.4702203 1451.66959,47.7626423 1453.94436,48.8540371 C1456.21913,49.945432 1458.78551,50.8932081 1461.64355,51.6973938 C1464.5016,52.5015795 1467.33044,53.3631941 1470.13016,54.2822635 C1481.32904,57.958541 1489.52394,62.8697443 1494.71508,69.0160207 C1499.90623,75.1622972 1502.50177,83.1753131 1502.50177,93.0553089 C1502.50177,99.7185618 1501.3644,105.749864 1499.08963,111.149397 C1496.81485,116.548929 1493.49024,121.172928 1489.11567,125.021531 C1484.74111,128.870134 1479.37506,131.857064 1473.01736,133.982412 C1466.65966,136.10776 1459.45632,137.170418 1451.40713,137.170418 C1434.72546,137.170418 1419.2689,132.287935 1405.03699,122.522823 L1419.73545,95.2955292 C1424.86827,99.7759924 1429.94269,103.107569 1434.95885,105.290359 C1439.97502,107.473148 1444.93278,108.564527 1449.83229,108.564527 C1455.43173,108.564527 1459.60209,107.300826 1462.34348,104.773385 C1465.08487,102.245944 1466.45555,99.3738953 1466.45555,96.1571525 C1466.45555,94.2041301 1466.10559,92.5096213 1465.40566,91.0735754 C1464.70573,89.6375295 1463.5392,88.3163871 1461.90603,87.1101086 C1460.27286,85.90383 1458.14393,84.783731 1455.5192,83.749778 C1452.89446,82.7158249 1449.71566,81.5670054 1445.9827,80.303285 C1441.54981,78.924681 1437.20447,77.4024952 1432.94656,75.7366819 C1428.68866,74.0708687 1424.89742,71.8593912 1421.57276,69.1021831 C1418.24809,66.3449749 1415.56506,62.869796 1413.5236,58.676542 C1411.48214,54.483288 1410.46142,49.1699978 1410.46142,42.7365122 C1410.46142,36.3030266 1411.54047,30.4727677 1413.69858,25.2455606 C1415.8567,20.0183536 1418.88969,15.5379576 1422.79763,11.8042383 C1426.70557,8.07051892 1431.48836,5.16974972 1437.14612,3.10184363 C1442.80389,1.03393754 1449.13233,0 1456.13163,0 C1462.66431,0 1469.48853,0.890335101 1476.60448,2.67103201 C1483.72044,4.45172893 1490.54466,7.06529325 1497.07734,10.5118034 L1483.42877,36.8774742 Z" id="path-1"></path>
    </defs>
    <g id="Artboard-2" stroke="none" stroke-width="1" fill="none" fill-rule="evenodd">
        <g id="Group-2" transform="translate(-852.000000, -1.000000)">
            <g id="Group">
                <mask id="mask-2" fill="white">
                    <use xlink:href="#path-1"></use>
                </mask>
                <g id="Mask"></g>
                <g id="Group-2" mask="url(#mask-2)" stroke-linecap="square">
                    <g transform="translate(-67.000000, 0.000000)" id="Group">
                        <g>
                            <path d="M49.8772553,153.672495 C111.343004,153.672495 130.802501,138.141201 206.131879,138.141201 C285.37587,138.141201 302.938103,153.672495 400.181718,153.672495 C465.917718,153.672495 513.983333,138.141201 576.092973,138.141201 C642.935459,138.141201 686.229625,153.672495 746.847247,153.672495 C812.661907,153.672495 845.529581,138.141201 916.443407,138.141201 C990.632495,138.141201 1012.19914,153.672495 1081.68576,153.672495 C1151.17238,153.672495 1180.34956,138.141201 1248.8964,138.141201 C1320.31932,138.141201 1359.61621,153.672495 1421.29448,153.672495 C1493.83689,153.672495 1515.69495,139.126546 1577.93499,139.126546" id="Line-2" stroke="#E81515" stroke-width="5.184"></path>
                            <path d="M49.8772553,143.84919 C111.343004,143.84919 130.802501,127.208517 206.131879,127.208517 C285.37587,127.208517 302.938103,143.84919 400.181718,143.84919 C465.917718,143.84919 513.983333,127.208517 576.092973,127.208517 C642.935459,127.208517 686.229625,143.84919 746.847247,143.84919 C812.661907,143.84919 845.529581,127.208517 916.443407,127.208517 C990.632495,127.208517 1012.19914,143.84919 1081.68576,143.84919 C1151.17238,143.84919 1180.34956,127.208517 1248.8964,127.208517 C1320.31932,127.208517 1359.61621,143.84919 1421.29448,143.84919 C1493.83689,143.84919 1515.69495,128.195582 1577.93499,128.195582" id="Line-2" stroke="#E81515" stroke-width="5.184"></path>
                            <path d="M49.8772553,134.982798 C111.343004,134.982798 130.802501,117.232747 206.131879,117.232747 C285.37587,117.232747 302.938103,134.982798 400.181718,134.982798 C465.917718,134.982798 513.983333,117.232747 576.092973,117.232747 C642.935459,117.232747 686.229625,134.982798 746.847247,134.982798 C812.661907,134.982798 845.529581,117.232747 916.443407,117.232747 C990.632495,117.232747 1012.19914,134.982798 1081.68576,134.982798 C1151.17238,134.982798 1180.34956,117.232747 1248.8964,117.232747 C1320.31932,117.232747 1359.61621,134.982798 1421.29448,134.982798 C1493.83689,134.982798 1515.69495,118.22132 1577.93499,118.22132" id="Line-2" stroke="#E81515" stroke-width="5.184"></path>
                            <path d="M54.4115513,125.368232 C115.8773,125.368232 135.336797,106.508803 210.666175,106.508803 C289.910166,106.508803 307.472399,125.368232 404.716014,125.368232 C470.452014,125.368232 518.517628,106.508803 580.627269,106.508803 C647.469755,106.508803 690.763921,125.368232 751.381543,125.368232 C817.196203,125.368232 850.063877,106.508803 920.977703,106.508803 C995.16679,106.508803 1016.73344,125.368232 1086.22006,125.368232 C1155.70668,125.368232 1184.88386,106.508803 1253.43069,106.508803 C1324.85362,106.508803 1364.1505,125.368232 1425.82878,125.368232 C1498.37118,125.368232 1520.22924,107.508783 1582.46928,107.508783" id="Line-2" stroke="#E81515" stroke-width="5.184"></path>
                            <path d="M54.4115513,116.132136 C115.8773,116.132136 135.336797,96.1633295 210.666175,96.1633295 C289.910166,96.1633295 307.472399,116.132136 404.716014,116.132136 C470.452014,116.132136 518.517628,96.1633295 580.627269,96.1633295 C647.469755,96.1633295 690.763921,116.132136 751.381543,116.132136 C817.196203,116.132136 850.063877,96.1633295 920.977703,96.1633295 C995.16679,96.1633295 1016.73344,116.132136 1086.22006,116.132136 C1155.70668,116.132136 1184.88386,96.1633295 1253.43069,96.1633295 C1324.85362,96.1633295 1364.1505,116.132136 1425.82878,116.132136 C1498.37118,116.132136 1520.22924,97.1736722 1582.46928,97.1736722" id="Line-2" stroke="#E81515" stroke-width="5.184"></path>
                            <path d="M54.4115513,106.508803 C115.8773,106.508803 135.336797,85.4306177 210.666175,85.4306177 C289.910166,85.4306177 307.472399,106.508803 404.716014,106.508803 C470.452014,106.508803 518.517628,85.4306177 580.627269,85.4306177 C647.469755,85.4306177 690.763921,106.508803 751.381543,106.508803 C817.196203,106.508803 850.063877,85.4306177 920.977703,85.4306177 C995.16679,85.4306177 1016.73344,106.508803 1086.22006,106.508803 C1155.70668,106.508803 1184.88386,85.4306177 1253.43069,85.4306177 C1324.85362,85.4306177 1364.1505,106.508803 1425.82878,106.508803 C1498.37118,106.508803 1520.22924,86.450416 1582.46928,86.450416" id="Line-2" stroke="#E81515" stroke-width="5.184"></path>
                            <path d="M54.4115513,96.1372953 C115.8773,96.1372953 135.336797,75.0591101 210.666175,75.0591101 C289.910166,75.0591101 307.472399,96.1372953 404.716014,96.1372953 C470.452014,96.1372953 518.517628,75.0591101 580.627269,75.0591101 C647.469755,75.0591101 690.763921,96.1372953 751.381543,96.1372953 C817.196203,96.1372953 850.063877,75.0591101 920.977703,75.0591101 C995.16679,75.0591101 1016.73344,96.1372953 1086.22006,96.1372953 C1155.70668,96.1372953 1184.88386,75.0591101 1253.43069,75.0591101 C1324.85362,75.0591101 1364.1505,96.1372953 1425.82878,96.1372953 C1498.37118,96.1372953 1520.22924,76.0789084 1582.46928,76.0789084" id="Line-2" stroke="#E81515" stroke-width="5.184"></path>
                            <path d="M54.4115513,87.2709032 C115.8773,87.2709032 135.336797,65.0833399 210.666175,65.0833399 C289.910166,65.0833399 307.472399,87.2709032 404.716014,87.2709032 C470.452014,87.2709032 518.517628,65.0833399 580.627269,65.0833399 C647.469755,65.0833399 690.763921,87.2709032 751.381543,87.2709032 C817.196203,87.2709032 850.063877,65.0833399 920.977703,65.0833399 C995.16679,65.0833399 1016.73344,87.2709032 1086.22006,87.2709032 C1155.70668,87.2709032 1184.88386,65.0833399 1253.43069,65.0833399 C1324.85362,65.0833399 1364.1505,87.2709032 1425.82878,87.2709032 C1498.37118,87.2709032 1520.22924,66.1118009 1582.46928,66.1118009" id="Line-2" stroke="#E81515" stroke-width="5.184"></path>
                            <path d="M54.4115513,76.0411719 C115.8773,76.0411719 135.336797,54.7464999 210.666175,54.7464999 C289.910166,54.7464999 307.472399,76.9340632 404.716014,76.9340632 C470.452014,76.9340632 518.517628,54.7464999 580.627269,54.7464999 C647.469755,54.7464999 690.763921,76.9340632 751.381543,76.9340632 C817.196203,76.9340632 850.063877,54.7464999 920.977703,54.7464999 C995.16679,54.7464999 1016.73344,76.9340632 1086.22006,76.9340632 C1155.70668,76.9340632 1184.88386,54.7464999 1253.43069,54.7464999 C1324.85362,54.7464999 1364.1505,76.9340632 1425.82878,76.9340632 C1498.37118,76.9340632 1520.22924,55.7335726 1582.46928,55.7335726" id="Line-2" stroke="#E81515" stroke-width="5.184"></path>
                            <path d="M54.4115513,66.4182309 C115.8773,66.4182309 135.336797,44.0225557 210.666175,44.0225557 C289.910166,44.0225557 307.472399,67.3194972 404.716014,67.3194972 C470.452014,67.3194972 518.517628,44.0225557 580.627269,44.0225557 C647.469755,44.0225557 690.763921,67.3194972 751.381543,67.3194972 C817.196203,67.3194972 850.063877,44.0225557 920.977703,44.0225557 C995.16679,44.0225557 1016.73344,67.3194972 1086.22006,67.3194972 C1155.70668,67.3194972 1184.88386,44.0225557 1253.43069,44.0225557 C1324.85362,44.0225557 1364.1505,67.3194972 1425.82878,67.3194972 C1498.37118,67.3194972 1520.22924,45.0188868 1582.46928,45.0188868" id="Line-2" stroke="#E81515" stroke-width="5.184"></path>
                            <path d="M54.4115513,56.4223947 C115.8773,56.4223947 135.336797,32.9201408 210.666175,32.9201408 C289.910166,32.9201408 307.472399,57.3264604 404.716014,57.3264604 C470.452014,57.3264604 518.517628,32.9201408 580.627269,32.9201408 C647.469755,32.9201408 690.763921,57.3264604 751.381543,57.3264604 C817.196203,57.3264604 850.063877,32.9201408 920.977703,32.9201408 C995.16679,32.9201408 1016.73344,57.3264604 1086.22006,57.3264604 C1155.70668,57.3264604 1184.88386,32.9201408 1253.43069,32.9201408 C1324.85362,32.9201408 1364.1505,57.3264604 1425.82878,57.3264604 C1498.37118,57.3264604 1520.22924,33.9195666 1582.46928,33.9195666" id="Line-2" stroke="#E81515" stroke-width="5.184"></path>
                            <path d="M54.4115513,35.7114759 C115.8773,35.7114759 135.336797,11.102415 210.666175,11.102415 C289.910166,11.102415 307.472399,36.6181128 404.716014,36.6181128 C470.452014,36.6181128 518.517628,11.102415 580.627269,11.102415 C647.469755,11.102415 690.763921,36.6181128 751.381543,36.6181128 C817.196203,36.6181128 850.063877,11.102415 920.977703,11.102415 C995.16679,11.102415 1016.73344,36.6181128 1086.22006,36.6181128 C1155.70668,36.6181128 1184.88386,11.102415 1253.43069,11.102415 C1324.85362,11.102415 1364.1505,36.6181128 1425.82878,36.6181128 C1498.37118,36.6181128 1520.22924,12.1046831 1582.46928,12.1046831" id="Line-2" stroke="#E81515" stroke-width="5.184"></path>
                            <path d="M54.4115513,46.43542 C115.8773,46.43542 135.336797,21.8263591 210.666175,21.8263591 C289.910166,21.8263591 307.472399,47.3420569 404.716014,47.3420569 C470.452014,47.3420569 518.517628,21.8263591 580.627269,21.8263591 C647.469755,21.8263591 690.763921,47.3420569 751.381543,47.3420569 C817.196203,47.3420569 850.063877,21.8263591 920.977703,21.8263591 C995.16679,21.8263591 1016.73344,47.3420569 1086.22006,47.3420569 C1155.70668,47.3420569 1184.88386,21.8263591 1253.43069,21.8263591 C1324.85362,21.8263591 1364.1505,47.3420569 1425.82878,47.3420569 C1498.37118,47.3420569 1520.22924,22.8286273 1582.46928,22.8286273" id="Line-2" stroke="#E81515" stroke-width="5.184"></path>
                            <path d="M55.6321932,25.7160693 C117.097942,25.7160693 136.557439,0 211.886817,0 C291.130808,0 308.693041,26.625076 405.936656,26.625076 C471.672656,26.625076 519.73827,0 581.847911,0 C648.690397,0 691.984563,26.625076 752.602185,26.625076 C818.416845,26.625076 851.284519,0 922.198345,0 C996.387432,0 1017.95408,26.625076 1087.4407,26.625076 C1156.92732,26.625076 1186.1045,0 1254.65133,0 C1326.07426,0 1365.37114,26.625076 1427.04942,26.625076 C1499.59182,26.625076 1521.44988,1.00488797 1583.68992,1.00488797" id="Line-2" stroke="#E81515" stroke-width="5.184"></path>
                        </g>
                    </g>
                </g>
            </g>
        </g>
    </g>
</svg>