<?xml version="1.0" encoding="UTF-8"?>
<svg width="494px" height="349px" viewBox="0 0 494 349" version="1.1" xmlns="http://www.w3.org/2000/svg" xmlns:xlink="http://www.w3.org/1999/xlink">
    <!-- Generator: Sketch 51.1 (57501) - http://www.bohemiancoding.com/sketch -->
    <title>Group</title>
    <desc>Created with Sketch.</desc>
    <defs>
        <rect id="path-1" x="0" y="0" width="494" height="377"></rect>
    </defs>
    <g id="Hero/Landing" stroke="none" stroke-width="1" fill="none" fill-rule="evenodd">
        <g id="Desktop-HD" transform="translate(-89.000000, -2030.000000)">
            <g id="Group" transform="translate(89.000000, 2002.000000)">
                <mask id="mask-2" fill="white">
                    <use xlink:href="#path-1"></use>
                </mask>
                <g id="Mask"></g>
                <g id="Group-2" mask="url(#mask-2)" stroke-linecap="square">
                    <g transform="translate(-120.000000, 31.000000)" id="Group">
                        <g>
                            <path d="M46.2819492,343.755911 C103.317058,343.755911 121.373854,317.085166 191.273259,317.085166 C264.805098,317.085166 281.101392,343.755911 371.335388,343.755911 C432.332935,343.755911 476.933831,317.085166 534.566418,317.085166 C596.590692,317.085166 636.764081,343.755911 693.012198,343.755911 C754.082735,343.755911 784.581206,317.085166 850.383345,317.085166 C919.224654,317.085166 939.236712,343.755911 1003.71452,343.755911 C1068.19233,343.755911 1095.26633,317.085166 1158.8721,317.085166 C1225.14664,317.085166 1261.61088,343.755911 1318.8432,343.755911 C1386.15652,343.755911 1406.43899,319.050679 1464.19257,319.050679" id="Line-2" stroke="#7CD2FF" stroke-width="5.184"></path>
                            <path d="M46.2819492,325.975414 C103.317058,325.975414 121.373854,297.082107 191.273259,297.082107 C264.805098,297.082107 281.101392,325.975414 371.335388,325.975414 C432.332935,325.975414 476.933831,297.082107 534.566418,297.082107 C596.590692,297.082107 636.764081,325.975414 693.012198,325.975414 C754.082735,325.975414 784.581206,297.082107 850.383345,297.082107 C919.224654,297.082107 939.236712,325.975414 1003.71452,325.975414 C1068.19233,325.975414 1095.26633,297.082107 1158.8721,297.082107 C1225.14664,297.082107 1261.61088,325.975414 1318.8432,325.975414 C1386.15652,325.975414 1406.43899,299.052219 1464.19257,299.052219" id="Line-2" stroke="#7CD2FF" stroke-width="5.184"></path>
                            <path d="M46.2819492,307.872169 C103.317058,307.872169 121.373854,276.7563 191.273259,276.7563 C264.805098,276.7563 281.101392,307.872169 371.335388,307.872169 C432.332935,307.872169 476.933831,276.7563 534.566418,276.7563 C596.590692,276.7563 636.764081,307.872169 693.012198,307.872169 C754.082735,307.872169 784.581206,276.7563 850.383345,276.7563 C919.224654,276.7563 939.236712,307.872169 1003.71452,307.872169 C1068.19233,307.872169 1095.26633,276.7563 1158.8721,276.7563 C1225.14664,276.7563 1261.61088,307.872169 1318.8432,307.872169 C1386.15652,307.872169 1406.43899,278.730371 1464.19257,278.730371" id="Line-2" stroke="#7CD2FF" stroke-width="5.184"></path>
                            <path d="M46.2819492,288.191859 C103.317058,288.191859 121.373854,254.853427 191.273259,254.853427 C264.805098,254.853427 281.101392,288.191859 371.335388,288.191859 C432.332935,288.191859 476.933831,254.853427 534.566418,254.853427 C596.590692,254.853427 636.764081,288.191859 693.012198,288.191859 C754.082735,288.191859 784.581206,254.853427 850.383345,254.853427 C919.224654,254.853427 939.236712,288.191859 1003.71452,288.191859 C1068.19233,288.191859 1095.26633,254.853427 1158.8721,254.853427 C1225.14664,254.853427 1261.61088,288.191859 1318.8432,288.191859 C1386.15652,288.191859 1406.43899,256.830942 1464.19257,256.830942" id="Line-2" stroke="#7CD2FF" stroke-width="5.184"></path>
                            <path d="M46.2819492,270.428658 C103.317058,270.428658 121.373854,234.867665 191.273259,234.867665 C264.805098,234.867665 281.101392,270.428658 371.335388,270.428658 C432.332935,270.428658 476.933831,234.867665 534.566418,234.867665 C596.590692,234.867665 636.764081,270.428658 693.012198,270.428658 C754.082735,270.428658 784.581206,234.867665 850.383345,234.867665 C919.224654,234.867665 939.236712,270.428658 1003.71452,270.428658 C1068.19233,270.428658 1095.26633,234.867665 1158.8721,234.867665 C1225.14664,234.867665 1261.61088,270.428658 1318.8432,270.428658 C1386.15652,270.428658 1406.43899,236.848203 1464.19257,236.848203" id="Line-2" stroke="#7CD2FF" stroke-width="5.184"></path>
                            <path d="M50.4893991,251.166543 C107.524508,251.166543 125.581304,213.382988 195.480709,213.382988 C269.012548,213.382988 285.308842,251.166543 375.542838,251.166543 C436.540385,251.166543 481.141281,213.382988 538.773868,213.382988 C600.798142,213.382988 640.971531,251.166543 697.219648,251.166543 C758.290184,251.166543 788.788656,213.382988 854.590795,213.382988 C923.432104,213.382988 943.444161,251.166543 1007.92197,251.166543 C1072.39978,251.166543 1099.47378,213.382988 1163.07955,213.382988 C1229.35409,213.382988 1265.81833,251.166543 1323.05065,251.166543 C1390.36397,251.166543 1410.64644,215.386378 1468.40002,215.386378" id="Line-2" stroke="#7CD2FF" stroke-width="5.184"></path>
                            <path d="M50.4893991,232.662668 C107.524508,232.662668 125.581304,192.65655 195.480709,192.65655 C269.012548,192.65655 285.308842,232.662668 375.542838,232.662668 C436.540385,232.662668 481.141281,192.65655 538.773868,192.65655 C600.798142,192.65655 640.971531,232.662668 697.219648,232.662668 C758.290184,232.662668 788.788656,192.65655 854.590795,192.65655 C923.432104,192.65655 943.444161,232.662668 1007.92197,232.662668 C1072.39978,232.662668 1099.47378,192.65655 1163.07955,192.65655 C1229.35409,192.65655 1265.81833,232.662668 1323.05065,232.662668 C1390.36397,232.662668 1410.64644,194.680702 1468.40002,194.680702" id="Line-2" stroke="#7CD2FF" stroke-width="5.184"></path>
                            <path d="M50.4893991,213.382988 C107.524508,213.382988 125.581304,171.154308 195.480709,171.154308 C269.012548,171.154308 285.308842,213.382988 375.542838,213.382988 C436.540385,213.382988 481.141281,171.154308 538.773868,171.154308 C600.798142,171.154308 640.971531,213.382988 697.219648,213.382988 C758.290184,213.382988 788.788656,171.154308 854.590795,171.154308 C923.432104,171.154308 943.444161,213.382988 1007.92197,213.382988 C1072.39978,213.382988 1099.47378,171.154308 1163.07955,171.154308 C1229.35409,171.154308 1265.81833,213.382988 1323.05065,213.382988 C1390.36397,213.382988 1410.64644,173.197403 1468.40002,173.197403" id="Line-2" stroke="#7CD2FF" stroke-width="5.184"></path>
                            <path d="M50.4893991,192.604393 C107.524508,192.604393 125.581304,150.375713 195.480709,150.375713 C269.012548,150.375713 285.308842,192.604393 375.542838,192.604393 C436.540385,192.604393 481.141281,150.375713 538.773868,150.375713 C600.798142,150.375713 640.971531,192.604393 697.219648,192.604393 C758.290184,192.604393 788.788656,150.375713 854.590795,150.375713 C923.432104,150.375713 943.444161,192.604393 1007.92197,192.604393 C1072.39978,192.604393 1099.47378,150.375713 1163.07955,150.375713 C1229.35409,150.375713 1265.81833,192.604393 1323.05065,192.604393 C1390.36397,192.604393 1410.64644,152.418808 1468.40002,152.418808" id="Line-2" stroke="#7CD2FF" stroke-width="5.184"></path>
                            <path d="M50.4893991,174.841192 C107.524508,174.841192 125.581304,130.38995 195.480709,130.38995 C269.012548,130.38995 285.308842,174.841192 375.542838,174.841192 C436.540385,174.841192 481.141281,130.38995 538.773868,130.38995 C600.798142,130.38995 640.971531,174.841192 697.219648,174.841192 C758.290184,174.841192 788.788656,130.38995 854.590795,130.38995 C923.432104,130.38995 943.444161,174.841192 1007.92197,174.841192 C1072.39978,174.841192 1099.47378,130.38995 1163.07955,130.38995 C1229.35409,130.38995 1265.81833,174.841192 1323.05065,174.841192 C1390.36397,174.841192 1410.64644,132.4504 1468.40002,132.4504" id="Line-2" stroke="#7CD2FF" stroke-width="5.184"></path>
                            <path d="M50.4893991,152.343205 C107.524508,152.343205 125.581304,109.680809 195.480709,109.680809 C269.012548,109.680809 285.308842,154.132051 375.542838,154.132051 C436.540385,154.132051 481.141281,109.680809 538.773868,109.680809 C600.798142,109.680809 640.971531,154.132051 697.219648,154.132051 C758.290184,154.132051 788.788656,109.680809 854.590795,109.680809 C923.432104,109.680809 943.444161,154.132051 1007.92197,154.132051 C1072.39978,154.132051 1099.47378,109.680809 1163.07955,109.680809 C1229.35409,109.680809 1265.81833,154.132051 1323.05065,154.132051 C1390.36397,154.132051 1410.64644,111.658341 1468.40002,111.658341" id="Line-2" stroke="#7CD2FF" stroke-width="5.184"></path>
                            <path d="M50.4893991,133.064312 C107.524508,133.064312 125.581304,88.1961322 195.480709,88.1961322 C269.012548,88.1961322 285.308842,134.869936 375.542838,134.869936 C436.540385,134.869936 481.141281,88.1961322 538.773868,88.1961322 C600.798142,88.1961322 640.971531,134.869936 697.219648,134.869936 C758.290184,134.869936 788.788656,88.1961322 854.590795,88.1961322 C923.432104,88.1961322 943.444161,134.869936 1007.92197,134.869936 C1072.39978,134.869936 1099.47378,88.1961322 1163.07955,88.1961322 C1229.35409,88.1961322 1265.81833,134.869936 1323.05065,134.869936 C1390.36397,134.869936 1410.64644,90.1922124 1468.40002,90.1922124" id="Line-2" stroke="#7CD2FF" stroke-width="5.184"></path>
                            <path d="M50.4893991,113.038348 C107.524508,113.038348 125.581304,65.9532151 195.480709,65.9532151 C269.012548,65.9532151 285.308842,114.849581 375.542838,114.849581 C436.540385,114.849581 481.141281,65.9532151 538.773868,65.9532151 C600.798142,65.9532151 640.971531,114.849581 697.219648,114.849581 C758.290184,114.849581 788.788656,65.9532151 854.590795,65.9532151 C923.432104,65.9532151 943.444161,114.849581 1007.92197,114.849581 C1072.39978,114.849581 1099.47378,65.9532151 1163.07955,65.9532151 C1229.35409,65.9532151 1265.81833,114.849581 1323.05065,114.849581 C1390.36397,114.849581 1410.64644,67.9554953 1468.40002,67.9554953" id="Line-2" stroke="#7CD2FF" stroke-width="5.184"></path>
                            <path d="M50.4893991,71.5454611 C107.524508,71.5454611 125.581304,22.2429171 195.480709,22.2429171 C269.012548,22.2429171 285.308842,73.3618451 375.542838,73.3618451 C436.540385,73.3618451 481.141281,22.2429171 538.773868,22.2429171 C600.798142,22.2429171 640.971531,73.3618451 697.219648,73.3618451 C758.290184,73.3618451 788.788656,22.2429171 854.590795,22.2429171 C923.432104,22.2429171 943.444161,73.3618451 1007.92197,73.3618451 C1072.39978,73.3618451 1099.47378,22.2429171 1163.07955,22.2429171 C1229.35409,22.2429171 1265.81833,73.3618451 1323.05065,73.3618451 C1390.36397,73.3618451 1410.64644,24.2508918 1468.40002,24.2508918" id="Line-2" stroke="#7CD2FF" stroke-width="5.184"></path>
                            <path d="M50.4893991,93.0301382 C107.524508,93.0301382 125.581304,43.7275942 195.480709,43.7275942 C269.012548,43.7275942 285.308842,94.8465223 375.542838,94.8465223 C436.540385,94.8465223 481.141281,43.7275942 538.773868,43.7275942 C600.798142,43.7275942 640.971531,94.8465223 697.219648,94.8465223 C758.290184,94.8465223 788.788656,43.7275942 854.590795,43.7275942 C923.432104,43.7275942 943.444161,94.8465223 1007.92197,94.8465223 C1072.39978,94.8465223 1099.47378,43.7275942 1163.07955,43.7275942 C1229.35409,43.7275942 1265.81833,94.8465223 1323.05065,94.8465223 C1390.36397,94.8465223 1410.64644,45.7355689 1468.40002,45.7355689" id="Line-2" stroke="#7CD2FF" stroke-width="5.184"></path>
                            <path d="M51.6220534,51.5203583 C108.657162,51.5203583 126.713958,0 196.613363,0 C270.145203,0 286.441496,53.3414901 376.675492,53.3414901 C437.673039,53.3414901 482.273936,0 539.906522,0 C601.930796,0 642.104185,53.3414901 698.352303,53.3414901 C759.422839,53.3414901 789.92131,0 855.723449,0 C924.564759,0 944.576816,53.3414901 1009.05463,53.3414901 C1073.53244,53.3414901 1100.60643,0 1164.2122,0 C1230.48675,0 1266.95099,53.3414901 1324.1833,53.3414901 C1391.49663,53.3414901 1411.77909,2.01322324 1469.53268,2.01322324" id="Line-2" stroke="#7CD2FF" stroke-width="5.184"></path>
                        </g>
                    </g>
                </g>
            </g>
        </g>
    </g>
</svg>