<?xml version="1.0" encoding="UTF-8"?>
<svg width="698px" height="350px" viewBox="0 0 698 350" version="1.1" xmlns="http://www.w3.org/2000/svg" xmlns:xlink="http://www.w3.org/1999/xlink">
    <!-- Generator: Sketch 51.1 (57501) - http://www.bohemiancoding.com/sketch -->
    <title>fun guy</title>
    <desc>Created with Sketch.</desc>
    <defs>
        <polygon id="path-1" points="43 0 590 0 676.431372 47.0577488 676.431372 123.861276 621.882644 137.58235 621.882644 215.653585 697.479052 195.724471 697.479052 275.412966 660.16556 290.024232 660.16556 375 590 375 43 375 43 275.412966 81.2125893 263.487353 81.2125893 182.934475 0.359060443 215.653585 0.359060443 137.58235 43 116.076979"></polygon>
    </defs>
    <g id="Speakers" stroke="none" stroke-width="1" fill="none" fill-rule="evenodd">
        <g id="Desktop-HD" transform="translate(-560.000000, -438.000000)">
            <g id="fun-guy" transform="translate(560.000000, 425.000000)">
                <mask id="mask-2" fill="white">
                    <use xlink:href="#path-1"></use>
                </mask>
                <g id="path-1"></g>
                <g id="Group-2" mask="url(#mask-2)">
                    <g transform="translate(-30.000000, 16.000000)" id="Group">
                        <g>
                            <g id="Line-2" stroke="#7CD2FF" stroke-width="5.184">
                                <path d="M0.2819492,343.755911 C57.317058,343.755911 75.373854,317.085166 145.273259,317.085166 C218.805098,317.085166 235.101392,343.755911 325.335388,343.755911 C386.332935,343.755911 430.933831,317.085166 488.566418,317.085166 C550.590692,317.085166 590.764081,343.755911 647.012198,343.755911 C708.082735,343.755911 738.581206,317.085166 804.383345,317.085166 C873.224654,317.085166 893.236712,343.755911 957.71452,343.755911 C1022.19233,343.755911 1049.26633,317.085166 1112.8721,317.085166 C1179.14664,317.085166 1215.61088,343.755911 1272.8432,343.755911 C1340.15652,343.755911 1360.43899,319.050679 1418.19257,319.050679"></path>
                                <path d="M0.2819492,325.975414 C57.317058,325.975414 75.373854,297.082107 145.273259,297.082107 C218.805098,297.082107 235.101392,325.975414 325.335388,325.975414 C386.332935,325.975414 430.933831,297.082107 488.566418,297.082107 C550.590692,297.082107 590.764081,325.975414 647.012198,325.975414 C708.082735,325.975414 738.581206,297.082107 804.383345,297.082107 C873.224654,297.082107 893.236712,325.975414 957.71452,325.975414 C1022.19233,325.975414 1049.26633,297.082107 1112.8721,297.082107 C1179.14664,297.082107 1215.61088,325.975414 1272.8432,325.975414 C1340.15652,325.975414 1360.43899,299.052219 1418.19257,299.052219"></path>
                                <path d="M0.2819492,307.872169 C57.317058,307.872169 75.373854,276.7563 145.273259,276.7563 C218.805098,276.7563 235.101392,307.872169 325.335388,307.872169 C386.332935,307.872169 430.933831,276.7563 488.566418,276.7563 C550.590692,276.7563 590.764081,307.872169 647.012198,307.872169 C708.082735,307.872169 738.581206,276.7563 804.383345,276.7563 C873.224654,276.7563 893.236712,307.872169 957.71452,307.872169 C1022.19233,307.872169 1049.26633,276.7563 1112.8721,276.7563 C1179.14664,276.7563 1215.61088,307.872169 1272.8432,307.872169 C1340.15652,307.872169 1360.43899,278.730371 1418.19257,278.730371"></path>
                                <path d="M0.2819492,288.191859 C57.317058,288.191859 75.373854,254.853427 145.273259,254.853427 C218.805098,254.853427 235.101392,288.191859 325.335388,288.191859 C386.332935,288.191859 430.933831,254.853427 488.566418,254.853427 C550.590692,254.853427 590.764081,288.191859 647.012198,288.191859 C708.082735,288.191859 738.581206,254.853427 804.383345,254.853427 C873.224654,254.853427 893.236712,288.191859 957.71452,288.191859 C1022.19233,288.191859 1049.26633,254.853427 1112.8721,254.853427 C1179.14664,254.853427 1215.61088,288.191859 1272.8432,288.191859 C1340.15652,288.191859 1360.43899,256.830942 1418.19257,256.830942"></path>
                                <path d="M0.2819492,270.428658 C57.317058,270.428658 75.373854,234.867665 145.273259,234.867665 C218.805098,234.867665 235.101392,270.428658 325.335388,270.428658 C386.332935,270.428658 430.933831,234.867665 488.566418,234.867665 C550.590692,234.867665 590.764081,270.428658 647.012198,270.428658 C708.082735,270.428658 738.581206,234.867665 804.383345,234.867665 C873.224654,234.867665 893.236712,270.428658 957.71452,270.428658 C1022.19233,270.428658 1049.26633,234.867665 1112.8721,234.867665 C1179.14664,234.867665 1215.61088,270.428658 1272.8432,270.428658 C1340.15652,270.428658 1360.43899,236.848203 1418.19257,236.848203"></path>
                                <path d="M4.4893991,251.166543 C61.524508,251.166543 79.581304,213.382988 149.480709,213.382988 C223.012548,213.382988 239.308842,251.166543 329.542838,251.166543 C390.540385,251.166543 435.141281,213.382988 492.773868,213.382988 C554.798142,213.382988 594.971531,251.166543 651.219648,251.166543 C712.290184,251.166543 742.788656,213.382988 808.590795,213.382988 C877.432104,213.382988 897.444161,251.166543 961.92197,251.166543 C1026.39978,251.166543 1053.47378,213.382988 1117.07955,213.382988 C1183.35409,213.382988 1219.81833,251.166543 1277.05065,251.166543 C1344.36397,251.166543 1364.64644,215.386378 1422.40002,215.386378"></path>
                                <path d="M4.4893991,232.662668 C61.524508,232.662668 79.581304,192.65655 149.480709,192.65655 C223.012548,192.65655 239.308842,232.662668 329.542838,232.662668 C390.540385,232.662668 435.141281,192.65655 492.773868,192.65655 C554.798142,192.65655 594.971531,232.662668 651.219648,232.662668 C712.290184,232.662668 742.788656,192.65655 808.590795,192.65655 C877.432104,192.65655 897.444161,232.662668 961.92197,232.662668 C1026.39978,232.662668 1053.47378,192.65655 1117.07955,192.65655 C1183.35409,192.65655 1219.81833,232.662668 1277.05065,232.662668 C1344.36397,232.662668 1364.64644,194.680702 1422.40002,194.680702"></path>
                                <path d="M4.4893991,213.382988 C61.524508,213.382988 79.581304,171.154308 149.480709,171.154308 C223.012548,171.154308 239.308842,213.382988 329.542838,213.382988 C390.540385,213.382988 435.141281,171.154308 492.773868,171.154308 C554.798142,171.154308 594.971531,213.382988 651.219648,213.382988 C712.290184,213.382988 742.788656,171.154308 808.590795,171.154308 C877.432104,171.154308 897.444161,213.382988 961.92197,213.382988 C1026.39978,213.382988 1053.47378,171.154308 1117.07955,171.154308 C1183.35409,171.154308 1219.81833,213.382988 1277.05065,213.382988 C1344.36397,213.382988 1364.64644,173.197403 1422.40002,173.197403"></path>
                                <path d="M4.4893991,192.604393 C61.524508,192.604393 79.581304,150.375713 149.480709,150.375713 C223.012548,150.375713 239.308842,192.604393 329.542838,192.604393 C390.540385,192.604393 435.141281,150.375713 492.773868,150.375713 C554.798142,150.375713 594.971531,192.604393 651.219648,192.604393 C712.290184,192.604393 742.788656,150.375713 808.590795,150.375713 C877.432104,150.375713 897.444161,192.604393 961.92197,192.604393 C1026.39978,192.604393 1053.47378,150.375713 1117.07955,150.375713 C1183.35409,150.375713 1219.81833,192.604393 1277.05065,192.604393 C1344.36397,192.604393 1364.64644,152.418808 1422.40002,152.418808"></path>
                                <path d="M4.4893991,174.841192 C61.524508,174.841192 79.581304,130.38995 149.480709,130.38995 C223.012548,130.38995 239.308842,174.841192 329.542838,174.841192 C390.540385,174.841192 435.141281,130.38995 492.773868,130.38995 C554.798142,130.38995 594.971531,174.841192 651.219648,174.841192 C712.290184,174.841192 742.788656,130.38995 808.590795,130.38995 C877.432104,130.38995 897.444161,174.841192 961.92197,174.841192 C1026.39978,174.841192 1053.47378,130.38995 1117.07955,130.38995 C1183.35409,130.38995 1219.81833,174.841192 1277.05065,174.841192 C1344.36397,174.841192 1364.64644,132.4504 1422.40002,132.4504"></path>
                                <path d="M4.4893991,152.343205 C61.524508,152.343205 79.581304,109.680809 149.480709,109.680809 C223.012548,109.680809 239.308842,154.132051 329.542838,154.132051 C390.540385,154.132051 435.141281,109.680809 492.773868,109.680809 C554.798142,109.680809 594.971531,154.132051 651.219648,154.132051 C712.290184,154.132051 742.788656,109.680809 808.590795,109.680809 C877.432104,109.680809 897.444161,154.132051 961.92197,154.132051 C1026.39978,154.132051 1053.47378,109.680809 1117.07955,109.680809 C1183.35409,109.680809 1219.81833,154.132051 1277.05065,154.132051 C1344.36397,154.132051 1364.64644,111.658341 1422.40002,111.658341"></path>
                                <path d="M4.4893991,133.064312 C61.524508,133.064312 79.581304,88.1961322 149.480709,88.1961322 C223.012548,88.1961322 239.308842,134.869936 329.542838,134.869936 C390.540385,134.869936 435.141281,88.1961322 492.773868,88.1961322 C554.798142,88.1961322 594.971531,134.869936 651.219648,134.869936 C712.290184,134.869936 742.788656,88.1961322 808.590795,88.1961322 C877.432104,88.1961322 897.444161,134.869936 961.92197,134.869936 C1026.39978,134.869936 1053.47378,88.1961322 1117.07955,88.1961322 C1183.35409,88.1961322 1219.81833,134.869936 1277.05065,134.869936 C1344.36397,134.869936 1364.64644,90.1922124 1422.40002,90.1922124"></path>
                                <path d="M4.4893991,113.038348 C61.524508,113.038348 79.581304,65.9532151 149.480709,65.9532151 C223.012548,65.9532151 239.308842,114.849581 329.542838,114.849581 C390.540385,114.849581 435.141281,65.9532151 492.773868,65.9532151 C554.798142,65.9532151 594.971531,114.849581 651.219648,114.849581 C712.290184,114.849581 742.788656,65.9532151 808.590795,65.9532151 C877.432104,65.9532151 897.444161,114.849581 961.92197,114.849581 C1026.39978,114.849581 1053.47378,65.9532151 1117.07955,65.9532151 C1183.35409,65.9532151 1219.81833,114.849581 1277.05065,114.849581 C1344.36397,114.849581 1364.64644,67.9554953 1422.40002,67.9554953"></path>
                                <path d="M4.4893991,71.5454611 C61.524508,71.5454611 79.581304,22.2429171 149.480709,22.2429171 C223.012548,22.2429171 239.308842,73.3618451 329.542838,73.3618451 C390.540385,73.3618451 435.141281,22.2429171 492.773868,22.2429171 C554.798142,22.2429171 594.971531,73.3618451 651.219648,73.3618451 C712.290184,73.3618451 742.788656,22.2429171 808.590795,22.2429171 C877.432104,22.2429171 897.444161,73.3618451 961.92197,73.3618451 C1026.39978,73.3618451 1053.47378,22.2429171 1117.07955,22.2429171 C1183.35409,22.2429171 1219.81833,73.3618451 1277.05065,73.3618451 C1344.36397,73.3618451 1364.64644,24.2508918 1422.40002,24.2508918"></path>
                                <path d="M4.4893991,93.0301382 C61.524508,93.0301382 79.581304,43.7275942 149.480709,43.7275942 C223.012548,43.7275942 239.308842,94.8465223 329.542838,94.8465223 C390.540385,94.8465223 435.141281,43.7275942 492.773868,43.7275942 C554.798142,43.7275942 594.971531,94.8465223 651.219648,94.8465223 C712.290184,94.8465223 742.788656,43.7275942 808.590795,43.7275942 C877.432104,43.7275942 897.444161,94.8465223 961.92197,94.8465223 C1026.39978,94.8465223 1053.47378,43.7275942 1117.07955,43.7275942 C1183.35409,43.7275942 1219.81833,94.8465223 1277.05065,94.8465223 C1344.36397,94.8465223 1364.64644,45.7355689 1422.40002,45.7355689"></path>
                                <path d="M5.6220534,51.5203583 C62.657162,51.5203583 80.713958,0 150.613363,0 C224.145203,0 240.441496,53.3414901 330.675492,53.3414901 C391.673039,53.3414901 436.273936,0 493.906522,0 C555.930796,0 596.104185,53.3414901 652.352303,53.3414901 C713.422839,53.3414901 743.92131,0 809.723449,0 C878.564759,0 898.576816,53.3414901 963.05463,53.3414901 C1027.53244,53.3414901 1054.60643,0 1118.2122,0 C1184.48675,0 1220.95099,53.3414901 1278.1833,53.3414901 C1345.49663,53.3414901 1365.77909,2.01322324 1423.53268,2.01322324"></path>
                            </g>
                        </g>
                    </g>
                </g>
            </g>
        </g>
    </g>
</svg>