<?xml version="1.0" encoding="UTF-8"?>
<svg width="1023px" height="164px" viewBox="0 0 1023 164" version="1.1" xmlns="http://www.w3.org/2000/svg" xmlns:xlink="http://www.w3.org/1999/xlink">
    <!-- Generator: Sketch 50.2 (55047) - http://www.bohemiancoding.com/sketch -->
    <title>Group</title>
    <desc>Created with Sketch.</desc>
    <defs>
        <path d="M0,163.492851 L28.716083,4.43012886 L72.2388962,4.43012886 L106.1149,89.2354528 L139.76656,4.43012886 L183.289373,4.43012886 L212.005456,163.492851 L168.258299,163.492851 L153.675913,71.9368544 L113.74261,163.492851 L96.2437469,163.492851 L58.3295435,71.9368544 L43.7471577,163.492851 L0,163.492851 Z M325.495679,104.424466 L305.753371,51.4738782 L286.011064,104.424466 L325.495679,104.424466 Z M337.161587,135.857285 L274.345156,135.857285 L264.249658,163.492851 L217.361679,163.492851 L281.748521,4.43012886 L329.758222,4.43012886 L394.145064,163.492851 L347.257085,163.492851 L337.161587,135.857285 Z M451.100498,70.0382278 L504.718809,4.43012886 L559.010154,4.43012886 L491.931179,79.7423196 L565.291797,163.492851 L508.30832,163.492851 L451.100498,94.5094158 L451.100498,163.492851 L407.128996,163.492851 L407.128996,4.43012886 L451.100498,4.43012886 L451.100498,70.0382278 Z M622.471575,4.43012886 L622.471575,163.492851 L578.500073,163.492851 L578.500073,4.43012886 L622.471575,4.43012886 Z M651.608304,163.492851 L651.608304,4.43012886 L695.579806,4.43012886 L776.792478,101.682005 L776.792478,4.43012886 L820.539635,4.43012886 L820.539635,163.492851 L776.792478,163.492851 L695.579806,66.2409744 L695.579806,163.492851 L651.608304,163.492851 Z M935.15158,74.4683566 L1022.42155,74.4683566 C1022.42155,82.9067395 1022.04765,90.571489 1021.29983,97.462835 C1020.55201,104.354181 1019.0564,110.753192 1016.81294,116.66006 C1013.6721,124.957803 1009.4096,132.306118 1004.02531,138.705225 C998.641017,145.104332 992.322047,150.448561 985.068208,154.738072 C977.81437,159.027584 969.850223,162.297408 961.17553,164.547644 C952.500836,166.797879 943.377589,167.92298 933.805513,167.92298 C920.643909,167.92298 908.641604,165.883735 897.798237,161.805183 C886.954871,157.726631 877.644671,151.995649 869.86736,144.612064 C862.090048,137.228479 856.03281,128.368309 851.695463,118.03129 C847.358117,107.694271 845.189476,96.267466 845.189476,83.7505314 C845.189476,71.3742365 847.320726,60.0177499 851.583291,49.6807308 C855.845856,39.3437118 861.903094,30.5187021 869.755188,23.2054369 C877.607281,15.8921717 887.067042,10.1963487 898.134754,6.117797 C909.202466,2.03924528 921.541285,0 935.15158,0 C952.800094,0 968.279703,3.58625893 981.59087,10.7588844 C994.902038,17.9315098 1005.44612,29.0418806 1013.22343,44.0903301 L971.495372,60.334136 C967.606716,51.6144736 962.559018,45.3561002 956.352125,41.5588279 C950.145233,37.7615556 943.078455,35.8629479 935.15158,35.8629479 C928.570778,35.8629479 922.58832,37.0232082 917.204028,39.3437635 C911.819735,41.6643188 907.220721,44.9693025 903.406847,49.2588138 C899.592973,53.5483251 896.601745,58.7167571 894.433071,64.7642648 C892.264398,70.8117726 891.180078,77.5623776 891.180078,85.0162825 C891.180078,91.7669888 892.114837,98.0253622 893.984383,103.791591 C895.853929,109.557819 898.658205,114.550454 902.397297,118.769645 C906.136389,122.988837 910.772794,126.258661 916.30665,128.579216 C921.840506,130.899772 928.271648,132.060032 935.600268,132.060032 C939.937615,132.060032 944.125335,131.60296 948.163555,130.688801 C952.201774,129.774643 955.828639,128.297948 959.044258,126.258673 C962.259877,124.219397 964.914593,121.582442 967.008484,118.347728 C969.102376,115.113015 970.523209,111.175162 971.271028,106.534051 L935.15158,106.534051 L935.15158,74.4683566 Z M1142.16537,4.43012886 L1171.33014,107.166927 L1207.22525,4.43012886 L1242.22297,4.43012886 L1278.11808,107.166927 L1307.28285,4.43012886 L1353.27345,4.43012886 L1302.79596,163.492851 L1257.92708,163.492851 L1224.72411,71.3039789 L1191.52114,163.492851 L1146.65226,163.492851 L1096.17477,4.43012886 L1142.16537,4.43012886 Z M1447.6944,104.424466 L1427.95209,51.4738782 L1408.20979,104.424466 L1447.6944,104.424466 Z M1459.36031,135.857285 L1396.54388,135.857285 L1386.44838,163.492851 L1339.5604,163.492851 L1403.94724,4.43012886 L1451.95694,4.43012886 L1516.34379,163.492851 L1469.45581,163.492851 L1459.36031,135.857285 Z M1546.37789,4.43012886 L1587.20857,101.260088 L1628.2636,4.43012886 L1676.04895,4.43012886 L1604.70744,163.492851 L1569.70971,163.492851 L1498.59253,4.43012886 L1546.37789,4.43012886 Z M1783.70622,39.4492427 L1731.43398,39.4492427 L1731.43398,66.0300159 L1780.78974,66.0300159 L1780.78974,101.04913 L1731.43398,101.04913 L1731.43398,128.473737 L1783.70622,128.473737 L1783.70622,163.492851 L1687.46247,163.492851 L1687.46247,4.43012886 L1783.70622,4.43012886 L1783.70622,39.4492427 Z M1901.90768,45.1451227 C1897.12164,41.4884901 1892.33567,38.7812162 1887.54963,37.0232198 C1882.7636,35.2652234 1878.12719,34.3862383 1873.64028,34.3862383 C1867.95686,34.3862383 1863.32046,35.6519768 1859.73093,38.1834916 C1856.1414,40.7150065 1854.34666,44.0199902 1854.34666,48.098542 C1854.34666,50.9113363 1855.24403,53.2318567 1857.0388,55.060173 C1858.83356,56.8884893 1861.18915,58.4706624 1864.10564,59.8067397 C1867.02214,61.142817 1870.31249,62.3030772 1873.9768,63.2875552 C1877.64111,64.2720332 1881.26797,65.3268152 1884.8575,66.451933 C1899.21562,70.9524038 1909.72231,76.9646615 1916.37789,84.4888862 C1923.03347,92.0131109 1926.36122,101.822584 1926.36122,113.917599 C1926.36122,122.074703 1924.90299,129.458177 1921.9865,136.068244 C1919.07001,142.67831 1914.80751,148.338974 1909.19887,153.050404 C1903.59023,157.761835 1896.7104,161.418413 1888.55918,164.020247 C1880.40796,166.622082 1871.17255,167.92298 1860.85265,167.92298 C1839.46504,167.92298 1819.64815,161.945882 1801.40139,149.991506 L1820.24632,116.66006 C1826.82712,122.145009 1833.33304,126.2235 1839.76428,128.895654 C1846.19552,131.567809 1852.55188,132.903866 1858.83355,132.903866 C1866.01261,132.903866 1871.35943,131.356852 1874.87418,128.262779 C1878.38892,125.168705 1880.14627,121.652765 1880.14627,117.714853 C1880.14627,115.323978 1879.69759,113.249573 1878.8002,111.491576 C1877.90282,109.73358 1876.40721,108.116248 1874.31332,106.639531 C1872.21942,105.162814 1869.48993,103.791597 1866.12474,102.525839 C1862.75956,101.260082 1858.68401,99.8537059 1853.89797,98.3066691 C1848.21455,96.6189925 1842.64339,94.7555442 1837.18432,92.7162684 C1831.72524,90.6769925 1826.8645,87.9697186 1822.60193,84.5943655 C1818.33937,81.2190123 1814.89945,76.9647247 1812.28209,71.8313752 C1809.66472,66.6980256 1808.35606,60.1935363 1808.35606,52.3177123 C1808.35606,44.4418883 1809.73951,37.3045298 1812.50643,30.9054228 C1815.27336,24.5063158 1819.16196,19.0214492 1824.17234,14.4506584 C1829.18273,9.87986771 1835.31474,6.32876818 1842.56858,3.79725331 C1849.82242,1.26573845 1857.93613,0 1866.90995,0 C1875.28552,0 1884.03486,1.08994144 1893.15824,3.26985702 C1902.28163,5.4497726 1911.03097,8.64927812 1919.40654,12.8684696 L1901.90768,45.1451227 Z" id="path-1"></path>
    </defs>
    <g id="Hero/Landing" stroke="none" stroke-width="1" fill="none" fill-rule="evenodd">
        <g id="Desktop-HD" transform="translate(-186.000000, -286.000000)">
            <g id="Group-3" transform="translate(-796.000000, 282.000000)">
                <g id="Group-2" transform="translate(982.000000, 0.000000)">
                    <g id="Group">
                        <mask id="mask-2" fill="white">
                            <use xlink:href="#path-1"></use>
                        </mask>
                        <g id="Mask"></g>
                        <g id="Group-2" mask="url(#mask-2)" stroke-linecap="square">
                            <g transform="translate(-264.829420, 6.256983)" id="Group">
                                <g>
                                    <path d="M42.6188132,162.299288 C95.1396918,162.299288 111.767324,158.410325 176.134312,158.410325 C243.846234,158.410325 258.852704,162.299288 341.944836,162.299288 C398.114533,162.299288 439.185346,158.410325 492.256414,158.410325 C549.371574,158.410325 586.365309,162.299288 638.161485,162.299288 C694.398395,162.299288 722.482965,158.410325 783.076979,158.410325 C846.469618,158.410325 864.897756,162.299288 924.272259,162.299288 C983.646761,162.299288 1008.5779,158.410325 1067.14938,158.410325 C1128.17841,158.410325 1161.75657,162.299288 1214.45905,162.299288 C1276.44464,162.299288 1295.12178,159.070133 1348.30427,159.070133" id="Line-2" stroke="#E62B1E" stroke-width="3.456"></path>
                                    <path d="M42.6188132,156.854739 C95.1396918,156.854739 111.767324,152.187983 176.134312,152.187983 C243.846234,152.187983 258.852704,156.854739 341.944836,156.854739 C398.114533,156.854739 439.185346,152.187983 492.256414,152.187983 C549.371574,152.187983 586.365309,156.854739 638.161485,156.854739 C694.398395,156.854739 722.482965,152.187983 783.076979,152.187983 C846.469618,152.187983 864.897756,156.854739 924.272259,156.854739 C983.646761,156.854739 1008.5779,152.187983 1067.14938,152.187983 C1128.17841,152.187983 1161.75657,156.854739 1214.45905,156.854739 C1276.44464,156.854739 1295.12178,152.855564 1348.30427,152.855564" id="Line-2" stroke="#E62B1E" stroke-width="3.456"></path>
                                    <path d="M42.6188132,150.632398 C95.1396918,150.632398 111.767324,145.187849 176.134312,145.187849 C243.846234,145.187849 258.852704,150.632398 341.944836,150.632398 C398.114533,150.632398 439.185346,145.187849 492.256414,145.187849 C549.371574,145.187849 586.365309,150.632398 638.161485,150.632398 C694.398395,150.632398 722.482965,145.187849 783.076979,145.187849 C846.469618,145.187849 864.897756,150.632398 924.272259,150.632398 C983.646761,150.632398 1008.5779,145.187849 1067.14938,145.187849 C1128.17841,145.187849 1161.75657,150.632398 1214.45905,150.632398 C1276.44464,150.632398 1295.12178,145.861094 1348.30427,145.861094" id="Line-2" stroke="#E62B1E" stroke-width="3.456"></path>
                                    <path d="M42.6188132,144.410056 C95.1396918,144.410056 111.767324,138.187714 176.134312,138.187714 C243.846234,138.187714 258.852704,144.410056 341.944836,144.410056 C398.114533,144.410056 439.185346,138.187714 492.256414,138.187714 C549.371574,138.187714 586.365309,144.410056 638.161485,144.410056 C694.398395,144.410056 722.482965,138.187714 783.076979,138.187714 C846.469618,138.187714 864.897756,144.410056 924.272259,144.410056 C983.646761,144.410056 1008.5779,138.187714 1067.14938,138.187714 C1128.17841,138.187714 1161.75657,144.410056 1214.45905,144.410056 C1276.44464,144.410056 1295.12178,138.865272 1348.30427,138.865272" id="Line-2" stroke="#E62B1E" stroke-width="3.456"></path>
                                    <path d="M42.6188132,138.965507 C95.1396918,138.965507 111.767324,131.965372 176.134312,131.965372 C243.846234,131.965372 258.852704,138.965507 341.944836,138.965507 C398.114533,138.965507 439.185346,131.965372 492.256414,131.965372 C549.371574,131.965372 586.365309,138.965507 638.161485,138.965507 C694.398395,138.965507 722.482965,131.965372 783.076979,131.965372 C846.469618,131.965372 864.897756,138.965507 924.272259,138.965507 C983.646761,138.965507 1008.5779,131.965372 1067.14938,131.965372 C1128.17841,131.965372 1161.75657,138.965507 1214.45905,138.965507 C1276.44464,138.965507 1295.12178,132.646323 1348.30427,132.646323" id="Line-2" stroke="#E62B1E" stroke-width="3.456"></path>
                                    <path d="M42.6188132,132.743165 C95.1396918,132.743165 111.767324,124.965238 176.134312,124.965238 C243.846234,124.965238 258.852704,132.743165 341.944836,132.743165 C398.114533,132.743165 439.185346,124.965238 492.256414,124.965238 C549.371574,124.965238 586.365309,132.743165 638.161485,132.743165 C694.398395,132.743165 722.482965,124.965238 783.076979,124.965238 C846.469618,124.965238 864.897756,132.743165 924.272259,132.743165 C983.646761,132.743165 1008.5779,124.965238 1067.14938,124.965238 C1128.17841,124.965238 1161.75657,132.743165 1214.45905,132.743165 C1276.44464,132.743165 1295.12178,125.648926 1348.30427,125.648926" id="Line-2" stroke="#E62B1E" stroke-width="3.456"></path>
                                    <path d="M42.6188132,126.520823 C95.1396918,126.520823 111.767324,117.965103 176.134312,117.965103 C243.846234,117.965103 258.852704,126.520823 341.944836,126.520823 C398.114533,126.520823 439.185346,117.965103 492.256414,117.965103 C549.371574,117.965103 586.365309,126.520823 638.161485,126.520823 C694.398395,126.520823 722.482965,117.965103 783.076979,117.965103 C846.469618,117.965103 864.897756,126.520823 924.272259,126.520823 C983.646761,126.520823 1008.5779,117.965103 1067.14938,117.965103 C1128.17841,117.965103 1161.75657,126.520823 1214.45905,126.520823 C1276.44464,126.520823 1295.12178,118.651049 1348.30427,118.651049" id="Line-2" stroke="#E62B1E" stroke-width="3.456"></path>
                                    <path d="M42.6188132,120.298482 C95.1396918,120.298482 111.767324,110.964969 176.134312,110.964969 C243.846234,110.964969 258.852704,120.298482 341.944836,120.298482 C398.114533,120.298482 439.185346,110.964969 492.256414,110.964969 C549.371574,110.964969 586.365309,120.298482 638.161485,120.298482 C694.398395,120.298482 722.482965,110.964969 783.076979,110.964969 C846.469618,110.964969 864.897756,120.298482 924.272259,120.298482 C983.646761,120.298482 1008.5779,110.964969 1067.14938,110.964969 C1128.17841,110.964969 1161.75657,120.298482 1214.45905,120.298482 C1276.44464,120.298482 1295.12178,111.652807 1348.30427,111.652807" id="Line-2" stroke="#E62B1E" stroke-width="3.456"></path>
                                    <path d="M42.6188132,114.07614 C95.1396918,114.07614 111.767324,103.964834 176.134312,103.964834 C243.846234,103.964834 258.852704,114.07614 341.944836,114.07614 C398.114533,114.07614 439.185346,103.964834 492.256414,103.964834 C549.371574,103.964834 586.365309,114.07614 638.161485,114.07614 C694.398395,114.07614 722.482965,103.964834 783.076979,103.964834 C846.469618,103.964834 864.897756,114.07614 924.272259,114.07614 C983.646761,114.07614 1008.5779,103.964834 1067.14938,103.964834 C1128.17841,103.964834 1161.75657,114.07614 1214.45905,114.07614 C1276.44464,114.07614 1295.12178,104.654282 1348.30427,104.654282" id="Line-2" stroke="#E62B1E" stroke-width="3.456"></path>
                                    <path d="M42.6188132,107.740851 C95.1396918,107.740851 111.767324,96.8517532 176.134312,96.8517532 C243.846234,96.8517532 258.852704,107.740851 341.944836,107.740851 C398.114533,107.740851 439.185346,96.8517532 492.256414,96.8517532 C549.371574,96.8517532 586.365309,107.740851 638.161485,107.740851 C694.398395,107.740851 722.482965,96.8517532 783.076979,96.8517532 C846.469618,96.8517532 864.897756,107.740851 924.272259,107.740851 C983.646761,107.740851 1008.5779,96.8517532 1067.14938,96.8517532 C1128.17841,96.8517532 1161.75657,107.740851 1214.45905,107.740851 C1276.44464,107.740851 1295.12178,97.5425857 1348.30427,97.5425857" id="Line-2" stroke="#E62B1E" stroke-width="3.456"></path>
                                    <path d="M42.6188132,100.853664 C95.1396918,100.853664 111.767324,89.1867728 176.134312,89.1867728 C243.846234,89.1867728 258.852704,100.853664 341.944836,100.853664 C398.114533,100.853664 439.185346,89.1867728 492.256414,89.1867728 C549.371574,89.1867728 586.365309,100.853664 638.161485,100.853664 C694.398395,100.853664 722.482965,89.1867728 783.076979,89.1867728 C846.469618,89.1867728 864.897756,100.853664 924.272259,100.853664 C983.646761,100.853664 1008.5779,89.1867728 1067.14938,89.1867728 C1128.17841,89.1867728 1161.75657,100.853664 1214.45905,100.853664 C1276.44464,100.853664 1295.12178,89.8788105 1348.30427,89.8788105" id="Line-2" stroke="#E62B1E" stroke-width="3.456"></path>
                                    <path d="M42.6188132,94.6373747 C95.1396918,94.6373747 111.767324,82.1926912 176.134312,82.1926912 C243.846234,82.1926912 258.852704,94.6373747 341.944836,94.6373747 C398.114533,94.6373747 439.185346,82.1926912 492.256414,82.1926912 C549.371574,82.1926912 586.365309,94.6373747 638.161485,94.6373747 C694.398395,94.6373747 722.482965,82.1926912 783.076979,82.1926912 C846.469618,82.1926912 864.897756,94.6373747 924.272259,94.6373747 C983.646761,94.6373747 1008.5779,82.1926912 1067.14938,82.1926912 C1128.17841,82.1926912 1161.75657,94.6373747 1214.45905,94.6373747 C1276.44464,94.6373747 1295.12178,82.8857868 1348.30427,82.8857868" id="Line-2" stroke="#E62B1E" stroke-width="3.456"></path>
                                    <path d="M46.4932508,87.8965359 C99.0141294,87.8965359 115.641762,74.6740597 180.00875,74.6740597 C247.720672,74.6740597 262.727142,87.8965359 345.819274,87.8965359 C401.988971,87.8965359 443.059784,74.6740597 496.130851,74.6740597 C553.246011,74.6740597 590.239746,87.8965359 642.035923,87.8965359 C698.272832,87.8965359 726.357402,74.6740597 786.951416,74.6740597 C850.344056,74.6740597 868.772193,87.8965359 928.146696,87.8965359 C987.521199,87.8965359 1012.45234,74.6740597 1071.02382,74.6740597 C1132.05285,74.6740597 1165.63101,87.8965359 1218.33349,87.8965359 C1280.31908,87.8965359 1298.99622,75.3751527 1352.17871,75.3751527" id="Line-2" stroke="#E62B1E" stroke-width="3.456"></path>
                                    <path d="M46.4932508,81.4210456 C99.0141294,81.4210456 115.641762,67.4207766 180.00875,67.4207766 C247.720672,67.4207766 262.727142,81.4210456 345.819274,81.4210456 C401.988971,81.4210456 443.059784,67.4207766 496.130851,67.4207766 C553.246011,67.4207766 590.239746,81.4210456 642.035923,81.4210456 C698.272832,81.4210456 726.357402,67.4207766 786.951416,67.4207766 C850.344056,67.4207766 868.772193,81.4210456 928.146696,81.4210456 C987.521199,81.4210456 1012.45234,67.4207766 1071.02382,67.4207766 C1132.05285,67.4207766 1165.63101,81.4210456 1218.33349,81.4210456 C1280.31908,81.4210456 1298.99622,68.1291349 1352.17871,68.1291349" id="Line-2" stroke="#E62B1E" stroke-width="3.456"></path>
                                    <path d="M46.4932508,74.6740597 C99.0141294,74.6740597 115.641762,59.895998 180.00875,59.895998 C247.720672,59.895998 262.727142,74.6740597 345.819274,74.6740597 C401.988971,74.6740597 443.059784,59.895998 496.130851,59.895998 C553.246011,59.895998 590.239746,74.6740597 642.035923,74.6740597 C698.272832,74.6740597 726.357402,59.895998 786.951416,59.895998 C850.344056,59.895998 868.772193,74.6740597 928.146696,74.6740597 C987.521199,74.6740597 1012.45234,59.895998 1071.02382,59.895998 C1132.05285,59.895998 1165.63101,74.6740597 1218.33349,74.6740597 C1280.31908,74.6740597 1298.99622,60.6109857 1352.17871,60.6109857" id="Line-2" stroke="#E62B1E" stroke-width="3.456"></path>
                                    <path d="M46.4932508,67.4025238 C99.0141294,67.4025238 115.641762,52.6244622 180.00875,52.6244622 C247.720672,52.6244622 262.727142,67.4025238 345.819274,67.4025238 C401.988971,67.4025238 443.059784,52.6244622 496.130851,52.6244622 C553.246011,52.6244622 590.239746,67.4025238 642.035923,67.4025238 C698.272832,67.4025238 726.357402,52.6244622 786.951416,52.6244622 C850.344056,52.6244622 868.772193,67.4025238 928.146696,67.4025238 C987.521199,67.4025238 1012.45234,52.6244622 1071.02382,52.6244622 C1132.05285,52.6244622 1165.63101,67.4025238 1218.33349,67.4025238 C1280.31908,67.4025238 1298.99622,53.3394498 1352.17871,53.3394498" id="Line-2" stroke="#E62B1E" stroke-width="3.456"></path>
                                    <path d="M46.4932508,61.1862349 C99.0141294,61.1862349 115.641762,45.6303806 180.00875,45.6303806 C247.720672,45.6303806 262.727142,61.1862349 345.819274,61.1862349 C401.988971,61.1862349 443.059784,45.6303806 496.130851,45.6303806 C553.246011,45.6303806 590.239746,61.1862349 642.035923,61.1862349 C698.272832,61.1862349 726.357402,45.6303806 786.951416,45.6303806 C850.344056,45.6303806 868.772193,61.1862349 928.146696,61.1862349 C987.521199,61.1862349 1012.45234,45.6303806 1071.02382,45.6303806 C1132.05285,45.6303806 1165.63101,61.1862349 1218.33349,61.1862349 C1280.31908,61.1862349 1298.99622,46.3514417 1352.17871,46.3514417" id="Line-2" stroke="#E62B1E" stroke-width="3.456"></path>
                                    <path d="M46.4932508,53.3129925 C99.0141294,53.3129925 115.641762,38.3831504 180.00875,38.3831504 C247.720672,38.3831504 262.727142,53.9390048 345.819274,53.9390048 C401.988971,53.9390048 443.059784,38.3831504 496.130851,38.3831504 C553.246011,38.3831504 590.239746,53.9390048 642.035923,53.9390048 C698.272832,53.9390048 726.357402,38.3831504 786.951416,38.3831504 C850.344056,38.3831504 868.772193,53.9390048 928.146696,53.9390048 C987.521199,53.9390048 1012.45234,38.3831504 1071.02382,38.3831504 C1132.05285,38.3831504 1165.63101,53.9390048 1218.33349,53.9390048 C1280.31908,53.9390048 1298.99622,39.0751939 1352.17871,39.0751939" id="Line-2" stroke="#E62B1E" stroke-width="3.456"></path>
                                    <path d="M46.4932508,46.5662819 C99.0141294,46.5662819 115.641762,30.8645188 180.00875,30.8645188 C247.720672,30.8645188 262.727142,47.1981659 345.819274,47.1981659 C401.988971,47.1981659 443.059784,30.8645188 496.130851,30.8645188 C553.246011,30.8645188 590.239746,47.1981659 642.035923,47.1981659 C698.272832,47.1981659 726.357402,30.8645188 786.951416,30.8645188 C850.344056,30.8645188 868.772193,47.1981659 928.146696,47.1981659 C987.521199,47.1981659 1012.45234,30.8645188 1071.02382,30.8645188 C1132.05285,30.8645188 1165.63101,47.1981659 1218.33349,47.1981659 C1280.31908,47.1981659 1298.99622,31.5630535 1352.17871,31.5630535" id="Line-2" stroke="#E62B1E" stroke-width="3.456"></path>
                                    <path d="M46.4932508,39.5581319 C99.0141294,39.5581319 115.641762,23.0805388 180.00875,23.0805388 C247.720672,23.0805388 262.727142,40.1919786 345.819274,40.1919786 C401.988971,40.1919786 443.059784,23.0805388 496.130851,23.0805388 C553.246011,23.0805388 590.239746,40.1919786 642.035923,40.1919786 C698.272832,40.1919786 726.357402,23.0805388 786.951416,23.0805388 C850.344056,23.0805388 868.772193,40.1919786 928.146696,40.1919786 C987.521199,40.1919786 1012.45234,23.0805388 1071.02382,23.0805388 C1132.05285,23.0805388 1165.63101,40.1919786 1218.33349,40.1919786 C1280.31908,40.1919786 1298.99622,23.7812431 1352.17871,23.7812431" id="Line-2" stroke="#E62B1E" stroke-width="3.456"></path>
                                    <path d="M46.4932508,25.0375632 C99.0141294,25.0375632 115.641762,7.78398005 180.00875,7.78398005 C247.720672,7.78398005 262.727142,25.6732126 345.819274,25.6732126 C401.988971,25.6732126 443.059784,7.78398005 496.130851,7.78398005 C553.246011,7.78398005 590.239746,25.6732126 642.035923,25.6732126 C698.272832,25.6732126 726.357402,7.78398005 786.951416,7.78398005 C850.344056,7.78398005 868.772193,25.6732126 928.146696,25.6732126 C987.521199,25.6732126 1012.45234,7.78398005 1071.02382,7.78398005 C1132.05285,7.78398005 1165.63101,25.6732126 1218.33349,25.6732126 C1280.31908,25.6732126 1298.99622,8.48667723 1352.17871,8.48667723" id="Line-2" stroke="#E62B1E" stroke-width="3.456"></path>
                                    <path d="M46.4932508,32.5561947 C99.0141294,32.5561947 115.641762,15.3026116 180.00875,15.3026116 C247.720672,15.3026116 262.727142,33.1918441 345.819274,33.1918441 C401.988971,33.1918441 443.059784,15.3026116 496.130851,15.3026116 C553.246011,15.3026116 590.239746,33.1918441 642.035923,33.1918441 C698.272832,33.1918441 726.357402,15.3026116 786.951416,15.3026116 C850.344056,15.3026116 868.772193,33.1918441 928.146696,33.1918441 C987.521199,33.1918441 1012.45234,15.3026116 1071.02382,15.3026116 C1132.05285,15.3026116 1165.63101,33.1918441 1218.33349,33.1918441 C1280.31908,33.1918441 1298.99622,16.0053088 1352.17871,16.0053088" id="Line-2" stroke="#E62B1E" stroke-width="3.456"></path>
                                    <path d="M47.5362575,18.0297144 C100.057136,18.0297144 116.684769,0 181.051756,0 C248.763679,0 263.770149,18.6670253 346.862281,18.6670253 C403.031977,18.6670253 444.102791,0 497.173858,0 C554.289018,0 591.282753,18.6670253 643.07893,18.6670253 C699.315839,18.6670253 727.400409,0 787.994423,0 C851.387062,0 869.8152,18.6670253 929.189703,18.6670253 C988.564206,18.6670253 1013.49534,0 1072.06683,0 C1133.09585,0 1166.67402,18.6670253 1219.37649,18.6670253 C1281.36208,18.6670253 1300.03923,0.704533917 1353.22172,0.704533917" id="Line-2" stroke="#E62B1E" stroke-width="3.456"></path>
                                </g>
                            </g>
                        </g>
                    </g>
                </g>
            </g>
        </g>
    </g>
</svg>