<?xml version="1.0" encoding="UTF-8"?>
<svg width="1023px" height="352px" viewBox="0 0 1023 352" version="1.1" xmlns="http://www.w3.org/2000/svg" xmlns:xlink="http://www.w3.org/1999/xlink">
    <!-- Generator: Sketch 50.2 (55047) - http://www.bohemiancoding.com/sketch -->
    <title>Group 3</title>
    <desc>Created with Sketch.</desc>
    <defs>
        <path d="M0,159.600164 L28.1200045,4.32464961 L70.7393862,4.32464961 L103.912204,87.1107992 L136.865334,4.32464961 L179.484716,4.32464961 L207.60472,159.600164 L164.765651,159.600164 L150.485961,70.2240722 L111.38158,159.600164 L94.2459524,159.600164 L57.118759,70.2240722 L42.8390693,159.600164 L0,159.600164 Z M318.739152,101.938169 L299.406649,50.2483097 L280.074146,101.938169 L318.739152,101.938169 Z M330.162904,132.622588 L268.650394,132.622588 L258.764455,159.600164 L212.84976,159.600164 L275.900082,4.32464961 L322.913215,4.32464961 L385.963537,159.600164 L340.048843,159.600164 L330.162904,132.622588 Z M441.73671,68.3706509 L494.242031,4.32464961 L547.406414,4.32464961 L481.719841,77.8436929 L553.557665,159.600164 L497.757031,159.600164 L441.73671,92.2591916 L441.73671,159.600164 L398.677953,159.600164 L398.677953,4.32464961 L441.73671,4.32464961 L441.73671,68.3706509 Z M609.550525,4.32464961 L609.550525,159.600164 L566.491769,159.600164 L566.491769,4.32464961 L609.550525,4.32464961 Z M638.082444,159.600164 L638.082444,4.32464961 L681.1412,4.32464961 L760.668088,99.2610052 L760.668088,4.32464961 L803.507157,4.32464961 L803.507157,159.600164 L760.668088,159.600164 L681.1412,64.6638084 L681.1412,159.600164 L638.082444,159.600164 Z M915.740026,72.6953005 L1001.19848,72.6953005 C1001.19848,80.9327695 1000.83234,88.415025 1000.10004,95.1422913 C999.367744,101.869558 997.903175,108.116211 995.706289,113.88244 C992.630648,121.982617 988.456627,129.155972 983.1841,135.40272 C977.911572,141.649467 971.723769,146.866453 964.620503,151.053833 C957.517237,155.241213 949.718408,158.433184 941.22378,160.629842 C932.729153,162.826501 923.795283,163.924814 914.421901,163.924814 C901.533501,163.924814 889.780336,161.934122 879.162052,157.952678 C868.543768,153.971235 859.426826,148.376705 851.810954,141.168919 C844.195081,133.961134 838.263577,125.311921 834.016263,115.221022 C829.76895,105.130122 827.645325,93.9753835 827.645325,81.7564711 C827.645325,69.6748499 829.732336,58.5887558 833.90642,48.4978563 C838.080504,38.4069568 844.012008,29.7920663 851.70111,22.6529265 C859.390212,15.5137867 868.653611,9.95357852 879.491583,5.97213517 C890.329556,1.99069182 902.412249,0 915.740026,0 C933.022199,0 948.180487,3.50087181 961.215346,10.5027205 C974.250205,17.5045691 984.575416,28.3504073 992.191288,43.0405604 L951.329407,58.8976089 C947.521471,50.3855576 942.578551,44.2761931 936.500498,40.569332 C930.422446,36.862471 923.502358,35.0090682 915.740026,35.0090682 C909.295826,35.0090682 903.437551,36.1417032 898.165024,38.4070072 C892.892496,40.6723112 888.388947,43.8986048 884.65424,48.0859849 C880.919533,52.273365 877.990396,57.3187391 875.866739,63.2222585 C873.743082,69.125778 872.68127,75.7156543 872.68127,82.9920853 C872.68127,89.5820605 873.596625,95.691425 875.427364,101.320362 C877.258102,106.949299 880.004169,111.823062 883.665646,115.941797 C887.327123,120.060531 891.867287,123.252502 897.286273,125.517806 C902.70526,127.78311 909.002906,128.915745 916.179401,128.915745 C920.426715,128.915745 924.527508,128.469556 928.481903,127.577163 C932.436299,126.684771 935.987878,125.243235 939.136749,123.252514 C942.285619,121.261792 944.885229,118.687622 946.935656,115.529925 C948.986084,112.372229 950.377424,108.528134 951.109719,103.997526 L915.740026,103.997526 L915.740026,72.6953005 Z M1118.4567,4.32464961 L1147.01608,104.615333 L1182.16608,4.32464961 L1216.43734,4.32464961 L1251.58734,104.615333 L1280.14672,4.32464961 L1325.18267,4.32464961 L1275.75297,159.600164 L1231.81547,159.600164 L1199.30171,69.6062651 L1166.78796,159.600164 L1122.85045,159.600164 L1073.42075,4.32464961 L1118.4567,4.32464961 Z M1417.64366,101.938169 L1398.31116,50.2483097 L1378.97865,101.938169 L1417.64366,101.938169 Z M1429.06741,132.622588 L1367.5549,132.622588 L1357.66896,159.600164 L1311.75427,159.600164 L1374.80459,4.32464961 L1421.81772,4.32464961 L1484.86805,159.600164 L1438.95335,159.600164 L1429.06741,132.622588 Z M1514.27871,4.32464961 L1554.26185,98.8491338 L1594.46466,4.32464961 L1641.25811,4.32464961 L1571.39747,159.600164 L1537.12622,159.600164 L1467.48527,4.32464961 L1514.27871,4.32464961 Z M1746.68066,38.5099751 L1695.49347,38.5099751 L1695.49347,64.4578727 L1743.82473,64.4578727 L1743.82473,98.6431981 L1695.49347,98.6431981 L1695.49347,125.414839 L1746.68066,125.414839 L1746.68066,159.600164 L1652.43471,159.600164 L1652.43471,4.32464961 L1746.68066,4.32464961 L1746.68066,38.5099751 Z M1862.42853,44.0702388 C1857.74184,40.5006689 1853.05522,37.8578539 1848.36853,36.1417146 C1843.68184,34.4255752 1839.14168,33.5675184 1834.7479,33.5675184 C1829.18246,33.5675184 1824.6423,34.8031202 1821.12728,37.2743609 C1817.61226,39.7456016 1815.85478,42.9718952 1815.85478,46.9533386 C1815.85478,49.6991616 1816.73352,51.9644316 1818.49103,53.7492165 C1820.24854,55.5340015 1822.55523,57.0785038 1825.41118,58.3827697 C1828.26714,59.6870356 1831.48919,60.8196706 1835.07744,61.7807087 C1838.66568,62.7417467 1842.21726,63.7714149 1845.73228,64.8697441 C1859.79235,69.2630609 1870.08095,75.1321695 1876.59838,82.4772461 C1883.11581,89.8223226 1886.37448,99.3982367 1886.37448,111.205276 C1886.37448,119.168162 1884.94652,126.37584 1882.09057,132.828524 C1879.23462,139.281208 1875.06059,144.807094 1869.56838,149.406347 C1864.07616,154.005601 1857.33915,157.575117 1849.35713,160.115003 C1841.37511,162.65489 1832.33139,163.924814 1822.22571,163.924814 C1801.28207,163.924814 1781.87653,158.090027 1764.00852,146.42028 L1782.46227,113.88244 C1788.90647,119.236794 1795.27735,123.218178 1801.57509,125.82671 C1807.87283,128.435242 1814.09725,129.739488 1820.24853,129.739488 C1827.27856,129.739488 1832.5144,128.229308 1835.95619,125.208903 C1839.39797,122.188498 1841.11884,118.75627 1841.11884,114.912118 C1841.11884,112.578169 1840.67947,110.553154 1839.80072,108.837015 C1838.92196,107.120876 1837.45739,105.542051 1835.40697,104.100494 C1833.35654,102.658937 1830.6837,101.320368 1827.38837,100.084748 C1824.09304,98.8491277 1820.10209,97.4762368 1815.4154,95.9660341 C1809.84996,94.3185403 1804.39444,92.4994599 1799.04868,90.5087382 C1793.70292,88.5180165 1788.94307,85.8752015 1784.76899,82.5802139 C1780.59491,79.2852263 1777.2264,75.1322313 1774.66336,70.1211043 C1772.10033,65.1099773 1770.81883,58.7603569 1770.81883,51.0720525 C1770.81883,43.3837481 1772.17356,36.4163267 1774.88305,30.1695794 C1777.59254,23.9228321 1781.40042,18.5685575 1786.3068,14.1065951 C1791.21318,9.64463276 1797.21792,6.17808322 1804.32118,3.70684252 C1811.42445,1.23560182 1819.36973,0 1828.15728,0 C1836.35899,0 1844.92672,1.06399045 1853.86072,3.19200328 C1862.79472,5.32001611 1871.36245,8.44334292 1879.56416,12.5620774 L1862.42853,44.0702388 Z" id="path-1"></path>
        <path d="M0,163.492851 L28.716083,4.43012886 L72.2388962,4.43012886 L106.1149,89.2354528 L139.76656,4.43012886 L183.289373,4.43012886 L212.005456,163.492851 L168.258299,163.492851 L153.675913,71.9368544 L113.74261,163.492851 L96.2437469,163.492851 L58.3295435,71.9368544 L43.7471577,163.492851 L0,163.492851 Z M325.495679,104.424466 L305.753371,51.4738782 L286.011064,104.424466 L325.495679,104.424466 Z M337.161587,135.857285 L274.345156,135.857285 L264.249658,163.492851 L217.361679,163.492851 L281.748521,4.43012886 L329.758222,4.43012886 L394.145064,163.492851 L347.257085,163.492851 L337.161587,135.857285 Z M451.100498,70.0382278 L504.718809,4.43012886 L559.010154,4.43012886 L491.931179,79.7423196 L565.291797,163.492851 L508.30832,163.492851 L451.100498,94.5094158 L451.100498,163.492851 L407.128996,163.492851 L407.128996,4.43012886 L451.100498,4.43012886 L451.100498,70.0382278 Z M622.471575,4.43012886 L622.471575,163.492851 L578.500073,163.492851 L578.500073,4.43012886 L622.471575,4.43012886 Z M651.608304,163.492851 L651.608304,4.43012886 L695.579806,4.43012886 L776.792478,101.682005 L776.792478,4.43012886 L820.539635,4.43012886 L820.539635,163.492851 L776.792478,163.492851 L695.579806,66.2409744 L695.579806,163.492851 L651.608304,163.492851 Z M935.15158,74.4683566 L1022.42155,74.4683566 C1022.42155,82.9067395 1022.04765,90.571489 1021.29983,97.462835 C1020.55201,104.354181 1019.0564,110.753192 1016.81294,116.66006 C1013.6721,124.957803 1009.4096,132.306118 1004.02531,138.705225 C998.641017,145.104332 992.322047,150.448561 985.068208,154.738072 C977.81437,159.027584 969.850223,162.297408 961.17553,164.547644 C952.500836,166.797879 943.377589,167.92298 933.805513,167.92298 C920.643909,167.92298 908.641604,165.883735 897.798237,161.805183 C886.954871,157.726631 877.644671,151.995649 869.86736,144.612064 C862.090048,137.228479 856.03281,128.368309 851.695463,118.03129 C847.358117,107.694271 845.189476,96.267466 845.189476,83.7505314 C845.189476,71.3742365 847.320726,60.0177499 851.583291,49.6807308 C855.845856,39.3437118 861.903094,30.5187021 869.755188,23.2054369 C877.607281,15.8921717 887.067042,10.1963487 898.134754,6.117797 C909.202466,2.03924528 921.541285,0 935.15158,0 C952.800094,0 968.279703,3.58625893 981.59087,10.7588844 C994.902038,17.9315098 1005.44612,29.0418806 1013.22343,44.0903301 L971.495372,60.334136 C967.606716,51.6144736 962.559018,45.3561002 956.352125,41.5588279 C950.145233,37.7615556 943.078455,35.8629479 935.15158,35.8629479 C928.570778,35.8629479 922.58832,37.0232082 917.204028,39.3437635 C911.819735,41.6643188 907.220721,44.9693025 903.406847,49.2588138 C899.592973,53.5483251 896.601745,58.7167571 894.433071,64.7642648 C892.264398,70.8117726 891.180078,77.5623776 891.180078,85.0162825 C891.180078,91.7669888 892.114837,98.0253622 893.984383,103.791591 C895.853929,109.557819 898.658205,114.550454 902.397297,118.769645 C906.136389,122.988837 910.772794,126.258661 916.30665,128.579216 C921.840506,130.899772 928.271648,132.060032 935.600268,132.060032 C939.937615,132.060032 944.125335,131.60296 948.163555,130.688801 C952.201774,129.774643 955.828639,128.297948 959.044258,126.258673 C962.259877,124.219397 964.914593,121.582442 967.008484,118.347728 C969.102376,115.113015 970.523209,111.175162 971.271028,106.534051 L935.15158,106.534051 L935.15158,74.4683566 Z M1142.16537,4.43012886 L1171.33014,107.166927 L1207.22525,4.43012886 L1242.22297,4.43012886 L1278.11808,107.166927 L1307.28285,4.43012886 L1353.27345,4.43012886 L1302.79596,163.492851 L1257.92708,163.492851 L1224.72411,71.3039789 L1191.52114,163.492851 L1146.65226,163.492851 L1096.17477,4.43012886 L1142.16537,4.43012886 Z M1447.6944,104.424466 L1427.95209,51.4738782 L1408.20979,104.424466 L1447.6944,104.424466 Z M1459.36031,135.857285 L1396.54388,135.857285 L1386.44838,163.492851 L1339.5604,163.492851 L1403.94724,4.43012886 L1451.95694,4.43012886 L1516.34379,163.492851 L1469.45581,163.492851 L1459.36031,135.857285 Z M1546.37789,4.43012886 L1587.20857,101.260088 L1628.2636,4.43012886 L1676.04895,4.43012886 L1604.70744,163.492851 L1569.70971,163.492851 L1498.59253,4.43012886 L1546.37789,4.43012886 Z M1783.70622,39.4492427 L1731.43398,39.4492427 L1731.43398,66.0300159 L1780.78974,66.0300159 L1780.78974,101.04913 L1731.43398,101.04913 L1731.43398,128.473737 L1783.70622,128.473737 L1783.70622,163.492851 L1687.46247,163.492851 L1687.46247,4.43012886 L1783.70622,4.43012886 L1783.70622,39.4492427 Z M1901.90768,45.1451227 C1897.12164,41.4884901 1892.33567,38.7812162 1887.54963,37.0232198 C1882.7636,35.2652234 1878.12719,34.3862383 1873.64028,34.3862383 C1867.95686,34.3862383 1863.32046,35.6519768 1859.73093,38.1834916 C1856.1414,40.7150065 1854.34666,44.0199902 1854.34666,48.098542 C1854.34666,50.9113363 1855.24403,53.2318567 1857.0388,55.060173 C1858.83356,56.8884893 1861.18915,58.4706624 1864.10564,59.8067397 C1867.02214,61.142817 1870.31249,62.3030772 1873.9768,63.2875552 C1877.64111,64.2720332 1881.26797,65.3268152 1884.8575,66.451933 C1899.21562,70.9524038 1909.72231,76.9646615 1916.37789,84.4888862 C1923.03347,92.0131109 1926.36122,101.822584 1926.36122,113.917599 C1926.36122,122.074703 1924.90299,129.458177 1921.9865,136.068244 C1919.07001,142.67831 1914.80751,148.338974 1909.19887,153.050404 C1903.59023,157.761835 1896.7104,161.418413 1888.55918,164.020247 C1880.40796,166.622082 1871.17255,167.92298 1860.85265,167.92298 C1839.46504,167.92298 1819.64815,161.945882 1801.40139,149.991506 L1820.24632,116.66006 C1826.82712,122.145009 1833.33304,126.2235 1839.76428,128.895654 C1846.19552,131.567809 1852.55188,132.903866 1858.83355,132.903866 C1866.01261,132.903866 1871.35943,131.356852 1874.87418,128.262779 C1878.38892,125.168705 1880.14627,121.652765 1880.14627,117.714853 C1880.14627,115.323978 1879.69759,113.249573 1878.8002,111.491576 C1877.90282,109.73358 1876.40721,108.116248 1874.31332,106.639531 C1872.21942,105.162814 1869.48993,103.791597 1866.12474,102.525839 C1862.75956,101.260082 1858.68401,99.8537059 1853.89797,98.3066691 C1848.21455,96.6189925 1842.64339,94.7555442 1837.18432,92.7162684 C1831.72524,90.6769925 1826.8645,87.9697186 1822.60193,84.5943655 C1818.33937,81.2190123 1814.89945,76.9647247 1812.28209,71.8313752 C1809.66472,66.6980256 1808.35606,60.1935363 1808.35606,52.3177123 C1808.35606,44.4418883 1809.73951,37.3045298 1812.50643,30.9054228 C1815.27336,24.5063158 1819.16196,19.0214492 1824.17234,14.4506584 C1829.18273,9.87986771 1835.31474,6.32876818 1842.56858,3.79725331 C1849.82242,1.26573845 1857.93613,0 1866.90995,0 C1875.28552,0 1884.03486,1.08994144 1893.15824,3.26985702 C1902.28163,5.4497726 1911.03097,8.64927812 1919.40654,12.8684696 L1901.90768,45.1451227 Z" id="path-3"></path>
    </defs>
    <g id="Hero/Landing" stroke="none" stroke-width="1" fill="none" fill-rule="evenodd">
        <g id="Desktop-HD" transform="translate(-186.000000, -286.000000)">
            <g id="Group-3" transform="translate(-796.000000, 282.000000)">
                <g id="Group-2" transform="translate(0.000000, 193.000000)">
                    <g id="Group">
                        <mask id="mask-2" fill="white">
                            <use xlink:href="#path-1"></use>
                        </mask>
                        <g id="Mask"></g>
                        <g id="Group-2" mask="url(#mask-2)" stroke-linecap="square">
                            <g transform="translate(981.292127, 6.108007)" id="Group">
                                <g>
                                    <path d="M45.3476646,158.43502 C101.231416,158.43502 118.923704,154.63865 187.412063,154.63865 C259.45953,154.63865 275.426853,158.43502 363.839313,158.43502 C423.605514,158.43502 467.306062,154.63865 523.775231,154.63865 C584.547432,154.63865 623.909849,158.43502 679.022497,158.43502 C738.860214,158.43502 768.743019,154.63865 833.216823,154.63865 C900.668446,154.63865 920.276524,158.43502 983.452733,158.43502 C1046.62894,158.43502 1073.1564,154.63865 1135.47817,154.63865 C1200.41485,154.63865 1236.14299,158.43502 1292.21997,158.43502 C1358.17445,158.43502 1378.04748,155.282749 1434.63521,155.282749" id="Line-2" stroke="#E81515" stroke-width="3.456"></path>
                                    <path d="M45.3476646,153.120103 C101.231416,153.120103 118.923704,148.56446 187.412063,148.56446 C259.45953,148.56446 275.426853,153.120103 363.839313,153.120103 C423.605514,153.120103 467.306062,148.56446 523.775231,148.56446 C584.547432,148.56446 623.909849,153.120103 679.022497,153.120103 C738.860214,153.120103 768.743019,148.56446 833.216823,148.56446 C900.668446,148.56446 920.276524,153.120103 983.452733,153.120103 C1046.62894,153.120103 1073.1564,148.56446 1135.47817,148.56446 C1200.41485,148.56446 1236.14299,153.120103 1292.21997,153.120103 C1358.17445,153.120103 1378.04748,149.216146 1434.63521,149.216146" id="Line-2" stroke="#E81515" stroke-width="3.456"></path>
                                    <path d="M45.3476646,147.045912 C101.231416,147.045912 118.923704,141.730995 187.412063,141.730995 C259.45953,141.730995 275.426853,147.045912 363.839313,147.045912 C423.605514,147.045912 467.306062,141.730995 523.775231,141.730995 C584.547432,141.730995 623.909849,147.045912 679.022497,147.045912 C738.860214,147.045912 768.743019,141.730995 833.216823,141.730995 C900.668446,141.730995 920.276524,147.045912 983.452733,147.045912 C1046.62894,147.045912 1073.1564,141.730995 1135.47817,141.730995 C1200.41485,141.730995 1236.14299,147.045912 1292.21997,147.045912 C1358.17445,147.045912 1378.04748,142.388211 1434.63521,142.388211" id="Line-2" stroke="#E81515" stroke-width="3.456"></path>
                                    <path d="M45.3476646,140.971721 C101.231416,140.971721 118.923704,134.89753 187.412063,134.89753 C259.45953,134.89753 275.426853,140.971721 363.839313,140.971721 C423.605514,140.971721 467.306062,134.89753 523.775231,134.89753 C584.547432,134.89753 623.909849,140.971721 679.022497,140.971721 C738.860214,140.971721 768.743019,134.89753 833.216823,134.89753 C900.668446,134.89753 920.276524,140.971721 983.452733,140.971721 C1046.62894,140.971721 1073.1564,134.89753 1135.47817,134.89753 C1200.41485,134.89753 1236.14299,140.971721 1292.21997,140.971721 C1358.17445,140.971721 1378.04748,135.558956 1434.63521,135.558956" id="Line-2" stroke="#E81515" stroke-width="3.456"></path>
                                    <path d="M45.3476646,135.656804 C101.231416,135.656804 118.923704,128.82334 187.412063,128.82334 C259.45953,128.82334 275.426853,135.656804 363.839313,135.656804 C423.605514,135.656804 467.306062,128.82334 523.775231,128.82334 C584.547432,128.82334 623.909849,135.656804 679.022497,135.656804 C738.860214,135.656804 768.743019,128.82334 833.216823,128.82334 C900.668446,128.82334 920.276524,135.656804 983.452733,135.656804 C1046.62894,135.656804 1073.1564,128.82334 1135.47817,128.82334 C1200.41485,128.82334 1236.14299,135.656804 1292.21997,135.656804 C1358.17445,135.656804 1378.04748,129.488077 1434.63521,129.488077" id="Line-2" stroke="#E81515" stroke-width="3.456"></path>
                                    <path d="M45.3476646,129.582614 C101.231416,129.582614 118.923704,121.989875 187.412063,121.989875 C259.45953,121.989875 275.426853,129.582614 363.839313,129.582614 C423.605514,129.582614 467.306062,121.989875 523.775231,121.989875 C584.547432,121.989875 623.909849,129.582614 679.022497,129.582614 C738.860214,129.582614 768.743019,121.989875 833.216823,121.989875 C900.668446,121.989875 920.276524,129.582614 983.452733,129.582614 C1046.62894,129.582614 1073.1564,121.989875 1135.47817,121.989875 C1200.41485,121.989875 1236.14299,129.582614 1292.21997,129.582614 C1358.17445,129.582614 1378.04748,122.657285 1434.63521,122.657285" id="Line-2" stroke="#E81515" stroke-width="3.456"></path>
                                    <path d="M45.3476646,123.508423 C101.231416,123.508423 118.923704,115.15641 187.412063,115.15641 C259.45953,115.15641 275.426853,123.508423 363.839313,123.508423 C423.605514,123.508423 467.306062,115.15641 523.775231,115.15641 C584.547432,115.15641 623.909849,123.508423 679.022497,123.508423 C738.860214,123.508423 768.743019,115.15641 833.216823,115.15641 C900.668446,115.15641 920.276524,123.508423 983.452733,123.508423 C1046.62894,123.508423 1073.1564,115.15641 1135.47817,115.15641 C1200.41485,115.15641 1236.14299,123.508423 1292.21997,123.508423 C1358.17445,123.508423 1378.04748,115.826024 1434.63521,115.826024" id="Line-2" stroke="#E81515" stroke-width="3.456"></path>
                                    <path d="M45.3476646,117.434232 C101.231416,117.434232 118.923704,108.322946 187.412063,108.322946 C259.45953,108.322946 275.426853,117.434232 363.839313,117.434232 C423.605514,117.434232 467.306062,108.322946 523.775231,108.322946 C584.547432,108.322946 623.909849,117.434232 679.022497,117.434232 C738.860214,117.434232 768.743019,108.322946 833.216823,108.322946 C900.668446,108.322946 920.276524,117.434232 983.452733,117.434232 C1046.62894,117.434232 1073.1564,108.322946 1135.47817,108.322946 C1200.41485,108.322946 1236.14299,117.434232 1292.21997,117.434232 C1358.17445,117.434232 1378.04748,108.994407 1434.63521,108.994407" id="Line-2" stroke="#E81515" stroke-width="3.456"></path>
                                    <path d="M45.3476646,111.360041 C101.231416,111.360041 118.923704,101.489481 187.412063,101.489481 C259.45953,101.489481 275.426853,111.360041 363.839313,111.360041 C423.605514,111.360041 467.306062,101.489481 523.775231,101.489481 C584.547432,101.489481 623.909849,111.360041 679.022497,111.360041 C738.860214,111.360041 768.743019,101.489481 833.216823,101.489481 C900.668446,101.489481 920.276524,111.360041 983.452733,111.360041 C1046.62894,111.360041 1073.1564,101.489481 1135.47817,101.489481 C1200.41485,101.489481 1236.14299,111.360041 1292.21997,111.360041 C1358.17445,111.360041 1378.04748,102.162513 1434.63521,102.162513" id="Line-2" stroke="#E81515" stroke-width="3.456"></path>
                                    <path d="M45.3476646,105.175593 C101.231416,105.175593 118.923704,94.5457591 187.412063,94.5457591 C259.45953,94.5457591 275.426853,105.175593 363.839313,105.175593 C423.605514,105.175593 467.306062,94.5457591 523.775231,94.5457591 C584.547432,94.5457591 623.909849,105.175593 679.022497,105.175593 C738.860214,105.175593 768.743019,94.5457591 833.216823,94.5457591 C900.668446,94.5457591 920.276524,105.175593 983.452733,105.175593 C1046.62894,105.175593 1073.1564,94.5457591 1135.47817,94.5457591 C1200.41485,94.5457591 1236.14299,105.175593 1292.21997,105.175593 C1358.17445,105.175593 1378.04748,95.2201432 1434.63521,95.2201432" id="Line-2" stroke="#E81515" stroke-width="3.456"></path>
                                    <path d="M45.3476646,98.4523859 C101.231416,98.4523859 118.923704,87.0632782 187.412063,87.0632782 C259.45953,87.0632782 275.426853,98.4523859 363.839313,98.4523859 C423.605514,98.4523859 467.306062,87.0632782 523.775231,87.0632782 C584.547432,87.0632782 623.909849,98.4523859 679.022497,98.4523859 C738.860214,98.4523859 768.743019,87.0632782 833.216823,87.0632782 C900.668446,87.0632782 920.276524,98.4523859 983.452733,98.4523859 C1046.62894,98.4523859 1073.1564,87.0632782 1135.47817,87.0632782 C1200.41485,87.0632782 1236.14299,98.4523859 1292.21997,98.4523859 C1358.17445,98.4523859 1378.04748,87.7388388 1434.63521,87.7388388" id="Line-2" stroke="#E81515" stroke-width="3.456"></path>
                                    <path d="M45.3476646,92.3841039 C101.231416,92.3841039 118.923704,80.2357224 187.412063,80.2357224 C259.45953,80.2357224 275.426853,92.3841039 363.839313,92.3841039 C423.605514,92.3841039 467.306062,80.2357224 523.775231,80.2357224 C584.547432,80.2357224 623.909849,92.3841039 679.022497,92.3841039 C738.860214,92.3841039 768.743019,80.2357224 833.216823,80.2357224 C900.668446,80.2357224 920.276524,92.3841039 983.452733,92.3841039 C1046.62894,92.3841039 1073.1564,80.2357224 1135.47817,80.2357224 C1200.41485,80.2357224 1236.14299,92.3841039 1292.21997,92.3841039 C1358.17445,92.3841039 1378.04748,80.9123157 1434.63521,80.9123157" id="Line-2" stroke="#E81515" stroke-width="3.456"></path>
                                    <path d="M49.4701795,85.8037612 C105.353931,85.8037612 123.046219,72.8961059 191.534578,72.8961059 C263.582045,72.8961059 279.549368,85.8037612 367.961828,85.8037612 C427.728029,85.8037612 471.428577,72.8961059 527.897746,72.8961059 C588.669947,72.8961059 628.032364,85.8037612 683.145012,85.8037612 C742.982729,85.8037612 772.865534,72.8961059 837.339338,72.8961059 C904.790961,72.8961059 924.399039,85.8037612 987.575248,85.8037612 C1050.75146,85.8037612 1077.27892,72.8961059 1139.60069,72.8961059 C1204.53736,72.8961059 1240.26551,85.8037612 1296.34249,85.8037612 C1362.29697,85.8037612 1382.16999,73.5805062 1438.75772,73.5805062" id="Line-2" stroke="#E81515" stroke-width="3.456"></path>
                                    <path d="M49.4701795,79.4824492 C105.353931,79.4824492 123.046219,65.81552 191.534578,65.81552 C263.582045,65.81552 279.549368,79.4824492 367.961828,79.4824492 C427.728029,79.4824492 471.428577,65.81552 527.897746,65.81552 C588.669947,65.81552 628.032364,79.4824492 683.145012,79.4824492 C742.982729,79.4824492 772.865534,65.81552 837.339338,65.81552 C904.790961,65.81552 924.399039,79.4824492 987.575248,79.4824492 C1050.75146,79.4824492 1077.27892,65.81552 1139.60069,65.81552 C1204.53736,65.81552 1240.26551,79.4824492 1296.34249,79.4824492 C1362.29697,79.4824492 1382.16999,66.5070127 1438.75772,66.5070127" id="Line-2" stroke="#E81515" stroke-width="3.456"></path>
                                    <path d="M49.4701795,72.8961059 C105.353931,72.8961059 123.046219,58.4699028 191.534578,58.4699028 C263.582045,58.4699028 279.549368,72.8961059 367.961828,72.8961059 C427.728029,72.8961059 471.428577,58.4699028 527.897746,58.4699028 C588.669947,58.4699028 628.032364,72.8961059 683.145012,72.8961059 C742.982729,72.8961059 772.865534,58.4699028 837.339338,58.4699028 C904.790961,58.4699028 924.399039,72.8961059 987.575248,72.8961059 C1050.75146,72.8961059 1077.27892,58.4699028 1139.60069,58.4699028 C1204.53736,58.4699028 1240.26551,72.8961059 1296.34249,72.8961059 C1362.29697,72.8961059 1382.16999,59.167867 1438.75772,59.167867" id="Line-2" stroke="#E81515" stroke-width="3.456"></path>
                                    <path d="M49.4701795,65.7977018 C105.353931,65.7977018 123.046219,51.3714988 191.534578,51.3714988 C263.582045,51.3714988 279.549368,65.7977018 367.961828,65.7977018 C427.728029,65.7977018 471.428577,51.3714988 527.897746,51.3714988 C588.669947,51.3714988 628.032364,65.7977018 683.145012,65.7977018 C742.982729,65.7977018 772.865534,51.3714988 837.339338,51.3714988 C904.790961,51.3714988 924.399039,65.7977018 987.575248,65.7977018 C1050.75146,65.7977018 1077.27892,51.3714988 1139.60069,51.3714988 C1204.53736,51.3714988 1240.26551,65.7977018 1296.34249,65.7977018 C1362.29697,65.7977018 1382.16999,52.0694629 1438.75772,52.0694629" id="Line-2" stroke="#E81515" stroke-width="3.456"></path>
                                    <path d="M49.4701795,59.7294198 C105.353931,59.7294198 123.046219,44.5439429 191.534578,44.5439429 C263.582045,44.5439429 279.549368,59.7294198 367.961828,59.7294198 C427.728029,59.7294198 471.428577,44.5439429 527.897746,44.5439429 C588.669947,44.5439429 628.032364,59.7294198 683.145012,59.7294198 C742.982729,59.7294198 772.865534,44.5439429 837.339338,44.5439429 C904.790961,44.5439429 924.399039,59.7294198 987.575248,59.7294198 C1050.75146,59.7294198 1077.27892,44.5439429 1139.60069,44.5439429 C1204.53736,44.5439429 1240.26551,59.7294198 1296.34249,59.7294198 C1362.29697,59.7294198 1382.16999,45.2478359 1438.75772,45.2478359" id="Line-2" stroke="#E81515" stroke-width="3.456"></path>
                                    <path d="M49.4701795,52.0436355 C105.353931,52.0436355 123.046219,37.4692658 191.534578,37.4692658 C263.582045,37.4692658 279.549368,52.6547427 367.961828,52.6547427 C427.728029,52.6547427 471.428577,37.4692658 527.897746,37.4692658 C588.669947,37.4692658 628.032364,52.6547427 683.145012,52.6547427 C742.982729,52.6547427 772.865534,37.4692658 837.339338,37.4692658 C904.790961,37.4692658 924.399039,52.6547427 987.575248,52.6547427 C1050.75146,52.6547427 1077.27892,37.4692658 1139.60069,37.4692658 C1204.53736,37.4692658 1240.26551,52.6547427 1296.34249,52.6547427 C1362.29697,52.6547427 1382.16999,38.1448322 1438.75772,38.1448322" id="Line-2" stroke="#E81515" stroke-width="3.456"></path>
                                    <path d="M49.4701795,45.4575609 C105.353931,45.4575609 123.046219,30.1296493 191.534578,30.1296493 C263.582045,30.1296493 279.549368,46.0744001 367.961828,46.0744001 C427.728029,46.0744001 471.428577,30.1296493 527.897746,30.1296493 C588.669947,30.1296493 628.032364,46.0744001 683.145012,46.0744001 C742.982729,46.0744001 772.865534,30.1296493 837.339338,30.1296493 C904.790961,30.1296493 924.399039,46.0744001 987.575248,46.0744001 C1050.75146,46.0744001 1077.27892,30.1296493 1139.60069,30.1296493 C1204.53736,30.1296493 1240.26551,46.0744001 1296.34249,46.0744001 C1362.29697,46.0744001 1382.16999,30.8115522 1438.75772,30.8115522" id="Line-2" stroke="#E81515" stroke-width="3.456"></path>
                                    <path d="M49.4701795,38.6162716 C105.353931,38.6162716 123.046219,22.5310021 191.534578,22.5310021 C263.582045,22.5310021 279.549368,39.2350267 367.961828,39.2350267 C427.728029,39.2350267 471.428577,22.5310021 527.897746,22.5310021 C588.669947,22.5310021 628.032364,39.2350267 683.145012,39.2350267 C742.982729,39.2350267 772.865534,22.5310021 837.339338,22.5310021 C904.790961,22.5310021 924.399039,39.2350267 987.575248,39.2350267 C1050.75146,39.2350267 1077.27892,22.5310021 1139.60069,22.5310021 C1204.53736,22.5310021 1240.26551,39.2350267 1296.34249,39.2350267 C1362.29697,39.2350267 1382.16999,23.2150231 1438.75772,23.2150231" id="Line-2" stroke="#E81515" stroke-width="3.456"></path>
                                    <path d="M49.4701795,24.4414307 C105.353931,24.4414307 123.046219,7.59864719 191.534578,7.59864719 C263.582045,7.59864719 279.549368,25.0619456 367.961828,25.0619456 C427.728029,25.0619456 471.428577,7.59864719 527.897746,7.59864719 C588.669947,7.59864719 628.032364,25.0619456 683.145012,25.0619456 C742.982729,25.0619456 772.865534,7.59864719 837.339338,7.59864719 C904.790961,7.59864719 924.399039,25.0619456 987.575248,25.0619456 C1050.75146,25.0619456 1077.27892,7.59864719 1139.60069,7.59864719 C1204.53736,7.59864719 1240.26551,25.0619456 1296.34249,25.0619456 C1362.29697,25.0619456 1382.16999,8.28461348 1438.75772,8.28461348" id="Line-2" stroke="#E81515" stroke-width="3.456"></path>
                                    <path d="M49.4701795,31.7810472 C105.353931,31.7810472 123.046219,14.9382637 191.534578,14.9382637 C263.582045,14.9382637 279.549368,32.4015621 367.961828,32.4015621 C427.728029,32.4015621 471.428577,14.9382637 527.897746,14.9382637 C588.669947,14.9382637 628.032364,32.4015621 683.145012,32.4015621 C742.982729,32.4015621 772.865534,14.9382637 837.339338,14.9382637 C904.790961,14.9382637 924.399039,32.4015621 987.575248,32.4015621 C1050.75146,32.4015621 1077.27892,14.9382637 1139.60069,14.9382637 C1204.53736,14.9382637 1240.26551,32.4015621 1296.34249,32.4015621 C1362.29697,32.4015621 1382.16999,15.62423 1438.75772,15.62423" id="Line-2" stroke="#E81515" stroke-width="3.456"></path>
                                    <path d="M50.5799692,17.6004354 C106.463721,17.6004354 124.156009,0 192.644367,0 C264.691834,0 280.659158,18.2225723 369.071618,18.2225723 C428.837819,18.2225723 472.538366,0 529.007535,0 C589.779737,0 629.142154,18.2225723 684.254801,18.2225723 C744.092519,18.2225723 773.975324,0 838.449127,0 C905.900751,0 925.508829,18.2225723 988.685038,18.2225723 C1051.86125,18.2225723 1078.38871,0 1140.71048,0 C1205.64715,0 1241.3753,18.2225723 1297.45228,18.2225723 C1363.40676,18.2225723 1383.27978,0.6877593 1439.86751,0.6877593" id="Line-2" stroke="#E81515" stroke-width="3.456"></path>
                                </g>
                            </g>
                        </g>
                    </g>
                </g>
                <g id="Group-2" transform="translate(982.000000, 0.000000)">
                    <g id="Group">
                        <mask id="mask-4" fill="white">
                            <use xlink:href="#path-3"></use>
                        </mask>
                        <g id="Mask"></g>
                        <g id="Group-2" mask="url(#mask-4)" stroke-linecap="square">
                            <g transform="translate(-264.829420, 6.256983)" id="Group">
                                <g>
                                    <path d="M2.133921,201.6892 L1384.91473,201.6892" id="Line-2" stroke="#E81515" stroke-width="3.456"></path>
                                    <path d="M38.7443757,190.299826 C91.2652542,190.299826 107.892887,189.568791 172.259875,189.568791 C239.971797,189.568791 254.978267,190.299826 338.070399,190.299826 C394.240095,190.299826 435.310909,189.568791 488.381976,189.568791 C545.497136,189.568791 582.490871,190.299826 634.287048,190.299826 C690.523957,190.299826 718.608527,189.568791 779.202541,189.568791 C842.59518,189.568791 861.023318,190.299826 920.397821,190.299826 C979.772324,190.299826 1004.70346,189.568791 1063.27495,189.568791 C1124.30397,189.568791 1157.88213,190.299826 1210.58461,190.299826 C1272.5702,190.299826 1291.24734,189.522034 1344.42984,189.522034" id="Line-2" stroke="#E81515" stroke-width="3.456"></path>
                                    <path d="M38.7443757,184.855277 C91.2652542,184.855277 107.892887,183.299692 172.259875,183.299692 C239.971797,183.299692 254.978267,184.855277 338.070399,184.855277 C394.240095,184.855277 435.310909,183.299692 488.381976,183.299692 C545.497136,183.299692 582.490871,184.855277 634.287048,184.855277 C690.523957,184.855277 718.608527,183.299692 779.202541,183.299692 C842.59518,183.299692 861.023318,184.855277 920.397821,184.855277 C979.772324,184.855277 1004.70346,183.299692 1063.27495,183.299692 C1124.30397,183.299692 1157.88213,184.855277 1210.58461,184.855277 C1272.5702,184.855277 1291.24734,183.896918 1344.42984,183.896918" id="Line-2" stroke="#E81515" stroke-width="3.456"></path>
                                    <path d="M42.6188132,179.410728 C95.1396918,179.410728 111.767324,177.07735 176.134312,177.07735 C243.846234,177.07735 258.852704,179.410728 341.944836,179.410728 C398.114533,179.410728 439.185346,177.07735 492.256414,177.07735 C549.371574,177.07735 586.365309,179.410728 638.161485,179.410728 C694.398395,179.410728 722.482965,177.07735 783.076979,177.07735 C846.469618,177.07735 864.897756,179.410728 924.272259,179.410728 C983.646761,179.410728 1008.5779,177.07735 1067.14938,177.07735 C1128.17841,177.07735 1161.75657,179.410728 1214.45905,179.410728 C1276.44464,179.410728 1295.12178,177.707797 1348.30427,177.707797" id="Line-2" stroke="#E81515" stroke-width="3.456"></path>
                                    <path d="M42.6188132,173.966179 C95.1396918,173.966179 111.767324,170.855008 176.134312,170.855008 C243.846234,170.855008 258.852704,173.966179 341.944836,173.966179 C398.114533,173.966179 439.185346,170.855008 492.256414,170.855008 C549.371574,170.855008 586.365309,173.966179 638.161485,173.966179 C694.398395,173.966179 722.482965,170.855008 783.076979,170.855008 C846.469618,170.855008 864.897756,173.966179 924.272259,173.966179 C983.646761,173.966179 1008.5779,170.855008 1067.14938,170.855008 C1128.17841,170.855008 1161.75657,173.966179 1214.45905,173.966179 C1276.44464,173.966179 1295.12178,171.503491 1348.30427,171.503491" id="Line-2" stroke="#E81515" stroke-width="3.456"></path>
                                    <path d="M42.6188132,167.743837 C95.1396918,167.743837 111.767324,164.632667 176.134312,164.632667 C243.846234,164.632667 258.852704,167.743837 341.944836,167.743837 C398.114533,167.743837 439.185346,164.632667 492.256414,164.632667 C549.371574,164.632667 586.365309,167.743837 638.161485,167.743837 C694.398395,167.743837 722.482965,164.632667 783.076979,164.632667 C846.469618,164.632667 864.897756,167.743837 924.272259,167.743837 C983.646761,167.743837 1008.5779,164.632667 1067.14938,164.632667 C1128.17841,164.632667 1161.75657,167.743837 1214.45905,167.743837 C1276.44464,167.743837 1295.12178,165.281149 1348.30427,165.281149" id="Line-2" stroke="#E81515" stroke-width="3.456"></path>
                                    <path d="M42.6188132,162.299288 C95.1396918,162.299288 111.767324,158.410325 176.134312,158.410325 C243.846234,158.410325 258.852704,162.299288 341.944836,162.299288 C398.114533,162.299288 439.185346,158.410325 492.256414,158.410325 C549.371574,158.410325 586.365309,162.299288 638.161485,162.299288 C694.398395,162.299288 722.482965,158.410325 783.076979,158.410325 C846.469618,158.410325 864.897756,162.299288 924.272259,162.299288 C983.646761,162.299288 1008.5779,158.410325 1067.14938,158.410325 C1128.17841,158.410325 1161.75657,162.299288 1214.45905,162.299288 C1276.44464,162.299288 1295.12178,159.070133 1348.30427,159.070133" id="Line-2" stroke="#E81515" stroke-width="3.456"></path>
                                    <path d="M42.6188132,156.854739 C95.1396918,156.854739 111.767324,152.187983 176.134312,152.187983 C243.846234,152.187983 258.852704,156.854739 341.944836,156.854739 C398.114533,156.854739 439.185346,152.187983 492.256414,152.187983 C549.371574,152.187983 586.365309,156.854739 638.161485,156.854739 C694.398395,156.854739 722.482965,152.187983 783.076979,152.187983 C846.469618,152.187983 864.897756,156.854739 924.272259,156.854739 C983.646761,156.854739 1008.5779,152.187983 1067.14938,152.187983 C1128.17841,152.187983 1161.75657,156.854739 1214.45905,156.854739 C1276.44464,156.854739 1295.12178,152.855564 1348.30427,152.855564" id="Line-2" stroke="#E81515" stroke-width="3.456"></path>
                                    <path d="M42.6188132,150.632398 C95.1396918,150.632398 111.767324,145.187849 176.134312,145.187849 C243.846234,145.187849 258.852704,150.632398 341.944836,150.632398 C398.114533,150.632398 439.185346,145.187849 492.256414,145.187849 C549.371574,145.187849 586.365309,150.632398 638.161485,150.632398 C694.398395,150.632398 722.482965,145.187849 783.076979,145.187849 C846.469618,145.187849 864.897756,150.632398 924.272259,150.632398 C983.646761,150.632398 1008.5779,145.187849 1067.14938,145.187849 C1128.17841,145.187849 1161.75657,150.632398 1214.45905,150.632398 C1276.44464,150.632398 1295.12178,145.861094 1348.30427,145.861094" id="Line-2" stroke="#E81515" stroke-width="3.456"></path>
                                    <path d="M42.6188132,144.410056 C95.1396918,144.410056 111.767324,138.187714 176.134312,138.187714 C243.846234,138.187714 258.852704,144.410056 341.944836,144.410056 C398.114533,144.410056 439.185346,138.187714 492.256414,138.187714 C549.371574,138.187714 586.365309,144.410056 638.161485,144.410056 C694.398395,144.410056 722.482965,138.187714 783.076979,138.187714 C846.469618,138.187714 864.897756,144.410056 924.272259,144.410056 C983.646761,144.410056 1008.5779,138.187714 1067.14938,138.187714 C1128.17841,138.187714 1161.75657,144.410056 1214.45905,144.410056 C1276.44464,144.410056 1295.12178,138.865272 1348.30427,138.865272" id="Line-2" stroke="#E81515" stroke-width="3.456"></path>
                                    <path d="M42.6188132,138.965507 C95.1396918,138.965507 111.767324,131.965372 176.134312,131.965372 C243.846234,131.965372 258.852704,138.965507 341.944836,138.965507 C398.114533,138.965507 439.185346,131.965372 492.256414,131.965372 C549.371574,131.965372 586.365309,138.965507 638.161485,138.965507 C694.398395,138.965507 722.482965,131.965372 783.076979,131.965372 C846.469618,131.965372 864.897756,138.965507 924.272259,138.965507 C983.646761,138.965507 1008.5779,131.965372 1067.14938,131.965372 C1128.17841,131.965372 1161.75657,138.965507 1214.45905,138.965507 C1276.44464,138.965507 1295.12178,132.646323 1348.30427,132.646323" id="Line-2" stroke="#E81515" stroke-width="3.456"></path>
                                    <path d="M42.6188132,132.743165 C95.1396918,132.743165 111.767324,124.965238 176.134312,124.965238 C243.846234,124.965238 258.852704,132.743165 341.944836,132.743165 C398.114533,132.743165 439.185346,124.965238 492.256414,124.965238 C549.371574,124.965238 586.365309,132.743165 638.161485,132.743165 C694.398395,132.743165 722.482965,124.965238 783.076979,124.965238 C846.469618,124.965238 864.897756,132.743165 924.272259,132.743165 C983.646761,132.743165 1008.5779,124.965238 1067.14938,124.965238 C1128.17841,124.965238 1161.75657,132.743165 1214.45905,132.743165 C1276.44464,132.743165 1295.12178,125.648926 1348.30427,125.648926" id="Line-2" stroke="#E81515" stroke-width="3.456"></path>
                                    <path d="M42.6188132,126.520823 C95.1396918,126.520823 111.767324,117.965103 176.134312,117.965103 C243.846234,117.965103 258.852704,126.520823 341.944836,126.520823 C398.114533,126.520823 439.185346,117.965103 492.256414,117.965103 C549.371574,117.965103 586.365309,126.520823 638.161485,126.520823 C694.398395,126.520823 722.482965,117.965103 783.076979,117.965103 C846.469618,117.965103 864.897756,126.520823 924.272259,126.520823 C983.646761,126.520823 1008.5779,117.965103 1067.14938,117.965103 C1128.17841,117.965103 1161.75657,126.520823 1214.45905,126.520823 C1276.44464,126.520823 1295.12178,118.651049 1348.30427,118.651049" id="Line-2" stroke="#E81515" stroke-width="3.456"></path>
                                    <path d="M42.6188132,120.298482 C95.1396918,120.298482 111.767324,110.964969 176.134312,110.964969 C243.846234,110.964969 258.852704,120.298482 341.944836,120.298482 C398.114533,120.298482 439.185346,110.964969 492.256414,110.964969 C549.371574,110.964969 586.365309,120.298482 638.161485,120.298482 C694.398395,120.298482 722.482965,110.964969 783.076979,110.964969 C846.469618,110.964969 864.897756,120.298482 924.272259,120.298482 C983.646761,120.298482 1008.5779,110.964969 1067.14938,110.964969 C1128.17841,110.964969 1161.75657,120.298482 1214.45905,120.298482 C1276.44464,120.298482 1295.12178,111.652807 1348.30427,111.652807" id="Line-2" stroke="#E81515" stroke-width="3.456"></path>
                                    <path d="M42.6188132,114.07614 C95.1396918,114.07614 111.767324,103.964834 176.134312,103.964834 C243.846234,103.964834 258.852704,114.07614 341.944836,114.07614 C398.114533,114.07614 439.185346,103.964834 492.256414,103.964834 C549.371574,103.964834 586.365309,114.07614 638.161485,114.07614 C694.398395,114.07614 722.482965,103.964834 783.076979,103.964834 C846.469618,103.964834 864.897756,114.07614 924.272259,114.07614 C983.646761,114.07614 1008.5779,103.964834 1067.14938,103.964834 C1128.17841,103.964834 1161.75657,114.07614 1214.45905,114.07614 C1276.44464,114.07614 1295.12178,104.654282 1348.30427,104.654282" id="Line-2" stroke="#E81515" stroke-width="3.456"></path>
                                    <path d="M42.6188132,107.740851 C95.1396918,107.740851 111.767324,96.8517532 176.134312,96.8517532 C243.846234,96.8517532 258.852704,107.740851 341.944836,107.740851 C398.114533,107.740851 439.185346,96.8517532 492.256414,96.8517532 C549.371574,96.8517532 586.365309,107.740851 638.161485,107.740851 C694.398395,107.740851 722.482965,96.8517532 783.076979,96.8517532 C846.469618,96.8517532 864.897756,107.740851 924.272259,107.740851 C983.646761,107.740851 1008.5779,96.8517532 1067.14938,96.8517532 C1128.17841,96.8517532 1161.75657,107.740851 1214.45905,107.740851 C1276.44464,107.740851 1295.12178,97.5425857 1348.30427,97.5425857" id="Line-2" stroke="#E81515" stroke-width="3.456"></path>
                                    <path d="M42.6188132,100.853664 C95.1396918,100.853664 111.767324,89.1867728 176.134312,89.1867728 C243.846234,89.1867728 258.852704,100.853664 341.944836,100.853664 C398.114533,100.853664 439.185346,89.1867728 492.256414,89.1867728 C549.371574,89.1867728 586.365309,100.853664 638.161485,100.853664 C694.398395,100.853664 722.482965,89.1867728 783.076979,89.1867728 C846.469618,89.1867728 864.897756,100.853664 924.272259,100.853664 C983.646761,100.853664 1008.5779,89.1867728 1067.14938,89.1867728 C1128.17841,89.1867728 1161.75657,100.853664 1214.45905,100.853664 C1276.44464,100.853664 1295.12178,89.8788105 1348.30427,89.8788105" id="Line-2" stroke="#E81515" stroke-width="3.456"></path>
                                    <path d="M42.6188132,94.6373747 C95.1396918,94.6373747 111.767324,82.1926912 176.134312,82.1926912 C243.846234,82.1926912 258.852704,94.6373747 341.944836,94.6373747 C398.114533,94.6373747 439.185346,82.1926912 492.256414,82.1926912 C549.371574,82.1926912 586.365309,94.6373747 638.161485,94.6373747 C694.398395,94.6373747 722.482965,82.1926912 783.076979,82.1926912 C846.469618,82.1926912 864.897756,94.6373747 924.272259,94.6373747 C983.646761,94.6373747 1008.5779,82.1926912 1067.14938,82.1926912 C1128.17841,82.1926912 1161.75657,94.6373747 1214.45905,94.6373747 C1276.44464,94.6373747 1295.12178,82.8857868 1348.30427,82.8857868" id="Line-2" stroke="#E81515" stroke-width="3.456"></path>
                                    <path d="M46.4932508,87.8965359 C99.0141294,87.8965359 115.641762,74.6740597 180.00875,74.6740597 C247.720672,74.6740597 262.727142,87.8965359 345.819274,87.8965359 C401.988971,87.8965359 443.059784,74.6740597 496.130851,74.6740597 C553.246011,74.6740597 590.239746,87.8965359 642.035923,87.8965359 C698.272832,87.8965359 726.357402,74.6740597 786.951416,74.6740597 C850.344056,74.6740597 868.772193,87.8965359 928.146696,87.8965359 C987.521199,87.8965359 1012.45234,74.6740597 1071.02382,74.6740597 C1132.05285,74.6740597 1165.63101,87.8965359 1218.33349,87.8965359 C1280.31908,87.8965359 1298.99622,75.3751527 1352.17871,75.3751527" id="Line-2" stroke="#E81515" stroke-width="3.456"></path>
                                    <path d="M46.4932508,81.4210456 C99.0141294,81.4210456 115.641762,67.4207766 180.00875,67.4207766 C247.720672,67.4207766 262.727142,81.4210456 345.819274,81.4210456 C401.988971,81.4210456 443.059784,67.4207766 496.130851,67.4207766 C553.246011,67.4207766 590.239746,81.4210456 642.035923,81.4210456 C698.272832,81.4210456 726.357402,67.4207766 786.951416,67.4207766 C850.344056,67.4207766 868.772193,81.4210456 928.146696,81.4210456 C987.521199,81.4210456 1012.45234,67.4207766 1071.02382,67.4207766 C1132.05285,67.4207766 1165.63101,81.4210456 1218.33349,81.4210456 C1280.31908,81.4210456 1298.99622,68.1291349 1352.17871,68.1291349" id="Line-2" stroke="#E81515" stroke-width="3.456"></path>
                                    <path d="M46.4932508,74.6740597 C99.0141294,74.6740597 115.641762,59.895998 180.00875,59.895998 C247.720672,59.895998 262.727142,74.6740597 345.819274,74.6740597 C401.988971,74.6740597 443.059784,59.895998 496.130851,59.895998 C553.246011,59.895998 590.239746,74.6740597 642.035923,74.6740597 C698.272832,74.6740597 726.357402,59.895998 786.951416,59.895998 C850.344056,59.895998 868.772193,74.6740597 928.146696,74.6740597 C987.521199,74.6740597 1012.45234,59.895998 1071.02382,59.895998 C1132.05285,59.895998 1165.63101,74.6740597 1218.33349,74.6740597 C1280.31908,74.6740597 1298.99622,60.6109857 1352.17871,60.6109857" id="Line-2" stroke="#E81515" stroke-width="3.456"></path>
                                    <path d="M46.4932508,67.4025238 C99.0141294,67.4025238 115.641762,52.6244622 180.00875,52.6244622 C247.720672,52.6244622 262.727142,67.4025238 345.819274,67.4025238 C401.988971,67.4025238 443.059784,52.6244622 496.130851,52.6244622 C553.246011,52.6244622 590.239746,67.4025238 642.035923,67.4025238 C698.272832,67.4025238 726.357402,52.6244622 786.951416,52.6244622 C850.344056,52.6244622 868.772193,67.4025238 928.146696,67.4025238 C987.521199,67.4025238 1012.45234,52.6244622 1071.02382,52.6244622 C1132.05285,52.6244622 1165.63101,67.4025238 1218.33349,67.4025238 C1280.31908,67.4025238 1298.99622,53.3394498 1352.17871,53.3394498" id="Line-2" stroke="#E81515" stroke-width="3.456"></path>
                                    <path d="M46.4932508,61.1862349 C99.0141294,61.1862349 115.641762,45.6303806 180.00875,45.6303806 C247.720672,45.6303806 262.727142,61.1862349 345.819274,61.1862349 C401.988971,61.1862349 443.059784,45.6303806 496.130851,45.6303806 C553.246011,45.6303806 590.239746,61.1862349 642.035923,61.1862349 C698.272832,61.1862349 726.357402,45.6303806 786.951416,45.6303806 C850.344056,45.6303806 868.772193,61.1862349 928.146696,61.1862349 C987.521199,61.1862349 1012.45234,45.6303806 1071.02382,45.6303806 C1132.05285,45.6303806 1165.63101,61.1862349 1218.33349,61.1862349 C1280.31908,61.1862349 1298.99622,46.3514417 1352.17871,46.3514417" id="Line-2" stroke="#E81515" stroke-width="3.456"></path>
                                    <path d="M46.4932508,53.3129925 C99.0141294,53.3129925 115.641762,38.3831504 180.00875,38.3831504 C247.720672,38.3831504 262.727142,53.9390048 345.819274,53.9390048 C401.988971,53.9390048 443.059784,38.3831504 496.130851,38.3831504 C553.246011,38.3831504 590.239746,53.9390048 642.035923,53.9390048 C698.272832,53.9390048 726.357402,38.3831504 786.951416,38.3831504 C850.344056,38.3831504 868.772193,53.9390048 928.146696,53.9390048 C987.521199,53.9390048 1012.45234,38.3831504 1071.02382,38.3831504 C1132.05285,38.3831504 1165.63101,53.9390048 1218.33349,53.9390048 C1280.31908,53.9390048 1298.99622,39.0751939 1352.17871,39.0751939" id="Line-2" stroke="#E81515" stroke-width="3.456"></path>
                                    <path d="M46.4932508,46.5662819 C99.0141294,46.5662819 115.641762,30.8645188 180.00875,30.8645188 C247.720672,30.8645188 262.727142,47.1981659 345.819274,47.1981659 C401.988971,47.1981659 443.059784,30.8645188 496.130851,30.8645188 C553.246011,30.8645188 590.239746,47.1981659 642.035923,47.1981659 C698.272832,47.1981659 726.357402,30.8645188 786.951416,30.8645188 C850.344056,30.8645188 868.772193,47.1981659 928.146696,47.1981659 C987.521199,47.1981659 1012.45234,30.8645188 1071.02382,30.8645188 C1132.05285,30.8645188 1165.63101,47.1981659 1218.33349,47.1981659 C1280.31908,47.1981659 1298.99622,31.5630535 1352.17871,31.5630535" id="Line-2" stroke="#E81515" stroke-width="3.456"></path>
                                    <path d="M46.4932508,39.5581319 C99.0141294,39.5581319 115.641762,23.0805388 180.00875,23.0805388 C247.720672,23.0805388 262.727142,40.1919786 345.819274,40.1919786 C401.988971,40.1919786 443.059784,23.0805388 496.130851,23.0805388 C553.246011,23.0805388 590.239746,40.1919786 642.035923,40.1919786 C698.272832,40.1919786 726.357402,23.0805388 786.951416,23.0805388 C850.344056,23.0805388 868.772193,40.1919786 928.146696,40.1919786 C987.521199,40.1919786 1012.45234,23.0805388 1071.02382,23.0805388 C1132.05285,23.0805388 1165.63101,40.1919786 1218.33349,40.1919786 C1280.31908,40.1919786 1298.99622,23.7812431 1352.17871,23.7812431" id="Line-2" stroke="#E81515" stroke-width="3.456"></path>
                                    <path d="M46.4932508,25.0375632 C99.0141294,25.0375632 115.641762,7.78398005 180.00875,7.78398005 C247.720672,7.78398005 262.727142,25.6732126 345.819274,25.6732126 C401.988971,25.6732126 443.059784,7.78398005 496.130851,7.78398005 C553.246011,7.78398005 590.239746,25.6732126 642.035923,25.6732126 C698.272832,25.6732126 726.357402,7.78398005 786.951416,7.78398005 C850.344056,7.78398005 868.772193,25.6732126 928.146696,25.6732126 C987.521199,25.6732126 1012.45234,7.78398005 1071.02382,7.78398005 C1132.05285,7.78398005 1165.63101,25.6732126 1218.33349,25.6732126 C1280.31908,25.6732126 1298.99622,8.48667723 1352.17871,8.48667723" id="Line-2" stroke="#E81515" stroke-width="3.456"></path>
                                    <path d="M46.4932508,32.5561947 C99.0141294,32.5561947 115.641762,15.3026116 180.00875,15.3026116 C247.720672,15.3026116 262.727142,33.1918441 345.819274,33.1918441 C401.988971,33.1918441 443.059784,15.3026116 496.130851,15.3026116 C553.246011,15.3026116 590.239746,33.1918441 642.035923,33.1918441 C698.272832,33.1918441 726.357402,15.3026116 786.951416,15.3026116 C850.344056,15.3026116 868.772193,33.1918441 928.146696,33.1918441 C987.521199,33.1918441 1012.45234,15.3026116 1071.02382,15.3026116 C1132.05285,15.3026116 1165.63101,33.1918441 1218.33349,33.1918441 C1280.31908,33.1918441 1298.99622,16.0053088 1352.17871,16.0053088" id="Line-2" stroke="#E81515" stroke-width="3.456"></path>
                                    <path d="M47.5362575,18.0297144 C100.057136,18.0297144 116.684769,0 181.051756,0 C248.763679,0 263.770149,18.6670253 346.862281,18.6670253 C403.031977,18.6670253 444.102791,0 497.173858,0 C554.289018,0 591.282753,18.6670253 643.07893,18.6670253 C699.315839,18.6670253 727.400409,0 787.994423,0 C851.387062,0 869.8152,18.6670253 929.189703,18.6670253 C988.564206,18.6670253 1013.49534,0 1072.06683,0 C1133.09585,0 1166.67402,18.6670253 1219.37649,18.6670253 C1281.36208,18.6670253 1300.03923,0.704533917 1353.22172,0.704533917" id="Line-2" stroke="#E81515" stroke-width="3.456"></path>
                                    <path d="M2.13212189,196.00364 L1396.53984,196.00364" id="Line-2" stroke="#E81515" stroke-width="3.456"></path>
                                </g>
                            </g>
                        </g>
                    </g>
                </g>
            </g>
        </g>
    </g>
</svg>