<?xml version="1.0" encoding="UTF-8"?>
<svg width="810px" height="159px" viewBox="0 0 810 159" version="1.1" xmlns="http://www.w3.org/2000/svg" xmlns:xlink="http://www.w3.org/1999/xlink">
    <!-- Generator: Sketch 50.2 (55047) - http://www.bohemiancoding.com/sketch -->
    <title>Group</title>
    <desc>Created with Sketch.</desc>
    <defs>
        <path d="M0,159.600164 L28.1200045,4.32464961 L70.7393862,4.32464961 L103.912204,87.1107992 L136.865334,4.32464961 L179.484716,4.32464961 L207.60472,159.600164 L164.765651,159.600164 L150.485961,70.2240722 L111.38158,159.600164 L94.2459524,159.600164 L57.118759,70.2240722 L42.8390693,159.600164 L0,159.600164 Z M318.739152,101.938169 L299.406649,50.2483097 L280.074146,101.938169 L318.739152,101.938169 Z M330.162904,132.622588 L268.650394,132.622588 L258.764455,159.600164 L212.84976,159.600164 L275.900082,4.32464961 L322.913215,4.32464961 L385.963537,159.600164 L340.048843,159.600164 L330.162904,132.622588 Z M441.73671,68.3706509 L494.242031,4.32464961 L547.406414,4.32464961 L481.719841,77.8436929 L553.557665,159.600164 L497.757031,159.600164 L441.73671,92.2591916 L441.73671,159.600164 L398.677953,159.600164 L398.677953,4.32464961 L441.73671,4.32464961 L441.73671,68.3706509 Z M609.550525,4.32464961 L609.550525,159.600164 L566.491769,159.600164 L566.491769,4.32464961 L609.550525,4.32464961 Z M638.082444,159.600164 L638.082444,4.32464961 L681.1412,4.32464961 L760.668088,99.2610052 L760.668088,4.32464961 L803.507157,4.32464961 L803.507157,159.600164 L760.668088,159.600164 L681.1412,64.6638084 L681.1412,159.600164 L638.082444,159.600164 Z M915.740026,72.6953005 L1001.19848,72.6953005 C1001.19848,80.9327695 1000.83234,88.415025 1000.10004,95.1422913 C999.367744,101.869558 997.903175,108.116211 995.706289,113.88244 C992.630648,121.982617 988.456627,129.155972 983.1841,135.40272 C977.911572,141.649467 971.723769,146.866453 964.620503,151.053833 C957.517237,155.241213 949.718408,158.433184 941.22378,160.629842 C932.729153,162.826501 923.795283,163.924814 914.421901,163.924814 C901.533501,163.924814 889.780336,161.934122 879.162052,157.952678 C868.543768,153.971235 859.426826,148.376705 851.810954,141.168919 C844.195081,133.961134 838.263577,125.311921 834.016263,115.221022 C829.76895,105.130122 827.645325,93.9753835 827.645325,81.7564711 C827.645325,69.6748499 829.732336,58.5887558 833.90642,48.4978563 C838.080504,38.4069568 844.012008,29.7920663 851.70111,22.6529265 C859.390212,15.5137867 868.653611,9.95357852 879.491583,5.97213517 C890.329556,1.99069182 902.412249,0 915.740026,0 C933.022199,0 948.180487,3.50087181 961.215346,10.5027205 C974.250205,17.5045691 984.575416,28.3504073 992.191288,43.0405604 L951.329407,58.8976089 C947.521471,50.3855576 942.578551,44.2761931 936.500498,40.569332 C930.422446,36.862471 923.502358,35.0090682 915.740026,35.0090682 C909.295826,35.0090682 903.437551,36.1417032 898.165024,38.4070072 C892.892496,40.6723112 888.388947,43.8986048 884.65424,48.0859849 C880.919533,52.273365 877.990396,57.3187391 875.866739,63.2222585 C873.743082,69.125778 872.68127,75.7156543 872.68127,82.9920853 C872.68127,89.5820605 873.596625,95.691425 875.427364,101.320362 C877.258102,106.949299 880.004169,111.823062 883.665646,115.941797 C887.327123,120.060531 891.867287,123.252502 897.286273,125.517806 C902.70526,127.78311 909.002906,128.915745 916.179401,128.915745 C920.426715,128.915745 924.527508,128.469556 928.481903,127.577163 C932.436299,126.684771 935.987878,125.243235 939.136749,123.252514 C942.285619,121.261792 944.885229,118.687622 946.935656,115.529925 C948.986084,112.372229 950.377424,108.528134 951.109719,103.997526 L915.740026,103.997526 L915.740026,72.6953005 Z M1118.4567,4.32464961 L1147.01608,104.615333 L1182.16608,4.32464961 L1216.43734,4.32464961 L1251.58734,104.615333 L1280.14672,4.32464961 L1325.18267,4.32464961 L1275.75297,159.600164 L1231.81547,159.600164 L1199.30171,69.6062651 L1166.78796,159.600164 L1122.85045,159.600164 L1073.42075,4.32464961 L1118.4567,4.32464961 Z M1417.64366,101.938169 L1398.31116,50.2483097 L1378.97865,101.938169 L1417.64366,101.938169 Z M1429.06741,132.622588 L1367.5549,132.622588 L1357.66896,159.600164 L1311.75427,159.600164 L1374.80459,4.32464961 L1421.81772,4.32464961 L1484.86805,159.600164 L1438.95335,159.600164 L1429.06741,132.622588 Z M1514.27871,4.32464961 L1554.26185,98.8491338 L1594.46466,4.32464961 L1641.25811,4.32464961 L1571.39747,159.600164 L1537.12622,159.600164 L1467.48527,4.32464961 L1514.27871,4.32464961 Z M1746.68066,38.5099751 L1695.49347,38.5099751 L1695.49347,64.4578727 L1743.82473,64.4578727 L1743.82473,98.6431981 L1695.49347,98.6431981 L1695.49347,125.414839 L1746.68066,125.414839 L1746.68066,159.600164 L1652.43471,159.600164 L1652.43471,4.32464961 L1746.68066,4.32464961 L1746.68066,38.5099751 Z M1862.42853,44.0702388 C1857.74184,40.5006689 1853.05522,37.8578539 1848.36853,36.1417146 C1843.68184,34.4255752 1839.14168,33.5675184 1834.7479,33.5675184 C1829.18246,33.5675184 1824.6423,34.8031202 1821.12728,37.2743609 C1817.61226,39.7456016 1815.85478,42.9718952 1815.85478,46.9533386 C1815.85478,49.6991616 1816.73352,51.9644316 1818.49103,53.7492165 C1820.24854,55.5340015 1822.55523,57.0785038 1825.41118,58.3827697 C1828.26714,59.6870356 1831.48919,60.8196706 1835.07744,61.7807087 C1838.66568,62.7417467 1842.21726,63.7714149 1845.73228,64.8697441 C1859.79235,69.2630609 1870.08095,75.1321695 1876.59838,82.4772461 C1883.11581,89.8223226 1886.37448,99.3982367 1886.37448,111.205276 C1886.37448,119.168162 1884.94652,126.37584 1882.09057,132.828524 C1879.23462,139.281208 1875.06059,144.807094 1869.56838,149.406347 C1864.07616,154.005601 1857.33915,157.575117 1849.35713,160.115003 C1841.37511,162.65489 1832.33139,163.924814 1822.22571,163.924814 C1801.28207,163.924814 1781.87653,158.090027 1764.00852,146.42028 L1782.46227,113.88244 C1788.90647,119.236794 1795.27735,123.218178 1801.57509,125.82671 C1807.87283,128.435242 1814.09725,129.739488 1820.24853,129.739488 C1827.27856,129.739488 1832.5144,128.229308 1835.95619,125.208903 C1839.39797,122.188498 1841.11884,118.75627 1841.11884,114.912118 C1841.11884,112.578169 1840.67947,110.553154 1839.80072,108.837015 C1838.92196,107.120876 1837.45739,105.542051 1835.40697,104.100494 C1833.35654,102.658937 1830.6837,101.320368 1827.38837,100.084748 C1824.09304,98.8491277 1820.10209,97.4762368 1815.4154,95.9660341 C1809.84996,94.3185403 1804.39444,92.4994599 1799.04868,90.5087382 C1793.70292,88.5180165 1788.94307,85.8752015 1784.76899,82.5802139 C1780.59491,79.2852263 1777.2264,75.1322313 1774.66336,70.1211043 C1772.10033,65.1099773 1770.81883,58.7603569 1770.81883,51.0720525 C1770.81883,43.3837481 1772.17356,36.4163267 1774.88305,30.1695794 C1777.59254,23.9228321 1781.40042,18.5685575 1786.3068,14.1065951 C1791.21318,9.64463276 1797.21792,6.17808322 1804.32118,3.70684252 C1811.42445,1.23560182 1819.36973,0 1828.15728,0 C1836.35899,0 1844.92672,1.06399045 1853.86072,3.19200328 C1862.79472,5.32001611 1871.36245,8.44334292 1879.56416,12.5620774 L1862.42853,44.0702388 Z" id="path-1"></path>
    </defs>
    <g id="Hero/Landing" stroke="none" stroke-width="1" fill="none" fill-rule="evenodd">
        <g id="Desktop-HD" transform="translate(-281.000000, -479.000000)">
            <g id="Group-3" transform="translate(-796.000000, 282.000000)">
                <g id="Group-2" transform="translate(0.000000, 193.000000)">
                    <g id="Group">
                        <mask id="mask-2" fill="white">
                            <use xlink:href="#path-1"></use>
                        </mask>
                        <g id="Mask"></g>
                        <g id="Group-2" mask="url(#mask-2)" stroke-linecap="square">
                            <g transform="translate(981.292127, 6.108007)" id="Group">
                                <g>
                                    <path d="M45.3476646,158.43502 C101.231416,158.43502 118.923704,154.63865 187.412063,154.63865 C259.45953,154.63865 275.426853,158.43502 363.839313,158.43502 C423.605514,158.43502 467.306062,154.63865 523.775231,154.63865 C584.547432,154.63865 623.909849,158.43502 679.022497,158.43502 C738.860214,158.43502 768.743019,154.63865 833.216823,154.63865 C900.668446,154.63865 920.276524,158.43502 983.452733,158.43502 C1046.62894,158.43502 1073.1564,154.63865 1135.47817,154.63865 C1200.41485,154.63865 1236.14299,158.43502 1292.21997,158.43502 C1358.17445,158.43502 1378.04748,155.282749 1434.63521,155.282749" id="Line-2" stroke="#E62B1E" stroke-width="3.456"></path>
                                    <path d="M45.3476646,153.120103 C101.231416,153.120103 118.923704,148.56446 187.412063,148.56446 C259.45953,148.56446 275.426853,153.120103 363.839313,153.120103 C423.605514,153.120103 467.306062,148.56446 523.775231,148.56446 C584.547432,148.56446 623.909849,153.120103 679.022497,153.120103 C738.860214,153.120103 768.743019,148.56446 833.216823,148.56446 C900.668446,148.56446 920.276524,153.120103 983.452733,153.120103 C1046.62894,153.120103 1073.1564,148.56446 1135.47817,148.56446 C1200.41485,148.56446 1236.14299,153.120103 1292.21997,153.120103 C1358.17445,153.120103 1378.04748,149.216146 1434.63521,149.216146" id="Line-2" stroke="#E62B1E" stroke-width="3.456"></path>
                                    <path d="M45.3476646,147.045912 C101.231416,147.045912 118.923704,141.730995 187.412063,141.730995 C259.45953,141.730995 275.426853,147.045912 363.839313,147.045912 C423.605514,147.045912 467.306062,141.730995 523.775231,141.730995 C584.547432,141.730995 623.909849,147.045912 679.022497,147.045912 C738.860214,147.045912 768.743019,141.730995 833.216823,141.730995 C900.668446,141.730995 920.276524,147.045912 983.452733,147.045912 C1046.62894,147.045912 1073.1564,141.730995 1135.47817,141.730995 C1200.41485,141.730995 1236.14299,147.045912 1292.21997,147.045912 C1358.17445,147.045912 1378.04748,142.388211 1434.63521,142.388211" id="Line-2" stroke="#E62B1E" stroke-width="3.456"></path>
                                    <path d="M45.3476646,140.971721 C101.231416,140.971721 118.923704,134.89753 187.412063,134.89753 C259.45953,134.89753 275.426853,140.971721 363.839313,140.971721 C423.605514,140.971721 467.306062,134.89753 523.775231,134.89753 C584.547432,134.89753 623.909849,140.971721 679.022497,140.971721 C738.860214,140.971721 768.743019,134.89753 833.216823,134.89753 C900.668446,134.89753 920.276524,140.971721 983.452733,140.971721 C1046.62894,140.971721 1073.1564,134.89753 1135.47817,134.89753 C1200.41485,134.89753 1236.14299,140.971721 1292.21997,140.971721 C1358.17445,140.971721 1378.04748,135.558956 1434.63521,135.558956" id="Line-2" stroke="#E62B1E" stroke-width="3.456"></path>
                                    <path d="M45.3476646,135.656804 C101.231416,135.656804 118.923704,128.82334 187.412063,128.82334 C259.45953,128.82334 275.426853,135.656804 363.839313,135.656804 C423.605514,135.656804 467.306062,128.82334 523.775231,128.82334 C584.547432,128.82334 623.909849,135.656804 679.022497,135.656804 C738.860214,135.656804 768.743019,128.82334 833.216823,128.82334 C900.668446,128.82334 920.276524,135.656804 983.452733,135.656804 C1046.62894,135.656804 1073.1564,128.82334 1135.47817,128.82334 C1200.41485,128.82334 1236.14299,135.656804 1292.21997,135.656804 C1358.17445,135.656804 1378.04748,129.488077 1434.63521,129.488077" id="Line-2" stroke="#E62B1E" stroke-width="3.456"></path>
                                    <path d="M45.3476646,129.582614 C101.231416,129.582614 118.923704,121.989875 187.412063,121.989875 C259.45953,121.989875 275.426853,129.582614 363.839313,129.582614 C423.605514,129.582614 467.306062,121.989875 523.775231,121.989875 C584.547432,121.989875 623.909849,129.582614 679.022497,129.582614 C738.860214,129.582614 768.743019,121.989875 833.216823,121.989875 C900.668446,121.989875 920.276524,129.582614 983.452733,129.582614 C1046.62894,129.582614 1073.1564,121.989875 1135.47817,121.989875 C1200.41485,121.989875 1236.14299,129.582614 1292.21997,129.582614 C1358.17445,129.582614 1378.04748,122.657285 1434.63521,122.657285" id="Line-2" stroke="#E62B1E" stroke-width="3.456"></path>
                                    <path d="M45.3476646,123.508423 C101.231416,123.508423 118.923704,115.15641 187.412063,115.15641 C259.45953,115.15641 275.426853,123.508423 363.839313,123.508423 C423.605514,123.508423 467.306062,115.15641 523.775231,115.15641 C584.547432,115.15641 623.909849,123.508423 679.022497,123.508423 C738.860214,123.508423 768.743019,115.15641 833.216823,115.15641 C900.668446,115.15641 920.276524,123.508423 983.452733,123.508423 C1046.62894,123.508423 1073.1564,115.15641 1135.47817,115.15641 C1200.41485,115.15641 1236.14299,123.508423 1292.21997,123.508423 C1358.17445,123.508423 1378.04748,115.826024 1434.63521,115.826024" id="Line-2" stroke="#E62B1E" stroke-width="3.456"></path>
                                    <path d="M45.3476646,117.434232 C101.231416,117.434232 118.923704,108.322946 187.412063,108.322946 C259.45953,108.322946 275.426853,117.434232 363.839313,117.434232 C423.605514,117.434232 467.306062,108.322946 523.775231,108.322946 C584.547432,108.322946 623.909849,117.434232 679.022497,117.434232 C738.860214,117.434232 768.743019,108.322946 833.216823,108.322946 C900.668446,108.322946 920.276524,117.434232 983.452733,117.434232 C1046.62894,117.434232 1073.1564,108.322946 1135.47817,108.322946 C1200.41485,108.322946 1236.14299,117.434232 1292.21997,117.434232 C1358.17445,117.434232 1378.04748,108.994407 1434.63521,108.994407" id="Line-2" stroke="#E62B1E" stroke-width="3.456"></path>
                                    <path d="M45.3476646,111.360041 C101.231416,111.360041 118.923704,101.489481 187.412063,101.489481 C259.45953,101.489481 275.426853,111.360041 363.839313,111.360041 C423.605514,111.360041 467.306062,101.489481 523.775231,101.489481 C584.547432,101.489481 623.909849,111.360041 679.022497,111.360041 C738.860214,111.360041 768.743019,101.489481 833.216823,101.489481 C900.668446,101.489481 920.276524,111.360041 983.452733,111.360041 C1046.62894,111.360041 1073.1564,101.489481 1135.47817,101.489481 C1200.41485,101.489481 1236.14299,111.360041 1292.21997,111.360041 C1358.17445,111.360041 1378.04748,102.162513 1434.63521,102.162513" id="Line-2" stroke="#E62B1E" stroke-width="3.456"></path>
                                    <path d="M45.3476646,105.175593 C101.231416,105.175593 118.923704,94.5457591 187.412063,94.5457591 C259.45953,94.5457591 275.426853,105.175593 363.839313,105.175593 C423.605514,105.175593 467.306062,94.5457591 523.775231,94.5457591 C584.547432,94.5457591 623.909849,105.175593 679.022497,105.175593 C738.860214,105.175593 768.743019,94.5457591 833.216823,94.5457591 C900.668446,94.5457591 920.276524,105.175593 983.452733,105.175593 C1046.62894,105.175593 1073.1564,94.5457591 1135.47817,94.5457591 C1200.41485,94.5457591 1236.14299,105.175593 1292.21997,105.175593 C1358.17445,105.175593 1378.04748,95.2201432 1434.63521,95.2201432" id="Line-2" stroke="#E62B1E" stroke-width="3.456"></path>
                                    <path d="M45.3476646,98.4523859 C101.231416,98.4523859 118.923704,87.0632782 187.412063,87.0632782 C259.45953,87.0632782 275.426853,98.4523859 363.839313,98.4523859 C423.605514,98.4523859 467.306062,87.0632782 523.775231,87.0632782 C584.547432,87.0632782 623.909849,98.4523859 679.022497,98.4523859 C738.860214,98.4523859 768.743019,87.0632782 833.216823,87.0632782 C900.668446,87.0632782 920.276524,98.4523859 983.452733,98.4523859 C1046.62894,98.4523859 1073.1564,87.0632782 1135.47817,87.0632782 C1200.41485,87.0632782 1236.14299,98.4523859 1292.21997,98.4523859 C1358.17445,98.4523859 1378.04748,87.7388388 1434.63521,87.7388388" id="Line-2" stroke="#E62B1E" stroke-width="3.456"></path>
                                    <path d="M45.3476646,92.3841039 C101.231416,92.3841039 118.923704,80.2357224 187.412063,80.2357224 C259.45953,80.2357224 275.426853,92.3841039 363.839313,92.3841039 C423.605514,92.3841039 467.306062,80.2357224 523.775231,80.2357224 C584.547432,80.2357224 623.909849,92.3841039 679.022497,92.3841039 C738.860214,92.3841039 768.743019,80.2357224 833.216823,80.2357224 C900.668446,80.2357224 920.276524,92.3841039 983.452733,92.3841039 C1046.62894,92.3841039 1073.1564,80.2357224 1135.47817,80.2357224 C1200.41485,80.2357224 1236.14299,92.3841039 1292.21997,92.3841039 C1358.17445,92.3841039 1378.04748,80.9123157 1434.63521,80.9123157" id="Line-2" stroke="#E62B1E" stroke-width="3.456"></path>
                                    <path d="M49.4701795,85.8037612 C105.353931,85.8037612 123.046219,72.8961059 191.534578,72.8961059 C263.582045,72.8961059 279.549368,85.8037612 367.961828,85.8037612 C427.728029,85.8037612 471.428577,72.8961059 527.897746,72.8961059 C588.669947,72.8961059 628.032364,85.8037612 683.145012,85.8037612 C742.982729,85.8037612 772.865534,72.8961059 837.339338,72.8961059 C904.790961,72.8961059 924.399039,85.8037612 987.575248,85.8037612 C1050.75146,85.8037612 1077.27892,72.8961059 1139.60069,72.8961059 C1204.53736,72.8961059 1240.26551,85.8037612 1296.34249,85.8037612 C1362.29697,85.8037612 1382.16999,73.5805062 1438.75772,73.5805062" id="Line-2" stroke="#E62B1E" stroke-width="3.456"></path>
                                    <path d="M49.4701795,79.4824492 C105.353931,79.4824492 123.046219,65.81552 191.534578,65.81552 C263.582045,65.81552 279.549368,79.4824492 367.961828,79.4824492 C427.728029,79.4824492 471.428577,65.81552 527.897746,65.81552 C588.669947,65.81552 628.032364,79.4824492 683.145012,79.4824492 C742.982729,79.4824492 772.865534,65.81552 837.339338,65.81552 C904.790961,65.81552 924.399039,79.4824492 987.575248,79.4824492 C1050.75146,79.4824492 1077.27892,65.81552 1139.60069,65.81552 C1204.53736,65.81552 1240.26551,79.4824492 1296.34249,79.4824492 C1362.29697,79.4824492 1382.16999,66.5070127 1438.75772,66.5070127" id="Line-2" stroke="#E62B1E" stroke-width="3.456"></path>
                                    <path d="M49.4701795,72.8961059 C105.353931,72.8961059 123.046219,58.4699028 191.534578,58.4699028 C263.582045,58.4699028 279.549368,72.8961059 367.961828,72.8961059 C427.728029,72.8961059 471.428577,58.4699028 527.897746,58.4699028 C588.669947,58.4699028 628.032364,72.8961059 683.145012,72.8961059 C742.982729,72.8961059 772.865534,58.4699028 837.339338,58.4699028 C904.790961,58.4699028 924.399039,72.8961059 987.575248,72.8961059 C1050.75146,72.8961059 1077.27892,58.4699028 1139.60069,58.4699028 C1204.53736,58.4699028 1240.26551,72.8961059 1296.34249,72.8961059 C1362.29697,72.8961059 1382.16999,59.167867 1438.75772,59.167867" id="Line-2" stroke="#E62B1E" stroke-width="3.456"></path>
                                    <path d="M49.4701795,65.7977018 C105.353931,65.7977018 123.046219,51.3714988 191.534578,51.3714988 C263.582045,51.3714988 279.549368,65.7977018 367.961828,65.7977018 C427.728029,65.7977018 471.428577,51.3714988 527.897746,51.3714988 C588.669947,51.3714988 628.032364,65.7977018 683.145012,65.7977018 C742.982729,65.7977018 772.865534,51.3714988 837.339338,51.3714988 C904.790961,51.3714988 924.399039,65.7977018 987.575248,65.7977018 C1050.75146,65.7977018 1077.27892,51.3714988 1139.60069,51.3714988 C1204.53736,51.3714988 1240.26551,65.7977018 1296.34249,65.7977018 C1362.29697,65.7977018 1382.16999,52.0694629 1438.75772,52.0694629" id="Line-2" stroke="#E62B1E" stroke-width="3.456"></path>
                                    <path d="M49.4701795,59.7294198 C105.353931,59.7294198 123.046219,44.5439429 191.534578,44.5439429 C263.582045,44.5439429 279.549368,59.7294198 367.961828,59.7294198 C427.728029,59.7294198 471.428577,44.5439429 527.897746,44.5439429 C588.669947,44.5439429 628.032364,59.7294198 683.145012,59.7294198 C742.982729,59.7294198 772.865534,44.5439429 837.339338,44.5439429 C904.790961,44.5439429 924.399039,59.7294198 987.575248,59.7294198 C1050.75146,59.7294198 1077.27892,44.5439429 1139.60069,44.5439429 C1204.53736,44.5439429 1240.26551,59.7294198 1296.34249,59.7294198 C1362.29697,59.7294198 1382.16999,45.2478359 1438.75772,45.2478359" id="Line-2" stroke="#E62B1E" stroke-width="3.456"></path>
                                    <path d="M49.4701795,52.0436355 C105.353931,52.0436355 123.046219,37.4692658 191.534578,37.4692658 C263.582045,37.4692658 279.549368,52.6547427 367.961828,52.6547427 C427.728029,52.6547427 471.428577,37.4692658 527.897746,37.4692658 C588.669947,37.4692658 628.032364,52.6547427 683.145012,52.6547427 C742.982729,52.6547427 772.865534,37.4692658 837.339338,37.4692658 C904.790961,37.4692658 924.399039,52.6547427 987.575248,52.6547427 C1050.75146,52.6547427 1077.27892,37.4692658 1139.60069,37.4692658 C1204.53736,37.4692658 1240.26551,52.6547427 1296.34249,52.6547427 C1362.29697,52.6547427 1382.16999,38.1448322 1438.75772,38.1448322" id="Line-2" stroke="#E62B1E" stroke-width="3.456"></path>
                                    <path d="M49.4701795,45.4575609 C105.353931,45.4575609 123.046219,30.1296493 191.534578,30.1296493 C263.582045,30.1296493 279.549368,46.0744001 367.961828,46.0744001 C427.728029,46.0744001 471.428577,30.1296493 527.897746,30.1296493 C588.669947,30.1296493 628.032364,46.0744001 683.145012,46.0744001 C742.982729,46.0744001 772.865534,30.1296493 837.339338,30.1296493 C904.790961,30.1296493 924.399039,46.0744001 987.575248,46.0744001 C1050.75146,46.0744001 1077.27892,30.1296493 1139.60069,30.1296493 C1204.53736,30.1296493 1240.26551,46.0744001 1296.34249,46.0744001 C1362.29697,46.0744001 1382.16999,30.8115522 1438.75772,30.8115522" id="Line-2" stroke="#E62B1E" stroke-width="3.456"></path>
                                    <path d="M49.4701795,38.6162716 C105.353931,38.6162716 123.046219,22.5310021 191.534578,22.5310021 C263.582045,22.5310021 279.549368,39.2350267 367.961828,39.2350267 C427.728029,39.2350267 471.428577,22.5310021 527.897746,22.5310021 C588.669947,22.5310021 628.032364,39.2350267 683.145012,39.2350267 C742.982729,39.2350267 772.865534,22.5310021 837.339338,22.5310021 C904.790961,22.5310021 924.399039,39.2350267 987.575248,39.2350267 C1050.75146,39.2350267 1077.27892,22.5310021 1139.60069,22.5310021 C1204.53736,22.5310021 1240.26551,39.2350267 1296.34249,39.2350267 C1362.29697,39.2350267 1382.16999,23.2150231 1438.75772,23.2150231" id="Line-2" stroke="#E62B1E" stroke-width="3.456"></path>
                                    <path d="M49.4701795,24.4414307 C105.353931,24.4414307 123.046219,7.59864719 191.534578,7.59864719 C263.582045,7.59864719 279.549368,25.0619456 367.961828,25.0619456 C427.728029,25.0619456 471.428577,7.59864719 527.897746,7.59864719 C588.669947,7.59864719 628.032364,25.0619456 683.145012,25.0619456 C742.982729,25.0619456 772.865534,7.59864719 837.339338,7.59864719 C904.790961,7.59864719 924.399039,25.0619456 987.575248,25.0619456 C1050.75146,25.0619456 1077.27892,7.59864719 1139.60069,7.59864719 C1204.53736,7.59864719 1240.26551,25.0619456 1296.34249,25.0619456 C1362.29697,25.0619456 1382.16999,8.28461348 1438.75772,8.28461348" id="Line-2" stroke="#E62B1E" stroke-width="3.456"></path>
                                    <path d="M49.4701795,31.7810472 C105.353931,31.7810472 123.046219,14.9382637 191.534578,14.9382637 C263.582045,14.9382637 279.549368,32.4015621 367.961828,32.4015621 C427.728029,32.4015621 471.428577,14.9382637 527.897746,14.9382637 C588.669947,14.9382637 628.032364,32.4015621 683.145012,32.4015621 C742.982729,32.4015621 772.865534,14.9382637 837.339338,14.9382637 C904.790961,14.9382637 924.399039,32.4015621 987.575248,32.4015621 C1050.75146,32.4015621 1077.27892,14.9382637 1139.60069,14.9382637 C1204.53736,14.9382637 1240.26551,32.4015621 1296.34249,32.4015621 C1362.29697,32.4015621 1382.16999,15.62423 1438.75772,15.62423" id="Line-2" stroke="#E62B1E" stroke-width="3.456"></path>
                                    <path d="M50.5799692,17.6004354 C106.463721,17.6004354 124.156009,0 192.644367,0 C264.691834,0 280.659158,18.2225723 369.071618,18.2225723 C428.837819,18.2225723 472.538366,0 529.007535,0 C589.779737,0 629.142154,18.2225723 684.254801,18.2225723 C744.092519,18.2225723 773.975324,0 838.449127,0 C905.900751,0 925.508829,18.2225723 988.685038,18.2225723 C1051.86125,18.2225723 1078.38871,0 1140.71048,0 C1205.64715,0 1241.3753,18.2225723 1297.45228,18.2225723 C1363.40676,18.2225723 1383.27978,0.6877593 1439.86751,0.6877593" id="Line-2" stroke="#E62B1E" stroke-width="3.456"></path>
                                </g>
                            </g>
                        </g>
                    </g>
                </g>
            </g>
        </g>
    </g>
</svg>